<?xml version="1.0" encoding="iso-8859-1"?>
<!-- Generator: Adobe Illustrator 19.0.0, SVG Export Plug-In . SVG Version: 6.00 Build 0)  -->
<svg version="1.1" id="Capa_1" xmlns="http://www.w3.org/2000/svg" xmlns:xlink="http://www.w3.org/1999/xlink" x="0px" y="0px"
	 viewBox="0 0 512 512" style="enable-background:new 0 0 512 512;" xml:space="preserve">
<g>
	<g>
		<path d="M496.484,240.483h-30.073l-34.052-19.458c-14.433-8.247-30.847-12.606-47.469-12.606h-33.212v-0.516
			c0-17.396-14.152-31.549-31.548-31.549H191.871c-17.396,0-31.548,14.152-31.548,31.549v0.516H127.11
			c-16.622,0-33.037,4.359-47.469,12.606l-34.052,19.458H15.516C6.96,240.483,0,247.444,0,256v16.032
			c0,8.556,6.96,15.517,15.516,15.517h144.807v16.548c0,17.396,14.152,31.549,31.548,31.549h128.258
			c17.396,0,31.548-14.152,31.548-31.549v-16.548h144.807c8.556,0,15.516-6.961,15.516-15.517V256
			C512,247.444,505.04,240.483,496.484,240.483z M175.323,207.903c0-9.125,7.423-16.549,16.548-16.549h128.258
			c9.125,0,16.548,7.424,16.548,16.549v0.516H175.323V207.903z M336.677,304.097c0,9.125-7.423,16.549-16.548,16.549H191.871
			c-9.125,0-16.548-7.424-16.548-16.549v-16.548h161.354V304.097z M497,272.032c0,0.285-0.231,0.517-0.516,0.517H15.516
			c-0.285,0-0.516-0.231-0.516-0.517V256c0-0.285,0.231-0.517,0.516-0.517h360.721c4.142,0,7.5-3.357,7.5-7.5s-3.358-7.5-7.5-7.5
			H75.823l11.261-6.435c12.17-6.954,26.011-10.63,40.027-10.63H384.89c14.016,0,27.857,3.676,40.027,10.63l11.261,6.435h-27.871
			c-4.142,0-7.5,3.357-7.5,7.5s3.358,7.5,7.5,7.5h88.177c0.285,0,0.516,0.231,0.516,0.517V272.032z"/>
	</g>
</g>
<g>
</g>
<g>
</g>
<g>
</g>
<g>
</g>
<g>
</g>
<g>
</g>
<g>
</g>
<g>
</g>
<g>
</g>
<g>
</g>
<g>
</g>
<g>
</g>
<g>
</g>
<g>
</g>
<g>
</g>
</svg>
