<svg width="512" height="311" viewBox="0 0 512 311" fill="none" xmlns="http://www.w3.org/2000/svg">
<path d="M224.45 246C224.45 246 266.166 58.751 351.119 58.751C436.072 58.751 477.788 246 477.788 246H224.45Z" fill="#09A76D"/>
<path d="M351.119 58.751C345.959 58.751 340.96 59.447 336.119 60.745C410.984 80.811 447.788 246 447.788 246H477.788C477.788 246 436.072 58.751 351.119 58.751Z" fill="#02905D"/>
<path d="M36.271 246C36.271 246 89.293 8 197.271 8C305.249 8 358.271 246 358.271 246H36.271Z" fill="#57BE92"/>
<path d="M197.271 8C192.147 8 187.148 8.539 182.271 9.56C280.161 30.055 328.271 246 328.271 246H358.271C358.271 246 305.249 8 197.271 8V8Z" fill="#22B37F"/>
<path d="M73.766 132.68C80.035 138.446 86.463 143.947 94.218 147.32C111.45 154.813 131.752 150.1 148.358 141.306C164.964 132.512 179.282 119.946 195.499 110.455C211.717 100.964 231.219 94.572 249.264 99.815C257.821 102.302 265.423 107.222 273.342 111.308C285.95 117.814 301.251 122.031 314.622 119.087C287.91 62.338 248.865 8 197.271 8C141.563 8 100.484 71.348 73.766 132.68V132.68Z" fill="#97DA7B"/>
<path d="M197.271 8C192.143 8 187.141 8.541 182.261 9.563C225.477 18.606 258.991 65.736 282.948 115.572C293.276 119.437 304.5 121.315 314.622 119.087C287.91 62.338 248.865 8 197.271 8V8Z" fill="#80D261"/>
<path d="M491.349 262.986C491.349 265.904 491.059 268.752 490.499 271.5H304.849C304.849 252.644 320.149 237.365 339.009 237.365C342.229 237.365 345.339 237.805 348.289 238.634C347.989 236.555 347.829 234.427 347.829 232.259C347.829 208.096 367.429 188.501 391.619 188.501C412.549 188.501 430.049 203.18 434.369 222.796C438.839 221.207 443.649 220.338 448.669 220.338C472.239 220.337 491.349 239.433 491.349 262.986V262.986Z" fill="#97DA7B"/>
<path d="M448.669 220.337C443.649 220.337 438.839 221.206 434.369 222.795C430.049 203.179 412.549 188.5 391.619 188.5C386.346 188.5 381.291 189.432 376.61 191.139C387.422 195.078 396.245 203.148 401.156 213.444C403.49 218.337 408.757 221.143 414.152 220.574C416.57 220.319 419.05 220.266 421.575 220.434C443.521 221.891 460.946 240.215 461.342 262.19C461.4 265.386 461.11 268.503 460.499 271.5H490.499C491.059 268.752 491.349 265.904 491.349 262.986C491.349 239.433 472.239 220.337 448.669 220.337V220.337Z" fill="#80D261"/>
<path d="M329.84 264.75C329.84 267.05 329.65 269.31 329.3 271.5H119.06C119.06 252.12 134.77 236.4 154.16 236.4C160.98 236.4 167.34 238.36 172.73 241.73C173.85 229.13 179.66 217.9 188.42 209.77C177.59 206.54 169.7 196.51 169.7 184.64C169.7 170.14 181.45 158.39 195.94 158.39C210.44 158.39 222.19 170.14 222.19 184.64C222.19 188.95 221.13 193.01 219.28 196.6C220.24 196.54 221.21 196.51 222.19 196.51C243.13 196.51 261.03 209.48 268.34 227.82C274.2 224.69 280.89 222.91 288 222.91C311.11 222.91 329.84 241.64 329.84 264.75V264.75Z" fill="#97DA7B"/>
<path d="M192.19 184.64C192.19 187.956 191.562 191.124 190.431 194.044C189.966 195.245 190.873 196.511 192.161 196.51H192.19C211.634 196.51 228.456 207.693 236.613 223.974C237.632 226.008 240.054 226.886 242.158 226.022C247.043 224.018 252.39 222.91 257.999 222.91C260.914 222.91 263.758 223.21 266.504 223.777C258.31 207.605 241.553 196.51 222.189 196.51C221.209 196.51 220.239 196.54 219.279 196.6C221.348 192.585 222.429 187.982 222.144 183.099C221.329 169.139 209.36 158.102 195.379 158.396C190.016 158.509 185.051 160.236 180.943 163.104C187.741 167.848 192.19 175.721 192.19 184.64V184.64Z" fill="#80D261"/>
<path d="M288 222.91C282.711 222.91 277.657 223.898 273.002 225.691C288.698 231.722 299.841 246.929 299.841 264.75C299.841 267.05 299.651 269.31 299.301 271.5H329.301C329.651 269.31 329.841 267.05 329.841 264.75C329.84 241.64 311.11 222.91 288 222.91V222.91Z" fill="#80D261"/>
<path d="M20.651 262.986C20.651 265.904 20.941 268.752 21.501 271.5H207.151C207.151 252.644 191.851 237.365 172.991 237.365C169.771 237.365 166.661 237.805 163.711 238.634C164.011 236.555 164.171 234.427 164.171 232.259C164.171 208.096 144.571 188.501 120.381 188.501C99.451 188.501 81.951 203.18 77.631 222.796C73.161 221.207 68.351 220.338 63.331 220.338C39.761 220.337 20.651 239.433 20.651 262.986V262.986Z" fill="#97DA7B"/>
<path d="M172.991 237.365C169.771 237.365 166.661 237.805 163.711 238.634C164.011 236.555 164.171 234.427 164.171 232.259C164.171 208.096 144.571 188.501 120.381 188.501C115.112 188.501 110.062 189.433 105.384 191.138C122.181 197.259 134.171 213.362 134.171 232.259V232.39C134.162 235.451 136.76 237.789 139.81 237.51C140.857 237.414 141.918 237.365 142.991 237.365C161.851 237.365 177.151 252.644 177.151 271.5H207.151C207.151 252.644 191.851 237.365 172.991 237.365V237.365Z" fill="#80D261"/>
<path d="M488.5 303.5H23.5C14.663 303.5 7.5 296.337 7.5 287.5V275.5C7.5 273.291 9.291 271.5 11.5 271.5H500.5C502.709 271.5 504.5 273.291 504.5 275.5V287.5C504.5 296.337 497.337 303.5 488.5 303.5Z" fill="#AE6C6C"/>
<path d="M474.5 271.5V287.5C474.5 296.337 467.337 303.5 458.5 303.5H488.5C497.337 303.5 504.5 296.337 504.5 287.5V275.5C504.5 273.291 502.709 271.5 500.5 271.5H474.5Z" fill="#9B5E5E"/>
<path d="M500.5 264H498.824C498.831 263.663 498.849 263.327 498.849 262.99C498.849 247.063 491.372 232.857 479.752 223.663C464.64 169.858 423.129 51.25 351.12 51.25C332.844 51.25 315.271 58.91 298.772 74.043C268.149 25.234 234.042 0.5 197.27 0.5C170.087 0.5 144.121 14.181 120.093 41.164C117.338 44.257 117.613 48.998 120.706 51.753C123.8 54.507 128.54 54.233 131.295 51.14C152.354 27.491 174.551 15.5 197.27 15.5C230.911 15.5 262.873 41.346 292.268 92.32C296.051 98.881 299.652 105.617 303.072 112.442C294.977 111.977 285.81 109.302 276.78 104.643C274.852 103.648 272.958 102.609 270.952 101.509C264.846 98.16 258.53 94.696 251.356 92.612C229.142 86.157 206.66 95.232 191.71 103.981C184.124 108.421 176.954 113.497 170.021 118.406C161.547 124.405 153.544 130.072 144.848 134.677C127.4 143.917 110.035 146.019 97.208 140.441C92.225 138.274 87.794 135.046 82.81 130.71C90.929 112.602 100.287 94.54 110.923 78.169C113.18 74.695 112.194 70.05 108.72 67.794C105.246 65.537 100.602 66.523 98.345 69.997C65.62 120.37 44.661 185.66 34.696 221.839C21.687 230.909 13.152 245.966 13.152 262.986C13.152 263.324 13.171 263.662 13.177 264H11.5C5.159 264 0 269.159 0 275.5V287.5C0 300.458 10.542 311 23.5 311H382.192C386.335 311 389.692 307.642 389.692 303.5C389.692 299.358 386.335 296 382.192 296H23.5C18.813 296 15 292.187 15 287.5V279H497V287.5C497 292.187 493.187 296 488.5 296H417.169C413.026 296 409.669 299.358 409.669 303.5C409.669 307.642 413.026 311 417.169 311H488.5C501.458 311 512 300.458 512 287.5V275.5C512 269.159 506.841 264 500.5 264ZM461.402 214.48C457.334 213.413 453.068 212.84 448.67 212.84C445.549 212.84 442.457 213.126 439.42 213.694C431.864 194.362 412.86 181 391.62 181C376.242 181 362.427 187.802 353.018 198.549C342.843 165.73 327.529 124.12 306.644 87.26C320.996 73.327 335.936 66.249 351.12 66.249C408.569 66.25 446.3 165.516 461.402 214.48V214.48ZM76.613 145.093C80.916 148.54 85.737 151.81 91.227 154.198C98.485 157.354 105.872 158.587 112.99 158.587C128.742 158.587 143.164 152.544 151.868 147.935C161.421 142.876 170.2 136.661 178.689 130.65C185.669 125.708 192.262 121.04 199.287 116.929C211.698 109.666 230.079 102.051 247.171 107.018C252.763 108.643 258.095 111.567 263.741 114.663C265.739 115.759 267.806 116.892 269.902 117.975C278.221 122.268 293.914 128.794 310.194 127.334C324.782 159.224 335.57 191.735 342.782 216.635C341.43 220.844 340.596 225.283 340.385 229.884C335.191 229.711 330 230.542 325.129 232.259C315.812 221.615 302.341 215.412 288 215.412C282.548 215.412 277.121 216.325 271.985 218.085C263.104 202.268 247.36 191.685 229.348 189.452C229.575 187.871 229.689 186.266 229.689 184.642C229.689 166.032 214.549 150.892 195.939 150.892C177.335 150.892 162.199 166.032 162.199 184.642C162.199 195.651 167.676 205.823 176.317 212.053C174.067 215.062 172.154 218.281 170.553 221.654C165.65 198.463 145.023 181 120.381 181C99.141 181 80.137 194.361 72.581 213.69C69.544 213.123 66.452 212.836 63.331 212.836C59.616 212.836 55.998 213.254 52.511 214.023C58.139 194.837 66.158 170.349 76.613 145.093V145.093ZM28.166 264C28.157 263.663 28.152 263.325 28.152 262.986C28.152 243.605 43.934 227.837 63.332 227.837C67.373 227.837 71.339 228.519 75.121 229.862C77.149 230.582 79.388 230.398 81.269 229.354C83.151 228.311 84.494 226.509 84.957 224.408C88.581 207.947 103.479 196 120.381 196C140.391 196 156.671 212.266 156.671 232.258C156.671 234.015 156.542 235.8 156.288 237.563C155.926 240.075 156.858 242.6 158.767 244.272C160.675 245.945 163.299 246.54 165.743 245.853C168.076 245.197 170.515 244.864 172.992 244.864C185.087 244.864 195.326 252.952 198.576 263.999H28.166V264ZM213.961 264C211.004 247.83 198.678 234.898 182.826 231.047C185.104 225.092 188.722 219.725 193.524 215.265C195.496 213.433 196.335 210.685 195.723 208.065C195.111 205.445 193.142 203.352 190.563 202.583C182.695 200.236 177.2 192.858 177.2 184.64C177.2 174.301 185.607 165.89 195.94 165.89C206.279 165.89 214.69 174.301 214.69 184.64C214.69 187.622 213.991 190.49 212.613 193.164C211.377 195.563 211.525 198.442 213.001 200.702C214.478 202.962 217.046 204.253 219.748 204.085C220.551 204.035 221.373 204.009 222.19 204.009C239.556 204.009 254.936 214.445 261.373 230.596C262.163 232.578 263.76 234.13 265.765 234.863C267.77 235.596 269.992 235.44 271.873 234.435C276.874 231.764 282.3 230.41 288 230.41C299.464 230.41 310.135 236.104 316.538 245.634C320.194 251.093 322.19 257.428 322.332 264H213.961ZM337.326 264C337.23 257.574 335.903 251.299 333.422 245.461C335.251 245.071 337.124 244.859 339.009 244.859C341.485 244.859 343.924 245.192 346.258 245.849C348.701 246.537 351.326 245.941 353.236 244.267C355.144 242.593 356.076 240.067 355.713 237.554C355.459 235.802 355.33 234.02 355.33 232.259C355.33 212.265 371.609 195.999 391.62 195.999C408.521 195.999 423.42 207.948 427.046 224.412C427.509 226.514 428.852 228.315 430.734 229.359C432.616 230.402 434.854 230.586 436.883 229.866C440.663 228.521 444.628 227.84 448.669 227.84C468.067 227.84 483.849 243.609 483.849 262.99C483.849 263.327 483.844 263.663 483.834 264H337.326Z" fill="black"/>
</svg>
