<svg width="962" height="962" viewBox="0 0 962 962" fill="none" xmlns="http://www.w3.org/2000/svg">
<rect width="962" height="962" rx="481" fill="#BDE0FE"/>
<path d="M428.111 363.891H392.851V293.373C392.852 290.47 393.569 287.613 394.939 285.054C396.309 282.495 398.29 280.315 400.705 278.705L480.039 225.816L499.59 255.152L428.111 302.805V363.891Z" fill="#F9E109"/>
<path d="M499.599 255.17L428.111 302.769V363.856H392.851V293.338C392.852 290.441 393.569 287.59 394.937 285.037C396.306 282.484 398.285 280.309 400.697 278.705L409.6 272.711C416.699 275.056 424.253 275.679 431.641 274.53C439.028 273.38 446.036 270.491 452.087 266.1L489.021 239.215L499.599 255.17Z" fill="#FCBC04"/>
<path d="M507.444 737.074H313.518L278.259 428.557H542.703L507.444 737.074Z" fill="#F8664F"/>
<path d="M295.889 393.297H525.073C529.749 393.297 534.233 395.155 537.539 398.461C540.846 401.767 542.703 406.251 542.703 410.927V428.557H278.259V410.927C278.259 406.251 280.117 401.767 283.423 398.461C286.729 395.155 291.213 393.297 295.889 393.297Z" fill="#84D2F4"/>
<path d="M339.963 358.038H480.999C485.675 358.038 490.159 359.896 493.465 363.202C496.772 366.508 498.629 370.992 498.629 375.668V393.297H322.333V375.668C322.333 370.992 324.191 366.508 327.497 363.202C330.803 359.896 335.287 358.038 339.963 358.038Z" fill="#84D2F4"/>
<path d="M539.706 455.001H339.963C390.778 505.812 458.096 536.766 529.745 542.267L507.444 737.074H313.518L278.259 428.557H542.703L539.706 455.001Z" fill="#CC5144"/>
<path d="M542.703 410.927V428.557H278.259V410.927C278.273 406.256 280.135 401.78 283.438 398.476C286.741 395.173 291.217 393.311 295.889 393.297C295.903 397.969 297.765 402.445 301.068 405.748C304.371 409.051 308.847 410.913 313.518 410.927H542.703Z" fill="#57B7EB"/>
<path d="M498.629 375.668V393.297H322.333V375.668C322.347 370.996 324.209 366.52 327.512 363.217C330.815 359.914 335.291 358.052 339.963 358.038C339.977 362.71 341.839 367.186 345.142 370.489C348.445 373.792 352.921 375.654 357.592 375.668H498.629Z" fill="#57B7EB"/>
<path d="M595.592 402.112L577.962 622.482L569.147 719.445L613.221 728.26L639.666 410.927L613.221 396.823L595.592 402.112Z" fill="#E59730"/>
<path d="M542.703 446.186L560.333 657.741H613.221L595.592 437.371L569.147 410.927L542.703 446.186Z" fill="#FCBC04"/>
<path d="M613.221 657.741H560.333L542.703 446.186L553.104 432.347L569.147 560.778H577.962L587.57 504.716L595.592 499.075L600.969 504.452L613.221 657.741Z" fill="#E59730"/>
<path d="M525.073 472.631L498.955 463.657L489.814 490.26L533.888 631.297L575.027 613.667L525.073 472.631Z" fill="#F9E109"/>
<path d="M575.053 613.667L533.888 631.297L489.814 490.26L498.805 464.256L514.936 512.738C524.347 541.041 541.659 566.06 564.828 584.843L575.053 613.667Z" fill="#FCBC04"/>
<path d="M683.74 410.927L647.784 578.408H683.74L710.184 455.001L683.74 410.927Z" fill="#F9E109"/>
<path d="M682.4 493.125L696.503 432.144L683.74 410.927L647.784 578.408H683.74L695.754 522.355C690.627 519.625 686.541 515.284 684.128 510.001C681.714 504.718 681.107 498.787 682.4 493.125V493.125Z" fill="#FCBC04"/>
<path d="M436.925 463.816L498.629 631.297L533.888 622.482L472.185 463.816H436.925Z" fill="#F9E109"/>
<path d="M436.925 463.816L498.629 631.297L516.259 626.889L453.303 463.816H436.925Z" fill="#FCBC04"/>
<path d="M630.851 437.371L604.407 648.926L639.666 640.112L674.925 455.001L630.851 437.371Z" fill="#F9E109"/>
<path d="M654.827 560.514L639.666 640.112L604.407 648.926L630.851 437.371L647.952 444.247L640.9 543.237C640.625 547.34 641.906 551.396 644.486 554.598C647.067 557.799 650.759 559.912 654.827 560.514Z" fill="#FCBC04"/>
<path d="M622.036 657.741H586.777L595.592 499.075L630.851 507.89L622.036 657.741Z" fill="#F9E109"/>
<path d="M610.859 574.591L612.851 503.394L595.592 499.075L586.777 657.741H622.036L625.5 598.911C621 596.669 617.233 593.19 614.64 588.882C612.047 584.575 610.735 579.618 610.859 574.591V574.591Z" fill="#FCBC04"/>
<path d="M666.11 543.149C666.11 577.227 630.595 604.852 586.777 604.852C542.959 604.852 507.444 577.227 507.444 543.149H463.37L489.814 737.074H683.74L710.184 543.149H666.11Z" fill="#84D2F4"/>
<path d="M688.588 701.815L683.74 737.074H489.814L463.37 543.149H507.444C507.597 550.608 509.298 557.954 512.439 564.722C515.58 571.489 520.093 577.53 525.69 582.463C530.848 615.717 547.733 646.029 573.293 667.919C598.853 689.809 631.4 701.832 665.052 701.815H688.588Z" fill="#57B7EB"/>
<path d="M586.777 701.815C601.382 701.815 613.221 689.976 613.221 675.371C613.221 660.766 601.382 648.926 586.777 648.926C572.172 648.926 560.333 660.766 560.333 675.371C560.333 689.976 572.172 701.815 586.777 701.815Z" fill="#F9E109"/>
<path d="M608.726 690.091C605.566 694.793 600.98 698.356 595.643 700.255C590.306 702.155 584.501 702.29 579.081 700.642C573.661 698.993 568.914 695.648 565.539 691.098C562.164 686.549 560.339 681.036 560.333 675.371C560.315 669.974 561.979 664.705 565.093 660.297C577.624 672.897 592.429 683.007 608.726 690.091Z" fill="#FCBC04"/>
<path d="M463.37 648.926H304.704C295.352 648.926 286.384 645.212 279.772 638.599C273.159 631.987 269.444 623.019 269.444 613.667C269.444 604.316 273.159 595.348 279.772 588.735C286.384 582.123 295.352 578.408 304.704 578.408H463.37C472.721 578.408 481.689 582.123 488.302 588.735C494.914 595.348 498.629 604.316 498.629 613.667C498.629 623.019 494.914 631.987 488.302 638.599C481.689 645.212 472.721 648.926 463.37 648.926Z" fill="#F89C8D"/>
<path d="M480.999 631.297C485.99 631.293 490.922 630.21 495.456 628.124C493.754 632.036 491.332 635.595 488.316 638.613C481.684 645.203 472.719 648.91 463.37 648.926H304.704C297.726 648.932 290.904 646.867 285.1 642.993C279.297 639.119 274.773 633.61 272.102 627.164C269.431 620.718 268.733 613.624 270.096 606.781C271.458 599.938 274.821 593.653 279.758 588.721C282.776 585.705 286.334 583.284 290.247 581.581C294.781 579.495 299.712 578.412 304.704 578.408H463.37C471.94 578.42 480.213 581.554 486.641 587.223C491.03 591.014 494.369 595.871 496.337 601.327C494.723 604.237 492.36 606.663 489.493 608.353C486.625 610.042 483.358 610.934 480.03 610.935C477.127 610.934 474.263 610.271 471.656 608.995C469.088 607.692 466.249 607.012 463.37 607.012C460.49 607.012 457.651 607.692 455.084 608.995L436.397 618.339C433.829 619.643 430.99 620.322 428.111 620.322C425.231 620.322 422.392 619.643 419.825 618.339L401.137 608.995C398.57 607.692 395.731 607.012 392.851 607.012C389.972 607.012 387.133 607.692 384.566 608.995L365.878 618.339C363.311 619.643 360.472 620.322 357.592 620.322C354.713 620.322 351.874 619.643 349.306 618.339L330.619 608.995C328.052 607.692 325.213 607.012 322.333 607.012C319.454 607.012 316.615 607.692 314.047 608.995L299.855 616.135C298.217 616.921 296.504 617.541 294.743 617.987C298.038 622.145 302.232 625.503 307.01 627.809C311.789 630.114 317.028 631.306 322.333 631.297H480.999Z" fill="#F8664F"/>
<path d="M251.815 684.186H516.259V701.815C516.259 711.167 512.544 720.135 505.931 726.747C499.319 733.36 490.351 737.074 480.999 737.074H287.074C277.723 737.074 268.754 733.36 262.142 726.747C255.53 720.135 251.815 711.167 251.815 701.815V684.186Z" fill="#FCBC04"/>
<path d="M408.718 684.186L401.666 693L394.614 684.186H408.718Z" fill="#E59730"/>
<path d="M408.718 684.186L401.666 693L394.614 684.186H408.718Z" fill="#E59730"/>
<path d="M480.999 684.186H287.074C282.398 684.186 277.914 682.328 274.608 679.022C271.302 675.716 269.444 671.232 269.444 666.556C269.444 661.88 271.302 657.396 274.608 654.09C277.914 650.784 282.398 648.926 287.074 648.926H480.999C485.675 648.926 490.159 650.784 493.465 654.09C496.772 657.396 498.629 661.88 498.629 666.556C498.629 671.232 496.772 675.716 493.465 679.022C490.159 682.328 485.675 684.186 480.999 684.186Z" fill="#CC5144"/>
<path d="M410.481 693L375.222 648.926H445.74L410.481 693Z" fill="#F7F754"/>
<path d="M407.458 658.376L399.903 648.926H375.222L410.481 693L430.447 668.046C426.113 668.47 421.742 667.808 417.729 666.12C413.715 664.432 410.185 661.77 407.458 658.376V658.376Z" fill="#F9E109"/>
<path d="M260.63 578.408C260.628 583.706 262.103 588.898 264.889 593.404C267.674 597.91 271.66 601.551 276.399 603.918L283.134 607.285C287.093 609.268 291.461 610.3 295.889 610.3C300.317 610.3 304.684 609.268 308.644 607.285L322.827 600.234C325.411 598.942 328.259 598.27 331.148 598.27C334.036 598.27 336.885 598.942 339.469 600.234L358.086 609.542C360.67 610.833 363.519 611.505 366.407 611.505C369.296 611.505 372.144 610.833 374.728 609.542L393.345 600.234C395.929 598.942 398.778 598.27 401.666 598.27C404.555 598.27 407.404 598.942 409.987 600.234L428.604 609.542C431.188 610.833 434.037 611.505 436.925 611.505C439.814 611.505 442.663 610.833 445.247 609.542L463.863 600.234C466.447 598.942 469.296 598.27 472.185 598.27C475.073 598.27 477.922 598.942 480.506 600.234C483.346 601.653 486.502 602.322 489.674 602.177C492.845 602.033 495.927 601.08 498.627 599.409C501.326 597.737 503.553 595.403 505.097 592.629C506.64 589.854 507.448 586.731 507.444 583.556V578.408H260.63Z" fill="#C4F236"/>
<path d="M428.111 490.26H339.963C316.584 490.26 294.164 499.547 277.633 516.078C261.102 532.609 251.815 555.03 251.815 578.408H516.259C516.259 555.03 506.972 532.609 490.441 516.078C473.91 499.547 451.489 490.26 428.111 490.26Z" fill="#FCBC04"/>
<path d="M516.259 578.408H251.815C251.823 559.154 258.135 540.431 269.787 525.103C281.439 509.774 297.789 498.682 316.339 493.522C320.92 510.304 330.891 525.116 344.716 535.676C358.542 546.236 375.455 551.959 392.851 551.964H512.204C514.905 560.518 516.273 569.437 516.259 578.408V578.408Z" fill="#E59730"/>
<path d="M516.259 701.815C516.259 711.167 512.544 720.135 505.931 726.747C499.319 733.36 490.351 737.074 480.999 737.074H287.074C277.723 737.074 268.754 733.36 262.142 726.747C255.53 720.135 251.815 711.167 251.815 701.815V684.186H270.59C272.532 691.756 276.939 698.464 283.116 703.252C289.293 708.041 296.888 710.636 304.704 710.63H489.814C499.357 710.668 508.647 707.571 516.259 701.815Z" fill="#E59730"/>
<path d="M507.444 578.408V583.521C507.482 584.77 507.333 586.018 507.003 587.223H275.615C278.164 590.549 281.454 593.235 285.223 595.068L291.922 598.506C295.899 600.463 300.272 601.48 304.704 601.48C309.136 601.48 313.508 600.463 317.485 598.506L331.677 591.366C334.244 590.062 337.083 589.382 339.963 589.382C342.842 589.382 345.681 590.062 348.249 591.366L366.936 600.71C369.503 602.013 372.342 602.693 375.222 602.693C378.101 602.693 380.94 602.013 383.508 600.71L402.195 591.366C404.763 590.062 407.602 589.382 410.481 589.382C413.361 589.382 416.2 590.062 418.767 591.366L437.454 600.71C440.022 602.013 442.861 602.693 445.74 602.693C448.62 602.693 451.459 602.013 454.026 600.71L472.713 591.366C475.281 590.062 478.12 589.382 480.999 589.382C483.879 589.382 486.718 590.062 489.285 591.366C491.828 592.639 494.629 593.309 497.473 593.324C500.316 593.339 503.125 592.699 505.681 591.454C504.168 594.64 501.784 597.333 498.804 599.22C495.825 601.108 492.372 602.113 488.845 602.12C485.942 602.119 483.078 601.456 480.471 600.181C477.903 598.877 475.064 598.197 472.185 598.197C469.305 598.197 466.466 598.877 463.899 600.181L445.211 609.524C442.644 610.828 439.805 611.508 436.925 611.508C434.046 611.508 431.207 610.828 428.64 609.524L409.952 600.181C407.385 598.877 404.546 598.197 401.666 598.197C398.787 598.197 395.948 598.877 393.38 600.181L374.693 609.524C372.126 610.828 369.287 611.508 366.407 611.508C363.528 611.508 360.689 610.828 358.121 609.524L339.434 600.181C336.866 598.877 334.027 598.197 331.148 598.197C328.268 598.197 325.429 598.877 322.862 600.181L308.67 607.321C304.694 609.277 300.321 610.295 295.889 610.295C291.457 610.295 287.084 609.277 283.107 607.321L276.408 603.883C271.657 601.539 267.659 597.909 264.87 593.406C262.08 588.902 260.611 583.706 260.63 578.408H507.444Z" fill="#A1D51C"/>
<path d="M622.036 675.371C622.036 668.397 619.968 661.58 616.094 655.782C612.22 649.983 606.713 645.464 600.27 642.796C593.827 640.127 586.738 639.429 579.898 640.789C573.059 642.15 566.776 645.508 561.845 650.439C556.914 655.37 553.556 661.652 552.195 668.492C550.835 675.332 551.533 682.421 554.202 688.864C556.87 695.307 561.39 700.813 567.188 704.688C572.986 708.562 579.803 710.63 586.777 710.63C596.128 710.63 605.097 706.915 611.709 700.303C618.321 693.69 622.036 684.722 622.036 675.371ZM569.147 675.371C569.147 671.884 570.181 668.475 572.118 665.576C574.056 662.677 576.809 660.417 580.03 659.083C583.252 657.749 586.796 657.4 590.216 658.08C593.636 658.76 596.777 660.439 599.243 662.905C601.708 665.37 603.388 668.512 604.068 671.931C604.748 675.351 604.399 678.896 603.065 682.117C601.73 685.339 599.471 688.092 596.571 690.029C593.672 691.966 590.264 693 586.777 693C582.101 693 577.617 691.143 574.311 687.837C571.005 684.531 569.147 680.046 569.147 675.371Z" fill="black"/>
<path d="M693.568 664.952C691.253 664.636 688.906 665.252 687.045 666.665C685.184 668.079 683.96 670.173 683.643 672.488L676.044 728.26H542.703C540.365 728.26 538.123 729.188 536.47 730.841C534.817 732.494 533.888 734.737 533.888 737.074C533.888 739.412 534.817 741.654 536.47 743.307C538.123 744.96 540.365 745.889 542.703 745.889H683.74C685.872 745.89 687.931 745.117 689.538 743.715C691.144 742.313 692.187 740.377 692.475 738.264L701.122 674.877C701.279 673.729 701.207 672.562 700.912 671.442C700.617 670.322 700.104 669.27 699.403 668.349C698.701 667.427 697.825 666.652 696.823 666.069C695.822 665.487 694.716 665.107 693.568 664.952V664.952Z" fill="black"/>
<path d="M716.822 537.349C715.994 536.402 714.974 535.643 713.829 535.123C712.684 534.603 711.441 534.334 710.184 534.334H668.754L683.546 456.649C683.735 455.618 683.735 454.56 683.546 453.529L687.609 434.612L700.77 456.552L690.174 506.312C689.685 508.597 690.124 510.983 691.393 512.945C692.663 514.907 694.659 516.285 696.944 516.775C697.556 516.904 698.179 516.969 698.804 516.969C700.818 516.965 702.77 516.273 704.335 515.006C705.9 513.739 706.984 511.974 707.407 510.005L718.796 456.843C719.271 454.659 718.893 452.376 717.738 450.461L691.294 406.387C690.387 404.871 689.045 403.663 687.443 402.919C685.84 402.175 684.051 401.93 682.308 402.215C680.565 402.5 678.947 403.302 677.665 404.518C676.383 405.733 675.496 407.306 675.119 409.032L667.873 442.66L634.086 429.147C632.838 428.648 631.492 428.441 630.151 428.542C628.81 428.643 627.511 429.049 626.351 429.73C625.192 430.41 624.203 431.347 623.461 432.468C622.72 433.59 622.244 434.866 622.071 436.199L614.755 494.712L608.876 493.24L604.406 436.666C604.226 434.746 603.421 432.937 602.115 431.518L603.878 408.82L612.26 406.308L635.496 418.702C636.519 419.268 637.644 419.625 638.806 419.753C639.968 419.88 641.144 419.775 642.265 419.444C643.386 419.113 644.43 418.562 645.336 417.824C646.242 417.085 646.992 416.174 647.543 415.143C648.093 414.112 648.433 412.981 648.543 411.818C648.653 410.654 648.53 409.48 648.182 408.364C647.833 407.248 647.266 406.213 646.514 405.318C645.762 404.423 644.839 403.687 643.8 403.152L617.355 389.049C615.304 387.953 612.902 387.712 610.674 388.379L593.044 393.668C591.343 394.177 589.835 395.188 588.718 396.569C587.601 397.95 586.928 399.637 586.786 401.407L585.693 415.035L575.362 404.695C574.469 403.805 573.396 403.117 572.214 402.677C571.033 402.237 569.771 402.056 568.514 402.145C567.257 402.235 566.033 402.593 564.926 403.195C563.819 403.798 562.853 404.631 562.096 405.638L551.518 419.742V410.927C551.518 403.913 548.732 397.187 543.772 392.228C538.813 387.269 532.087 384.483 525.073 384.483H507.444V375.668C507.444 368.654 504.658 361.928 499.698 356.969C494.739 352.01 488.013 349.223 480.999 349.223H436.925V307.529L504.482 262.486C505.445 261.843 506.272 261.018 506.916 260.056C507.561 259.093 508.009 258.014 508.235 256.879C508.462 255.743 508.463 254.574 508.238 253.439C508.013 252.303 507.566 251.223 506.924 250.26L487.372 220.924C486.73 219.961 485.904 219.134 484.942 218.49C483.98 217.846 482.901 217.397 481.765 217.171C480.63 216.944 479.461 216.943 478.325 217.168C477.19 217.393 476.109 217.84 475.146 218.482L395.813 271.371C392.187 273.782 389.214 277.053 387.159 280.892C385.104 284.731 384.032 289.019 384.037 293.373V349.223H339.963C332.949 349.223 326.223 352.01 321.264 356.969C316.304 361.928 313.518 368.654 313.518 375.668V384.483H295.889C288.875 384.483 282.149 387.269 277.19 392.228C272.23 397.187 269.444 403.913 269.444 410.927V428.557C269.444 428.733 274.733 474.993 274.733 474.993C274.978 477.142 276.004 479.126 277.616 480.568C279.228 482.01 281.315 482.808 283.478 482.812C283.813 482.813 284.149 482.792 284.482 482.75C286.803 482.484 288.924 481.308 290.378 479.481C291.833 477.653 292.502 475.322 292.239 473.001L288.132 437.371H357.592C359.93 437.371 362.172 436.443 363.825 434.79C365.478 433.136 366.407 430.894 366.407 428.557C366.407 426.219 365.478 423.977 363.825 422.324C362.172 420.67 359.93 419.742 357.592 419.742H287.074V410.927C287.074 408.589 288.003 406.347 289.656 404.694C291.309 403.041 293.551 402.112 295.889 402.112H525.073C527.411 402.112 529.653 403.041 531.306 404.694C532.959 406.347 533.888 408.589 533.888 410.927V419.742H392.851C390.514 419.742 388.272 420.67 386.618 422.324C384.965 423.977 384.037 426.219 384.037 428.557C384.037 430.894 384.965 433.136 386.618 434.79C388.272 436.443 390.514 437.371 392.851 437.371H538.296L535.651 440.897C534.345 442.62 533.718 444.763 533.888 446.918L536.533 478.695L533.342 469.686C532.899 468.436 532.181 467.301 531.239 466.367C530.297 465.433 529.157 464.724 527.903 464.292L501.785 455.318C499.574 454.561 497.153 454.711 495.054 455.738C492.955 456.764 491.349 458.582 490.59 460.792L485.821 474.658L480.365 460.625C479.724 458.974 478.601 457.555 477.142 456.552C475.683 455.549 473.955 455.008 472.185 455.001H436.925C435.505 455 434.105 455.342 432.845 455.999C431.585 456.656 430.502 457.607 429.689 458.772C428.876 459.938 428.357 461.282 428.176 462.691C427.995 464.1 428.157 465.533 428.648 466.866L434.14 481.754C432.13 481.622 430.147 481.445 428.111 481.445H339.963C320.946 481.426 302.347 487.026 286.501 497.541C285.536 498.181 284.707 499.005 284.06 499.966C283.414 500.926 282.963 502.005 282.734 503.14C282.27 505.432 282.736 507.814 284.028 509.763C285.321 511.711 287.335 513.067 289.627 513.53C291.919 513.994 294.302 513.528 296.25 512.235C309.207 503.64 324.414 499.062 339.963 499.075H428.111C447.618 499.099 466.434 506.299 480.974 519.304C495.513 532.309 504.76 550.209 506.95 569.593H261.123C262.51 557.117 266.856 545.153 273.799 534.695C274.964 532.747 275.332 530.423 274.827 528.21C274.322 525.996 272.982 524.063 271.086 522.813C269.191 521.563 266.886 521.093 264.652 521.5C262.419 521.907 260.428 523.161 259.096 524.999C248.594 540.831 242.995 559.409 243 578.408C243 580.746 243.929 582.988 245.582 584.641C247.235 586.294 249.477 587.223 251.815 587.223H252.925C254.429 593.458 257.531 599.194 261.925 603.865C261.113 607.071 260.678 610.361 260.63 613.667C260.64 625.08 265.098 636.04 273.058 644.219C267.92 647.349 264.031 652.17 262.059 657.854C260.087 663.538 260.155 669.731 262.252 675.371H251.815C249.477 675.371 247.235 676.299 245.582 677.953C243.929 679.606 243 681.848 243 684.186V701.815C243.014 713.5 247.662 724.702 255.924 732.965C264.187 741.227 275.389 745.875 287.074 745.889H313.518C315.856 745.889 318.098 744.96 319.751 743.307C321.404 741.654 322.333 739.412 322.333 737.074C322.333 734.736 321.404 732.494 319.751 730.841C318.098 729.188 315.856 728.259 313.518 728.259H287.074C280.06 728.259 273.334 725.473 268.375 720.514C263.416 715.555 260.63 708.829 260.63 701.815V693H399.189L403.597 698.501C404.423 699.533 405.47 700.367 406.662 700.94C407.853 701.513 409.159 701.81 410.481 701.81C411.803 701.81 413.109 701.513 414.3 700.94C415.492 700.367 416.54 699.533 417.365 698.501L449.98 657.741H480.999C483.337 657.741 485.579 658.67 487.232 660.323C488.886 661.976 489.814 664.218 489.814 666.556C489.814 668.894 488.886 671.136 487.232 672.789C485.579 674.442 483.337 675.371 480.999 675.371H461.607C459.269 675.371 457.027 676.299 455.374 677.953C453.721 679.606 452.792 681.848 452.792 684.186C452.792 686.523 453.721 688.765 455.374 690.419C457.027 692.072 459.269 693 461.607 693H507.444V701.815C507.444 708.829 504.658 715.555 499.698 720.514C494.739 725.473 488.013 728.259 480.999 728.259H348.778C346.44 728.259 344.198 729.188 342.545 730.841C340.891 732.494 339.963 734.736 339.963 737.074C339.963 739.412 340.891 741.654 342.545 743.307C344.198 744.96 346.44 745.889 348.778 745.889H480.999C492.684 745.875 503.886 741.227 512.149 732.965C520.411 724.702 525.059 713.5 525.073 701.815V684.186C525.073 681.848 524.145 679.606 522.492 677.953C520.838 676.299 518.596 675.371 516.259 675.371H505.822C507.918 669.731 507.986 663.538 506.014 657.854C504.042 652.17 500.153 647.349 495.015 644.219C502.975 636.04 507.434 625.08 507.444 613.667C507.416 610.542 507.047 607.43 506.342 604.385C511.54 600.058 514.914 593.929 515.791 587.223H516.259C516.809 587.168 517.352 587.058 517.88 586.897C536.411 604.567 561.178 614.19 586.777 613.667C631.653 613.667 668.799 586.703 674.237 551.964H700.082L688.411 637.538C688.256 638.685 688.329 639.851 688.624 640.97C688.92 642.09 689.433 643.14 690.135 644.061C690.836 644.981 691.712 645.755 692.713 646.337C693.713 646.92 694.819 647.299 695.966 647.454C696.36 647.514 696.757 647.543 697.156 647.542C699.288 647.543 701.347 646.77 702.954 645.369C704.56 643.967 705.603 642.03 705.891 639.918L718.919 544.339C719.089 543.091 718.99 541.822 718.628 540.616C718.266 539.411 717.65 538.296 716.822 537.349V537.349ZM401.666 293.373C401.666 291.922 402.024 290.494 402.708 289.214C403.392 287.935 404.382 286.844 405.589 286.039L477.588 238.042L487.372 252.71L423.218 295.453C422.012 296.258 421.022 297.349 420.338 298.628C419.654 299.908 419.296 301.336 419.296 302.787V349.223H401.666V293.373ZM331.148 384.483V375.668C331.148 373.33 332.077 371.088 333.73 369.435C335.383 367.782 337.625 366.853 339.963 366.853H480.999C483.337 366.853 485.579 367.782 487.232 369.435C488.886 371.088 489.814 373.33 489.814 375.668V384.483H331.148ZM603.807 510.217L621.622 514.624L617.144 590.766C611.295 592.875 605.237 594.353 599.074 595.174L603.807 510.217ZM570.099 424.352L587.059 441.312L591.087 491.653C590.838 491.749 590.594 491.858 590.356 491.979C589.32 492.753 588.467 493.746 587.857 494.887C587.248 496.028 586.897 497.289 586.83 498.581L581.426 595.747C575.471 595.403 569.565 594.464 563.797 592.944L551.765 448.831L570.099 424.352ZM449.575 472.631H466.155L474.089 493.081C467.758 489.686 461.067 487.01 454.141 485.103L449.575 472.631ZM489.541 610.935C489.685 611.839 489.776 612.752 489.814 613.667C489.814 620.681 487.028 627.407 482.069 632.366C477.11 637.325 470.383 640.112 463.37 640.112H304.704C297.895 640.088 291.358 637.439 286.454 632.717C281.549 627.995 278.655 621.563 278.374 614.76L279.185 615.175C284.374 617.753 290.09 619.095 295.884 619.095C301.679 619.095 307.395 617.753 312.584 615.175L326.767 608.123C328.127 607.44 329.627 607.085 331.148 607.085C332.669 607.085 334.169 607.44 335.529 608.123L354.137 617.422C357.949 619.318 362.149 620.305 366.407 620.305C370.665 620.305 374.865 619.318 378.677 617.422L397.259 608.087C398.618 607.405 400.119 607.05 401.64 607.05C403.161 607.05 404.661 607.405 406.021 608.087L424.629 617.387C428.441 619.283 432.641 620.27 436.899 620.27C441.157 620.27 445.357 619.283 449.169 617.387L467.777 608.087C469.137 607.405 470.637 607.05 472.158 607.05C473.679 607.05 475.18 607.405 476.539 608.087C480.573 610.09 485.039 611.068 489.541 610.935V610.935ZM287.074 675.371C284.736 675.371 282.494 674.442 280.841 672.789C279.188 671.136 278.259 668.894 278.259 666.556C278.259 664.218 279.188 661.976 280.841 660.323C282.494 658.67 284.736 657.741 287.074 657.741H370.982L385.086 675.371H287.074ZM410.481 678.897L393.565 657.741H427.397L410.481 678.897ZM493.984 591.895C493.658 592.07 493.323 592.226 492.979 592.362C492.911 592.357 492.843 592.357 492.776 592.362C492.661 592.406 492.6 592.503 492.485 592.547C491.209 593.094 489.829 593.355 488.442 593.31C487.054 593.266 485.693 592.918 484.455 592.291C480.642 590.395 476.442 589.409 472.185 589.409C467.927 589.409 463.727 590.395 459.914 592.291L441.333 601.617C439.973 602.3 438.473 602.655 436.952 602.655C435.431 602.655 433.931 602.3 432.571 601.617L413.963 592.318C410.15 590.422 405.951 589.435 401.693 589.435C397.435 589.435 393.235 590.422 389.423 592.318L370.814 601.617C369.455 602.3 367.955 602.655 366.434 602.655C364.912 602.655 363.412 602.3 362.053 601.617L343.445 592.318C339.632 590.422 335.432 589.435 331.174 589.435C326.917 589.435 322.717 590.422 318.904 592.318L304.73 599.37C301.991 600.731 298.974 601.439 295.915 601.439C292.857 601.439 289.839 600.731 287.1 599.37L280.339 596.038C276.576 594.114 273.538 591.021 271.683 587.223H497.853C497.1 589.154 495.742 590.789 493.984 591.886V591.895ZM524.403 567.398C522.81 553.495 518.205 540.105 510.908 528.164L499.096 490.357L504.429 474.817L518.189 479.55L542.324 547.706L545.488 585.663C537.151 581.27 529.936 575.018 524.403 567.39V567.398ZM635.355 581.396L639.666 508.41C639.786 506.358 639.187 504.329 637.97 502.672C636.753 501.016 634.996 499.837 633.002 499.339L632.014 499.075L638.185 449.783L664.902 460.475L643.139 574.803C640.728 577.206 638.125 579.409 635.355 581.387V581.396Z" fill="black"/>
<path d="M401.666 543.149C406.535 543.149 410.481 539.202 410.481 534.334C410.481 529.466 406.535 525.519 401.666 525.519C396.798 525.519 392.851 529.466 392.851 534.334C392.851 539.202 396.798 543.149 401.666 543.149Z" fill="black"/>
<path d="M366.407 534.334C371.275 534.334 375.222 530.388 375.222 525.519C375.222 520.651 371.275 516.705 366.407 516.705C361.539 516.705 357.592 520.651 357.592 525.519C357.592 530.388 361.539 534.334 366.407 534.334Z" fill="black"/>
<path d="M339.963 551.964C344.831 551.964 348.778 548.017 348.778 543.149C348.778 538.281 344.831 534.334 339.963 534.334C335.094 534.334 331.148 538.281 331.148 543.149C331.148 548.017 335.094 551.964 339.963 551.964Z" fill="black"/>
<path d="M472.185 551.964C477.053 551.964 480.999 548.017 480.999 543.149C480.999 538.281 477.053 534.334 472.185 534.334C467.316 534.334 463.37 538.281 463.37 543.149C463.37 548.017 467.316 551.964 472.185 551.964Z" fill="black"/>
<path d="M304.704 543.149C309.572 543.149 313.518 539.202 313.518 534.334C313.518 529.466 309.572 525.519 304.704 525.519C299.835 525.519 295.889 529.466 295.889 534.334C295.889 539.202 299.835 543.149 304.704 543.149Z" fill="black"/>
<path d="M436.925 534.334C441.794 534.334 445.74 530.388 445.74 525.519C445.74 520.651 441.794 516.705 436.925 516.705C432.057 516.705 428.111 520.651 428.111 525.519C428.111 530.388 432.057 534.334 436.925 534.334Z" fill="black"/>
</svg>
