<svg width="962" height="962" viewBox="0 0 962 962" fill="none" xmlns="http://www.w3.org/2000/svg">
<rect width="962" height="962" rx="481" fill="#BDE0FE"/>
<path d="M248.379 466.57C237.332 500.609 230.816 535.953 229 571.695C229 658.473 237.68 667.152 272.391 667.152C355.699 667.152 333.273 581.242 372.352 559.371L437.07 554.34H524.25L588.973 559.371C628.047 581.242 605.625 667.152 688.934 667.152C723.645 667.152 732.32 658.473 732.32 571.695C730.504 535.953 723.988 500.609 712.945 466.57L680.496 390.324C667.359 368.906 652.484 354.746 636.863 354.746C602.152 354.746 610.832 372.102 541.406 372.102H419.914C350.492 372.102 359.168 354.746 324.457 354.746C308.836 354.746 293.965 368.906 280.824 390.324L248.379 466.57Z" fill="#586270"/>
<path d="M445.949 528.305C445.949 552.27 426.523 571.695 402.559 571.695C378.598 571.695 359.168 552.27 359.168 528.305C359.168 504.34 378.598 484.914 402.559 484.914C426.523 484.914 445.949 504.34 445.949 528.305Z" fill="#3A3E48"/>
<path d="M602.152 528.305C602.152 552.27 582.727 571.695 558.762 571.695C534.801 571.695 515.371 552.27 515.371 528.305C515.371 504.34 534.801 484.914 558.762 484.914C582.727 484.914 602.152 504.34 602.152 528.305Z" fill="#3A3E48"/>
<path d="M437.27 528.305C437.27 547.477 421.73 563.016 402.559 563.016C383.387 563.016 367.848 547.477 367.848 528.305C367.848 509.133 383.387 493.594 402.559 493.594C421.73 493.594 437.27 509.133 437.27 528.305Z" fill="#586270"/>
<path d="M593.473 528.305C593.473 547.477 577.934 563.016 558.762 563.016C539.594 563.016 524.051 547.477 524.051 528.305C524.051 509.133 539.594 493.594 558.762 493.594C577.934 493.594 593.473 509.133 593.473 528.305Z" fill="#586270"/>
<path d="M385.203 450.203C385.305 486.93 356.781 517.383 320.125 519.684C283.469 521.984 251.367 495.336 246.875 458.883C246.184 453.117 246.184 447.289 246.875 441.523C251.367 405.07 283.469 378.422 320.125 380.723C356.781 383.023 385.305 413.477 385.203 450.203Z" fill="#3A3E48"/>
<path d="M714.965 450.203C714.965 488.543 683.883 519.625 645.543 519.625C607.199 519.625 576.117 488.543 576.117 450.203C576.117 411.863 607.199 380.781 645.543 380.781C683.883 380.781 714.965 411.863 714.965 450.203V450.203Z" fill="#3A3E48"/>
<path d="M619.508 450.203C619.508 462.184 609.797 471.898 597.812 471.898C585.832 471.898 576.117 462.184 576.117 450.203C576.117 438.223 585.832 428.508 597.812 428.508C609.797 428.508 619.508 438.223 619.508 450.203Z" fill="#FF6C77"/>
<path d="M667.238 402.473C667.238 414.457 657.523 424.168 645.543 424.168C633.562 424.168 623.848 414.457 623.848 402.473C623.848 390.492 633.562 380.781 645.543 380.781C657.523 380.781 667.238 390.492 667.238 402.473Z" fill="#5DC382"/>
<path d="M714.965 450.203C714.965 462.184 705.254 471.898 693.27 471.898C681.289 471.898 671.578 462.184 671.578 450.203C671.578 438.223 681.289 428.508 693.27 428.508C705.254 428.508 714.965 438.223 714.965 450.203Z" fill="#D8625E"/>
<path d="M667.238 497.934C667.238 509.914 657.523 519.625 645.543 519.625C633.562 519.625 623.848 509.914 623.848 497.934C623.848 485.949 633.562 476.238 645.543 476.238C657.523 476.238 667.238 485.949 667.238 497.934Z" fill="#5496CE"/>
<path d="M315.781 432.848C310.988 432.848 307.102 428.961 307.102 424.168V380.781C307.102 375.988 310.988 372.102 315.781 372.102C320.574 372.102 324.457 375.988 324.457 380.781V424.168C324.457 428.961 320.574 432.848 315.781 432.848Z" fill="#586270"/>
<path d="M289.746 450.203C289.746 454.996 285.859 458.883 281.066 458.883H246.875C246.184 453.117 246.184 447.289 246.875 441.523H281.066C285.859 441.523 289.746 445.41 289.746 450.203Z" fill="#586270"/>
<path d="M385.203 458.883H350.492C345.699 458.883 341.812 454.996 341.812 450.203C341.812 445.41 345.699 441.523 350.492 441.523H385.203C389.996 441.523 393.883 445.41 393.883 450.203C393.883 454.996 389.996 458.883 385.203 458.883Z" fill="#586270"/>
<path d="M315.781 528.305C310.988 528.305 307.102 524.418 307.102 519.625V484.914C307.102 480.121 310.988 476.238 315.781 476.238C320.574 476.238 324.457 480.121 324.457 484.914V519.625C324.457 524.418 320.574 528.305 315.781 528.305V528.305Z" fill="#586270"/>
<path d="M419.914 372.102H541.406V432.848C541.406 442.434 533.637 450.203 524.051 450.203H437.27C427.688 450.203 419.914 442.434 419.914 432.848V372.102Z" fill="#A5B4B4"/>
<path d="M315.781 328.711C310.988 328.711 307.102 324.828 307.102 320.035V302.68C307.102 297.887 310.988 294 315.781 294C320.574 294 324.457 297.887 324.457 302.68V320.035C324.457 324.828 320.574 328.711 315.781 328.711Z" fill="#ED634C"/>
<path d="M281.066 346.066C279.723 346.066 278.398 345.754 277.199 345.156L259.84 336.477C255.551 334.336 253.813 329.121 255.953 324.832C258.098 320.543 263.309 318.801 267.598 320.945L284.957 329.621C288.563 331.422 290.457 335.465 289.531 339.387C288.602 343.309 285.098 346.074 281.066 346.066Z" fill="#ED634C"/>
<path d="M645.543 328.711C640.75 328.711 636.863 324.828 636.863 320.035V302.68C636.863 297.887 640.75 294 645.543 294C650.336 294 654.219 297.887 654.219 302.68V320.035C654.219 324.828 650.336 328.711 645.543 328.711V328.711Z" fill="#ED634C"/>
<path d="M680.254 346.066C676.223 346.074 672.719 343.309 671.793 339.387C670.863 335.465 672.758 331.422 676.367 329.621L693.723 320.945C698.012 318.801 703.227 320.543 705.367 324.832C707.512 329.121 705.77 334.336 701.48 336.477L684.125 345.156C682.922 345.754 681.598 346.066 680.254 346.066Z" fill="#ED634C"/>
</svg>
