<svg width="686" height="176" viewBox="0 0 686 176" fill="none" xmlns="http://www.w3.org/2000/svg">
<path fill-rule="evenodd" clip-rule="evenodd" d="M5 8H681V146H507V151H681H686V146V8V3H681H5H0V8V146V151H5H180V146H5V8Z" fill="black"/>
<path d="M207.72 165C207.353 165 207.17 164.817 207.17 164.45V127.05C207.17 126.683 207.353 126.5 207.72 126.5H220.7C224.33 126.5 227.208 127.453 229.335 129.36C231.498 131.267 232.58 133.852 232.58 137.115V154.385C232.58 157.648 231.498 160.233 229.335 162.14C227.208 164.047 224.33 165 220.7 165H207.72ZM211.075 161.37C211.075 161.517 211.148 161.59 211.295 161.59H220.865C223.248 161.59 225.137 160.893 226.53 159.5C227.96 158.107 228.675 156.237 228.675 153.89V137.665C228.675 135.282 227.978 133.393 226.585 132C225.192 130.607 223.285 129.91 220.865 129.91H211.295C211.148 129.91 211.075 129.983 211.075 130.13V161.37ZM266.084 129.36C266.084 129.727 265.901 129.91 265.534 129.91H245.294C245.147 129.91 245.074 129.983 245.074 130.13V143.715C245.074 143.862 245.147 143.935 245.294 143.935H259.484C259.851 143.935 260.034 144.118 260.034 144.485V146.795C260.034 147.162 259.851 147.345 259.484 147.345H245.294C245.147 147.345 245.074 147.418 245.074 147.565V161.37C245.074 161.517 245.147 161.59 245.294 161.59H265.534C265.901 161.59 266.084 161.773 266.084 162.14V164.45C266.084 164.817 265.901 165 265.534 165H241.719C241.352 165 241.169 164.817 241.169 164.45V127.05C241.169 126.683 241.352 126.5 241.719 126.5H265.534C265.901 126.5 266.084 126.683 266.084 127.05V129.36ZM285.58 165.44C281.436 165.44 278.155 164.505 275.735 162.635C273.351 160.765 272.16 158.272 272.16 155.155V153.45C272.16 153.083 272.343 152.9 272.71 152.9H275.405C275.771 152.9 275.955 153.083 275.955 153.45V154.935C275.955 157.062 276.835 158.785 278.595 160.105C280.355 161.388 282.793 162.03 285.91 162.03C288.733 162.03 290.878 161.443 292.345 160.27C293.811 159.06 294.545 157.465 294.545 155.485C294.545 154.202 294.196 153.102 293.5 152.185C292.84 151.268 291.795 150.407 290.365 149.6C288.971 148.793 286.991 147.858 284.425 146.795C281.675 145.695 279.53 144.742 277.99 143.935C276.486 143.092 275.258 142.028 274.305 140.745C273.388 139.425 272.93 137.775 272.93 135.795C272.93 132.715 273.993 130.332 276.12 128.645C278.283 126.922 281.235 126.06 284.975 126.06C289.045 126.06 292.253 127.013 294.6 128.92C296.946 130.827 298.12 133.357 298.12 136.51V137.72C298.12 138.087 297.936 138.27 297.57 138.27H294.82C294.453 138.27 294.27 138.087 294.27 137.72V136.73C294.27 134.603 293.426 132.862 291.74 131.505C290.09 130.148 287.78 129.47 284.81 129.47C282.206 129.47 280.208 130.002 278.815 131.065C277.421 132.128 276.725 133.668 276.725 135.685C276.725 137.005 277.055 138.105 277.715 138.985C278.411 139.828 279.383 140.58 280.63 141.24C281.913 141.863 283.875 142.688 286.515 143.715C289.191 144.815 291.336 145.842 292.95 146.795C294.6 147.748 295.92 148.922 296.91 150.315C297.936 151.672 298.45 153.34 298.45 155.32C298.45 158.4 297.313 160.857 295.04 162.69C292.766 164.523 289.613 165.44 285.58 165.44ZM307.139 165C306.772 165 306.589 164.817 306.589 164.45V127.05C306.589 126.683 306.772 126.5 307.139 126.5H309.944C310.311 126.5 310.494 126.683 310.494 127.05V164.45C310.494 164.817 310.311 165 309.944 165H307.139ZM332.537 165.44C329.971 165.44 327.716 164.945 325.772 163.955C323.829 162.928 322.307 161.498 321.207 159.665C320.144 157.832 319.612 155.723 319.612 153.34V138.16C319.612 135.777 320.144 133.668 321.207 131.835C322.307 130.002 323.829 128.59 325.772 127.6C327.716 126.573 329.971 126.06 332.537 126.06C335.067 126.06 337.304 126.555 339.247 127.545C341.227 128.535 342.749 129.928 343.812 131.725C344.876 133.485 345.407 135.483 345.407 137.72V138.435C345.407 138.802 345.224 138.985 344.857 138.985H342.052C341.686 138.985 341.502 138.802 341.502 138.435V137.775C341.502 135.318 340.677 133.32 339.027 131.78C337.414 130.24 335.251 129.47 332.537 129.47C329.824 129.47 327.642 130.258 325.992 131.835C324.342 133.412 323.517 135.483 323.517 138.05V153.45C323.517 156.017 324.361 158.088 326.047 159.665C327.734 161.242 329.952 162.03 332.702 162.03C335.379 162.03 337.506 161.297 339.082 159.83C340.696 158.363 341.502 156.402 341.502 153.945V148.94C341.502 148.793 341.429 148.72 341.282 148.72H333.197C332.831 148.72 332.647 148.537 332.647 148.17V145.86C332.647 145.493 332.831 145.31 333.197 145.31H344.857C345.224 145.31 345.407 145.493 345.407 145.86V152.955C345.407 156.878 344.234 159.94 341.887 162.14C339.577 164.34 336.461 165.44 332.537 165.44ZM377.488 127.05C377.488 126.683 377.671 126.5 378.038 126.5H380.843C381.209 126.5 381.393 126.683 381.393 127.05V164.45C381.393 164.817 381.209 165 380.843 165H378.093C377.836 165 377.616 164.872 377.433 164.615L358.678 134.09C358.641 133.98 358.586 133.943 358.513 133.98C358.439 133.98 358.403 134.035 358.403 134.145L358.458 164.45C358.458 164.817 358.274 165 357.908 165H355.103C354.736 165 354.553 164.817 354.553 164.45V127.05C354.553 126.683 354.736 126.5 355.103 126.5H357.853C358.109 126.5 358.329 126.628 358.513 126.885L377.268 157.41C377.304 157.52 377.359 157.575 377.433 157.575C377.506 157.538 377.543 157.465 377.543 157.355L377.488 127.05ZM415.884 129.36C415.884 129.727 415.7 129.91 415.334 129.91H395.094C394.947 129.91 394.874 129.983 394.874 130.13V143.715C394.874 143.862 394.947 143.935 395.094 143.935H409.284C409.65 143.935 409.834 144.118 409.834 144.485V146.795C409.834 147.162 409.65 147.345 409.284 147.345H395.094C394.947 147.345 394.874 147.418 394.874 147.565V161.37C394.874 161.517 394.947 161.59 395.094 161.59H415.334C415.7 161.59 415.884 161.773 415.884 162.14V164.45C415.884 164.817 415.7 165 415.334 165H391.519C391.152 165 390.969 164.817 390.969 164.45V127.05C390.969 126.683 391.152 126.5 391.519 126.5H415.334C415.7 126.5 415.884 126.683 415.884 127.05V129.36ZM446.71 165C446.38 165 446.16 164.872 446.05 164.615L437.965 147.565C437.928 147.455 437.855 147.4 437.745 147.4H428.395C428.248 147.4 428.175 147.473 428.175 147.62V164.45C428.175 164.817 427.991 165 427.625 165H424.82C424.453 165 424.27 164.817 424.27 164.45V127.05C424.27 126.683 424.453 126.5 424.82 126.5H439.065C442.218 126.5 444.766 127.49 446.71 129.47C448.653 131.413 449.625 133.962 449.625 137.115C449.625 139.682 448.928 141.863 447.535 143.66C446.141 145.457 444.253 146.612 441.87 147.125C441.723 147.198 441.686 147.29 441.76 147.4L450.01 164.34C450.046 164.413 450.065 164.505 450.065 164.615C450.065 164.872 449.918 165 449.625 165H446.71ZM428.395 129.91C428.248 129.91 428.175 129.983 428.175 130.13V144.045C428.175 144.192 428.248 144.265 428.395 144.265H438.625C440.751 144.265 442.475 143.605 443.795 142.285C445.115 140.965 445.775 139.242 445.775 137.115C445.775 134.988 445.115 133.265 443.795 131.945C442.475 130.588 440.751 129.91 438.625 129.91H428.395ZM469.056 165.44C464.913 165.44 461.631 164.505 459.211 162.635C456.828 160.765 455.636 158.272 455.636 155.155V153.45C455.636 153.083 455.82 152.9 456.186 152.9H458.881C459.248 152.9 459.431 153.083 459.431 153.45V154.935C459.431 157.062 460.311 158.785 462.071 160.105C463.831 161.388 466.27 162.03 469.386 162.03C472.21 162.03 474.355 161.443 475.821 160.27C477.288 159.06 478.021 157.465 478.021 155.485C478.021 154.202 477.673 153.102 476.976 152.185C476.316 151.268 475.271 150.407 473.841 149.6C472.448 148.793 470.468 147.858 467.901 146.795C465.151 145.695 463.006 144.742 461.466 143.935C459.963 143.092 458.735 142.028 457.781 140.745C456.865 139.425 456.406 137.775 456.406 135.795C456.406 132.715 457.47 130.332 459.596 128.645C461.76 126.922 464.711 126.06 468.451 126.06C472.521 126.06 475.73 127.013 478.076 128.92C480.423 130.827 481.596 133.357 481.596 136.51V137.72C481.596 138.087 481.413 138.27 481.046 138.27H478.296C477.93 138.27 477.746 138.087 477.746 137.72V136.73C477.746 134.603 476.903 132.862 475.216 131.505C473.566 130.148 471.256 129.47 468.286 129.47C465.683 129.47 463.685 130.002 462.291 131.065C460.898 132.128 460.201 133.668 460.201 135.685C460.201 137.005 460.531 138.105 461.191 138.985C461.888 139.828 462.86 140.58 464.106 141.24C465.39 141.863 467.351 142.688 469.991 143.715C472.668 144.815 474.813 145.842 476.426 146.795C478.076 147.748 479.396 148.922 480.386 150.315C481.413 151.672 481.926 153.34 481.926 155.32C481.926 158.4 480.79 160.857 478.516 162.69C476.243 164.523 473.09 165.44 469.056 165.44Z" fill="black"/>
<path d="M80.4 70.6C87.7333 71.6 92.9667 73.7333 96.1 77C99.2333 80.2 100.8 84.0667 100.8 88.6C100.8 92.4 99.8333 95.7667 97.9 98.7C95.9667 101.633 93.2 103.933 89.6 105.6C86 107.2 81.7333 108 76.8 108C75 108 73.4667 107.967 72.2 107.9C67.9333 107.767 63.7333 107.7 59.6 107.7C54.1333 107.7 50 107.8 47.2 108V106C49.6 105.867 51.3333 105.6 52.4 105.2C53.5333 104.8 54.3 104.033 54.7 102.9C55.1 101.767 55.3 99.9333 55.3 97.4V47.8C55.3 45.2667 55.1 43.4333 54.7 42.3C54.3 41.1667 53.5333 40.4 52.4 40C51.3333 39.6 49.6 39.3333 47.2 39.2V37.2C50 37.4 54.0667 37.5 59.4 37.5L70.2 37.4C71.4667 37.3333 72.9 37.3 74.5 37.3C81.3 37.3 86.5 38.7333 90.1 41.6C93.7667 44.4667 95.6 48.2667 95.6 53C95.6 56.8667 94.3667 60.3333 91.9 63.4C89.5 66.4667 85.6667 68.8 80.4 70.4V70.6ZM72 39.2C69.9333 39.2 68.3667 39.4333 67.3 39.9C66.3 40.3667 65.6 41.2 65.2 42.4C64.8 43.6 64.6 45.4 64.6 47.8V70.4H71.3C76.7667 70.4 80.5667 68.9333 82.7 66C84.9 63 86 59.0333 86 54.1C86 49.1 84.9 45.3667 82.7 42.9C80.5 40.4333 76.9333 39.2 72 39.2ZM72.1 105.7C84.5667 105.7 90.8 99.8667 90.8 88.2C90.8 82.9333 89.3667 78.9333 86.5 76.2C83.7 73.4667 79.2 72.1 73 72.1H64.6V97.4C64.6 99.8 64.8 101.567 65.2 102.7C65.6 103.833 66.3 104.633 67.3 105.1C68.3667 105.5 69.9667 105.7 72.1 105.7ZM142.405 35.8C148.738 35.8 154.271 37.2333 159.005 40.1C163.805 42.9667 167.505 47.1333 170.105 52.6C172.771 58 174.105 64.4667 174.105 72C174.105 79.3333 172.738 85.8333 170.005 91.5C167.338 97.1667 163.571 101.567 158.705 104.7C153.905 107.833 148.438 109.4 142.305 109.4C135.971 109.4 130.405 107.967 125.605 105.1C120.871 102.233 117.171 98.1 114.505 92.7C111.905 87.2333 110.605 80.7333 110.605 73.2C110.605 65.8667 111.938 59.3667 114.605 53.7C117.338 48.0333 121.105 43.6333 125.905 40.5C130.771 37.3667 136.271 35.8 142.405 35.8ZM142.005 37.6C137.738 37.6 133.971 39.1 130.705 42.1C127.505 45.0333 125.005 49.1667 123.205 54.5C121.471 59.8333 120.605 65.9333 120.605 72.8C120.605 79.7333 121.571 85.8333 123.505 91.1C125.505 96.3667 128.171 100.433 131.505 103.3C134.838 106.167 138.571 107.6 142.705 107.6C146.971 107.6 150.705 106.133 153.905 103.2C157.171 100.2 159.671 96.0333 161.405 90.7C163.205 85.3667 164.105 79.2667 164.105 72.4C164.105 65.4667 163.105 59.3667 161.105 54.1C159.171 48.8333 156.538 44.7667 153.205 41.9C149.871 39.0333 146.138 37.6 142.005 37.6ZM244.645 103C243.111 105.267 241.578 106.9 240.045 107.9C238.511 108.9 236.478 109.4 233.945 109.4C231.211 109.4 228.945 108.6 227.145 107C225.411 105.4 224.111 102.6 223.245 98.6L221.045 88.6C220.245 85.1333 219.478 82.4667 218.745 80.6C218.078 78.7333 217.045 77.2333 215.645 76.1C214.245 74.9667 212.278 74.4 209.745 74.4H200.245V97.4C200.245 99.9333 200.445 101.767 200.845 102.9C201.245 104.033 201.978 104.8 203.045 105.2C204.178 105.6 205.945 105.867 208.345 106V108C205.278 107.8 201.045 107.7 195.645 107.7C189.911 107.7 185.645 107.8 182.845 108V106C185.245 105.867 186.978 105.6 188.045 105.2C189.178 104.8 189.945 104.033 190.345 102.9C190.745 101.767 190.945 99.9333 190.945 97.4V47.8C190.945 45.2667 190.745 43.4333 190.345 42.3C189.945 41.1667 189.178 40.4 188.045 40C186.978 39.6 185.245 39.3333 182.845 39.2V37.2C185.645 37.4 189.711 37.5 195.045 37.5L205.845 37.4C207.111 37.3333 208.545 37.3 210.145 37.3C217.878 37.3 223.811 38.9333 227.945 42.2C232.145 45.4 234.245 49.5667 234.245 54.7C234.245 57.3 233.611 59.9333 232.345 62.6C231.145 65.2 229.078 67.5667 226.145 69.7C223.278 71.7667 219.511 73.1667 214.845 73.9L216.045 74.1C220.445 74.8333 223.645 76.1667 225.645 78.1C227.645 80.0333 229.111 83.1 230.045 87.3L232.545 97.5C233.211 100.567 233.911 102.7 234.645 103.9C235.378 105.1 236.378 105.7 237.645 105.7C238.778 105.7 239.711 105.4 240.445 104.8C241.245 104.2 242.145 103.233 243.145 101.9L244.645 103ZM207.645 39.2C205.578 39.2 204.011 39.4333 202.945 39.9C201.945 40.3667 201.245 41.2 200.845 42.4C200.445 43.6 200.245 45.4 200.245 47.8V72.4H206.945C213.545 72.4 218.078 70.9333 220.545 68C223.011 65.0667 224.245 61 224.245 55.8C224.245 50.3333 222.945 46.2 220.345 43.4C217.745 40.6 213.511 39.2 207.645 39.2ZM310.488 39.2C308.155 39.3333 306.422 39.7 305.288 40.3C304.155 40.8333 303.388 41.7667 302.988 43.1C302.588 44.3667 302.388 46.2667 302.388 48.8V108.5H300.088L258.088 43.6V96.4C258.088 99 258.288 100.933 258.688 102.2C259.155 103.467 260.022 104.4 261.288 105C262.555 105.533 264.522 105.867 267.188 106V108C264.788 107.8 261.388 107.7 256.988 107.7C252.988 107.7 249.888 107.8 247.688 108V106C250.022 105.867 251.755 105.533 252.888 105C254.022 104.4 254.788 103.467 255.188 102.2C255.588 100.867 255.788 98.9333 255.788 96.4V47.8C255.788 45.2667 255.588 43.4333 255.188 42.3C254.788 41.1667 254.022 40.4 252.888 40C251.822 39.6 250.088 39.3333 247.688 39.2V37.2C249.888 37.4 252.988 37.5 256.988 37.5C259.988 37.5 262.588 37.4 264.788 37.2L300.088 91.6V48.8C300.088 46.2 299.855 44.2667 299.388 43C298.988 41.7333 298.155 40.8333 296.888 40.3C295.622 39.7 293.655 39.3333 290.988 39.2V37.2C293.388 37.4 296.788 37.5 301.188 37.5C305.188 37.5 308.288 37.4 310.488 37.2V39.2Z" fill="#E86A92"/>
<path d="M339.694 36.1C342.627 36.1 344.927 36.4333 346.594 37.1C348.327 37.7 350.094 38.6 351.894 39.8C353.36 40.7333 354.494 41.2 355.294 41.2C355.894 41.2 356.36 40.8667 356.694 40.2C357.027 39.4667 357.294 38.3333 357.494 36.8H359.794C359.46 40.6667 359.294 47.4667 359.294 57.2H356.994C356.594 51.8 355.027 47.2667 352.294 43.6C349.627 39.8667 345.727 38 340.594 38C336.994 38 334.06 39.1 331.794 41.3C329.527 43.4333 328.394 46.2 328.394 49.6C328.394 52.1333 328.96 54.3333 330.094 56.2C331.294 58.0667 332.794 59.6667 334.594 61C336.394 62.3333 338.96 64.0333 342.294 66.1L345.194 67.9C349.394 70.5 352.694 72.8 355.094 74.8C357.56 76.7333 359.527 78.9667 360.994 81.5C362.46 84.0333 363.194 87 363.194 90.4C363.194 96.4667 361.194 101.167 357.194 104.5C353.194 107.767 348.127 109.4 341.994 109.4C338.794 109.4 336.16 109.067 334.094 108.4C332.094 107.733 330.16 106.833 328.294 105.7C326.827 104.767 325.694 104.3 324.894 104.3C324.294 104.3 323.827 104.667 323.494 105.4C323.16 106.067 322.894 107.167 322.694 108.7H320.394C320.66 105.033 320.794 97.0333 320.794 84.7H323.094C323.56 91.4333 325.227 96.9 328.094 101.1C330.96 105.3 335.36 107.4 341.294 107.4C344.894 107.4 347.96 106.3 350.494 104.1C353.027 101.833 354.294 98.5 354.294 94.1C354.294 90.3667 353.027 87.2 350.494 84.6C348.027 82 344.094 79.0667 338.694 75.8C334.76 73.4 331.56 71.2667 329.094 69.4C326.694 67.5333 324.727 65.3 323.194 62.7C321.66 60.0333 320.894 56.9333 320.894 53.4C320.894 47.8 322.694 43.5333 326.294 40.6C329.894 37.6 334.36 36.1 339.694 36.1ZM450.998 39.2C448.598 39.3333 446.831 39.6 445.698 40C444.631 40.4 443.898 41.1667 443.498 42.3C443.098 43.4333 442.898 45.2667 442.898 47.8V97.4C442.898 99.9333 443.098 101.767 443.498 102.9C443.898 104.033 444.631 104.8 445.698 105.2C446.831 105.6 448.598 105.867 450.998 106V108C447.931 107.8 443.698 107.7 438.298 107.7C432.564 107.7 428.298 107.8 425.498 108V106C427.898 105.867 429.631 105.6 430.698 105.2C431.831 104.8 432.598 104.033 432.998 102.9C433.398 101.767 433.598 99.9333 433.598 97.4V43.8L409.498 108.5H407.898L382.698 43.6V96.4C382.698 99 382.898 100.933 383.298 102.2C383.764 103.467 384.631 104.4 385.898 105C387.164 105.533 389.131 105.867 391.798 106V108C389.398 107.8 385.998 107.7 381.598 107.7C377.598 107.7 374.498 107.8 372.298 108V106C374.631 105.867 376.364 105.533 377.498 105C378.631 104.4 379.398 103.467 379.798 102.2C380.198 100.867 380.398 98.9333 380.398 96.4V47.8C380.398 45.2667 380.198 43.4333 379.798 42.3C379.398 41.1667 378.631 40.4 377.498 40C376.431 39.6 374.698 39.3333 372.298 39.2V37.2C374.498 37.4 377.598 37.5 381.598 37.5C385.064 37.5 387.898 37.4 390.098 37.2L412.098 95.1L433.598 37.5H438.298C443.698 37.5 447.931 37.4 450.998 37.2V39.2ZM511.907 99.6C513.507 103.733 515.807 105.867 518.807 106V108C516.14 107.8 512.574 107.7 508.107 107.7C502.374 107.7 498.107 107.8 495.307 108V106C497.84 105.867 499.64 105.567 500.707 105.1C501.84 104.567 502.407 103.633 502.407 102.3C502.407 101.167 502.007 99.6 501.207 97.6L495.107 81.2H470.907L466.807 91.8C465.474 95.4 464.807 98.1333 464.807 100C464.807 102.067 465.507 103.567 466.907 104.5C468.374 105.433 470.574 105.933 473.507 106V108C469.707 107.8 465.874 107.7 462.007 107.7C459.007 107.7 456.507 107.8 454.507 108V106C457.84 105.2 460.474 102.3 462.407 97.3L485.907 36.7H487.507L511.907 99.6ZM494.307 79.2L483.107 49.3L471.707 79.2H494.307ZM582.242 103C580.709 105.267 579.176 106.9 577.642 107.9C576.109 108.9 574.076 109.4 571.542 109.4C568.809 109.4 566.542 108.6 564.742 107C563.009 105.4 561.709 102.6 560.842 98.6L558.642 88.6C557.842 85.1333 557.076 82.4667 556.342 80.6C555.676 78.7333 554.642 77.2333 553.242 76.1C551.842 74.9667 549.876 74.4 547.342 74.4H537.842V97.4C537.842 99.9333 538.042 101.767 538.442 102.9C538.842 104.033 539.576 104.8 540.642 105.2C541.776 105.6 543.542 105.867 545.942 106V108C542.876 107.8 538.642 107.7 533.242 107.7C527.509 107.7 523.242 107.8 520.442 108V106C522.842 105.867 524.576 105.6 525.642 105.2C526.776 104.8 527.542 104.033 527.942 102.9C528.342 101.767 528.542 99.9333 528.542 97.4V47.8C528.542 45.2667 528.342 43.4333 527.942 42.3C527.542 41.1667 526.776 40.4 525.642 40C524.576 39.6 522.842 39.3333 520.442 39.2V37.2C523.242 37.4 527.309 37.5 532.642 37.5L543.442 37.4C544.709 37.3333 546.142 37.3 547.742 37.3C555.476 37.3 561.409 38.9333 565.542 42.2C569.742 45.4 571.842 49.5667 571.842 54.7C571.842 57.3 571.209 59.9333 569.942 62.6C568.742 65.2 566.676 67.5667 563.742 69.7C560.876 71.7667 557.109 73.1667 552.442 73.9L553.642 74.1C558.042 74.8333 561.242 76.1667 563.242 78.1C565.242 80.0333 566.709 83.1 567.642 87.3L570.142 97.5C570.809 100.567 571.509 102.7 572.242 103.9C572.976 105.1 573.976 105.7 575.242 105.7C576.376 105.7 577.309 105.4 578.042 104.8C578.842 104.2 579.742 103.233 580.742 101.9L582.242 103ZM545.242 39.2C543.176 39.2 541.609 39.4333 540.542 39.9C539.542 40.3667 538.842 41.2 538.442 42.4C538.042 43.6 537.842 45.4 537.842 47.8V72.4H544.542C551.142 72.4 555.676 70.9333 558.142 68C560.609 65.0667 561.842 61 561.842 55.8C561.842 50.3333 560.542 46.2 557.942 43.4C555.342 40.6 551.109 39.2 545.242 39.2ZM639.602 37.2C639.136 41.9333 638.902 46.2 638.902 50C638.902 53.3333 639.002 56.0667 639.202 58.2H636.902C636.369 53.0667 635.702 49.2667 634.902 46.8C634.102 44.2667 632.702 42.4333 630.702 41.3C628.702 40.1 625.636 39.5 621.502 39.5H616.102V96.4C616.102 99.2 616.369 101.233 616.902 102.5C617.436 103.767 618.369 104.633 619.702 105.1C621.036 105.567 623.202 105.867 626.202 106V108C622.736 107.8 617.836 107.7 611.502 107.7C604.836 107.7 599.902 107.8 596.702 108V106C599.702 105.867 601.869 105.567 603.202 105.1C604.536 104.633 605.469 103.767 606.002 102.5C606.536 101.233 606.802 99.2 606.802 96.4V39.5H601.402C597.269 39.5 594.202 40.1 592.202 41.3C590.202 42.4333 588.802 44.2667 588.002 46.8C587.202 49.2667 586.536 53.0667 586.002 58.2H583.702C583.902 56.0667 584.002 53.3333 584.002 50C584.002 46.2 583.769 41.9333 583.302 37.2C588.836 37.4 598.236 37.5 611.502 37.5C624.702 37.5 634.069 37.4 639.602 37.2Z" fill="black"/>
</svg>
