<svg width="282" height="180" viewBox="0 0 282 180" fill="none" xmlns="http://www.w3.org/2000/svg">
<path d="M268.977 48.8492L221.499 21.4678C213.481 16.8439 203.519 16.8442 195.501 21.4678L148.023 48.8492C139.99 53.4816 135 62.1209 135 71.3951V126.115C135 135.39 139.99 144.029 148.023 148.661L195.501 176.043C203.52 180.668 213.482 180.666 221.499 176.043L268.977 148.661C277.01 144.029 282 135.39 282 126.115V71.3951C282 62.1212 277.01 53.4819 268.977 48.8492ZM269.382 126.115C269.382 130.893 266.812 135.343 262.674 137.729L215.195 165.11C211.065 167.492 205.934 167.492 201.804 165.11L154.326 137.729C150.188 135.342 147.618 130.893 147.618 126.115V71.3951C147.618 66.6182 150.188 62.1682 154.326 59.7821L201.804 32.4007C205.935 30.0184 211.067 30.0193 215.196 32.4007L262.674 59.7818C266.812 62.1682 269.382 66.6179 269.382 71.3951V126.115Z" fill="#E86A92"/>
<path d="M202.505 93.9382L179.073 74.108C176.413 71.8569 172.432 72.1885 170.181 74.849C167.93 77.5095 168.262 81.4908 170.922 83.7419L188.662 98.7554L170.922 113.769C168.262 116.02 167.931 120.001 170.181 122.662C172.437 125.328 176.419 125.648 179.073 123.402L202.505 103.572C205.486 101.049 205.477 96.4539 202.505 93.9382Z" fill="#E86A92"/>
<path d="M242.003 112.275H213.614C210.129 112.275 207.305 115.1 207.305 118.585C207.305 122.07 210.129 124.895 213.614 124.895H242.003C245.487 124.895 248.312 122.07 248.312 118.585C248.312 115.1 245.487 112.275 242.003 112.275Z" fill="#E86A92"/>
<path d="M22.592 144.864C15.488 144.864 9.968 143.04 6.032 139.392C2.096 135.648 0.128 129.84 0.128 121.968C0.128 115.344 1.424 108.048 4.016 100.08C6.704 92.112 10.928 85.248 16.688 79.488C22.544 73.632 29.936 70.704 38.864 70.704C44.624 70.704 48.704 71.952 51.104 74.448C53.6 76.944 54.848 80.112 54.848 83.952C54.848 87.312 54.128 89.904 52.688 91.728C51.248 93.552 49.424 94.464 47.216 94.464C45.584 94.464 43.904 93.888 42.176 92.736C43.328 89.568 43.904 86.736 43.904 84.24C43.904 82.416 43.568 80.976 42.896 79.92C42.224 78.864 41.216 78.336 39.872 78.336C36.992 78.336 34.112 80.688 31.232 85.392C28.352 90.096 26 95.808 24.176 102.528C22.352 109.248 21.44 115.296 21.44 120.672C21.44 125.376 22.256 128.592 23.888 130.32C25.52 131.952 28.16 132.768 31.808 132.768C36.992 132.768 41.408 131.568 45.056 129.168C48.8 126.768 52.88 123.12 57.296 118.224H62.192C51.536 135.984 38.336 144.864 22.592 144.864ZM71.5216 144.864C66.9136 144.864 63.1696 143.424 60.2896 140.544C57.5056 137.664 56.1136 133.344 56.1136 127.584C56.1136 125.184 56.4976 122.064 57.2656 118.224L72.6736 46.08L93.9856 43.2L77.4256 120.96C77.0416 122.4 76.8496 123.936 76.8496 125.568C76.8496 127.488 77.2816 128.88 78.1456 129.744C79.1056 130.512 80.6416 130.896 82.7536 130.896C85.5376 130.896 88.1296 129.744 90.5296 127.44C92.9296 125.04 94.6576 121.968 95.7136 118.224H101.762C98.2096 128.592 93.6496 135.648 88.0816 139.392C82.5136 143.04 76.9936 144.864 71.5216 144.864ZM119.704 64.224C116.536 64.224 113.848 63.12 111.64 60.912C109.432 58.704 108.328 56.016 108.328 52.848C108.328 49.68 109.432 46.992 111.64 44.784C113.848 42.48 116.536 41.328 119.704 41.328C122.872 41.328 125.56 42.48 127.768 44.784C130.072 46.992 131.224 49.68 131.224 52.848C131.224 56.016 130.072 58.704 127.768 60.912C125.56 63.12 122.872 64.224 119.704 64.224ZM109.912 144.864C105.304 144.864 101.56 143.424 98.6803 140.544C95.8963 137.664 94.5042 133.344 94.5042 127.584C94.5042 125.184 94.8882 122.064 95.6562 118.224L105.448 72H126.184L115.816 120.96C115.432 122.4 115.24 123.936 115.24 125.568C115.24 127.488 115.672 128.88 116.536 129.744C117.496 130.512 119.032 130.896 121.144 130.896C122.872 130.896 124.408 130.608 125.752 130.032C125.368 134.832 123.64 138.528 120.568 141.12C117.592 143.616 114.04 144.864 109.912 144.864Z" fill="black"/>
</svg>
