<svg width="147" height="162" viewBox="0 0 147 162" fill="none" xmlns="http://www.w3.org/2000/svg">
<path d="M133.977 30.8492L86.4988 3.46779C78.4813 -1.15609 68.519 -1.15577 60.5012 3.46779L13.0234 30.8492C4.99011 35.4816 0 44.1209 0 53.3951V108.115C0 117.39 4.99011 126.029 13.0231 130.661L60.5012 158.043C68.5203 162.668 78.4822 162.666 86.4988 158.043L133.977 130.661C142.01 126.029 147 117.39 147 108.115V53.3951C147 44.1212 142.01 35.4819 133.977 30.8492ZM134.382 108.115C134.382 112.893 131.812 117.343 127.674 119.729L80.1954 147.11C76.0652 149.492 70.9344 149.492 66.8042 147.11L19.3261 119.729C15.1883 117.342 12.618 112.893 12.618 108.115V53.3951C12.618 48.6182 15.1883 44.1682 19.3264 41.7821L66.8042 14.4007C70.9348 12.0184 76.0671 12.0193 80.1958 14.4007L127.674 41.7818C131.812 44.1682 134.382 48.6179 134.382 53.3951V108.115Z" fill="#E86A92"/>
<path d="M67.5045 75.9382L44.0725 56.108C41.413 53.8569 37.4317 54.1885 35.1809 56.849C32.9302 59.5095 33.2621 63.4908 35.9219 65.7419L53.6622 80.7554L35.9219 95.7686C33.2621 98.0197 32.9305 102.001 35.1809 104.662C37.437 107.328 41.4193 107.648 44.0725 105.402L67.5045 85.572C70.4855 83.0494 70.477 78.4539 67.5045 75.9382Z" fill="#E86A92"/>
<path d="M107.003 94.2753H78.6138C75.1293 94.2753 72.3047 97.1002 72.3047 100.585C72.3047 104.07 75.1293 106.895 78.6138 106.895H107.003C110.487 106.895 113.312 104.07 113.312 100.585C113.312 97.1002 110.487 94.2753 107.003 94.2753Z" fill="#E86A92"/>
</svg>
