<svg width="198" height="259" viewBox="0 0 198 259" fill="none" xmlns="http://www.w3.org/2000/svg">
<path d="M120.077 5.31389C123.623 11.8572 123.139 20.4751 118.949 25.7417C116.048 29.5719 114.758 30.0506 108.956 29.2527C105.249 28.7739 101.219 28.1355 99.9299 27.4972C96.384 26.0608 93.8052 28.2951 92.8381 33.7212C92.3546 36.4343 92.3546 37.5514 92.8381 36.4343C95.2558 31.1678 101.703 34.8384 118.465 50.638C133.938 65.3204 135.389 67.3951 135.389 72.6617C135.389 77.2898 133.938 80.1625 128.297 86.3866C120.077 95.8025 116.692 101.867 115.242 110.166L113.952 116.23L135.55 100.271C164.401 79.0453 176.006 73.4596 183.581 77.609C193.574 82.8755 181.163 114.315 159.082 139.211L152.313 146.872L160.21 141.446C184.064 124.529 196.475 95.4833 192.123 67.2355C186.643 32.4445 159.727 6.43105 124.751 1.64328L117.659 0.68573L120.077 5.31389ZM147.961 12.4955C167.947 21.9114 185.837 44.2543 187.933 62.767C188.416 66.9163 189.061 72.5021 189.544 75.0555C190.189 79.6837 190.189 79.6837 186.966 76.811C182.292 72.5021 172.46 73.4596 161.016 79.2049C155.536 81.918 150.217 84.9502 149.089 86.0674C147.961 87.1845 145.382 89.0996 143.448 90.3763C141.514 91.6531 138.935 93.7278 137.645 94.6853C136.517 95.8025 134.905 96.76 134.1 96.76C133.132 96.76 132.165 97.2388 131.843 97.8772C131.682 98.6751 128.619 101.229 125.396 103.622C115.242 111.123 118.788 101.867 131.198 87.9825C143.287 74.5768 141.514 68.0335 120.561 48.2441C104.765 33.2425 104.443 32.9233 109.439 32.9233C120.238 32.9233 126.363 24.9437 125.396 12.6551L124.912 5.47348L131.037 6.43105C134.422 7.06941 141.997 9.78247 147.961 12.4955Z" fill="#F0627D"/>
<path d="M57.8626 26.0608C30.6237 56.5429 31.7519 104.261 60.6027 132.828C65.438 137.616 69.9509 141.446 70.7568 141.446C71.5627 141.446 72.691 139.052 73.1745 136.179C73.658 133.307 78.0098 124.369 82.8451 116.39C96.384 93.7278 97.1899 89.4188 92.6769 62.4478C91.3875 54.4682 90.2593 44.4139 90.2593 40.1049C90.2593 34.3596 89.7758 32.7637 88.6475 34.5192C87.8416 35.7959 87.0357 41.2221 87.0357 46.4886C87.0357 53.0319 86.0687 57.66 83.9734 61.0115C80.7498 66.1184 72.0462 71.2253 66.0827 71.2253C54.1556 71.2253 45.452 56.7025 53.1885 49.6804C56.7344 46.4886 61.2474 47.4461 61.2474 51.5955C61.2474 53.9894 60.925 54.149 59.6356 52.0743C58.5074 50.1592 57.7015 50.1592 56.2509 51.5955C54.8003 53.0319 54.8003 54.149 56.4121 56.0641C58.9909 59.2559 61.8921 59.0964 65.438 55.7449C67.6945 53.351 68.0168 51.1168 66.8886 40.1049C66.2439 33.0829 65.7603 25.4225 65.7603 22.869C65.9215 20.4751 65.7603 18.56 65.2768 18.56C64.9544 18.56 61.7309 21.9115 57.8626 26.0608ZM63.5039 34.0404C63.9874 37.3919 64.4709 42.1796 64.4709 44.7331C64.4709 48.4037 63.9874 49.0421 62.5368 47.6057C59.4744 44.5735 53.5109 45.3715 49.8038 49.0421C47.0638 51.7551 46.5802 53.6702 47.2249 58.2984C48.3532 65.48 58.0238 74.4172 64.4709 74.4172C70.918 74.4172 80.5886 69.9486 84.2957 65.48C88.9699 59.4155 89.9369 61.3306 91.3875 80.8008C92.1934 92.451 92.0322 93.0894 85.424 105.538C81.7169 112.56 78.171 118.624 77.5263 119.103C76.8816 119.582 74.7863 123.252 72.8521 127.402C70.918 131.711 68.8227 135.062 68.3392 135.062C67.8556 135.062 64.4709 131.87 60.7638 128.04C40.6167 107.293 35.2978 72.3425 48.192 46.6482C53.0273 37.2323 59.4744 28.2951 61.4085 28.1355C62.0533 28.1355 62.8591 30.8486 63.5039 34.0404Z" fill="#F0627D"/>
<path d="M5.97398 136.113C16.1282 144.731 39.3377 155.902 55.9389 160.211C75.6026 165.478 106.065 166.276 126.373 161.967C135.077 160.211 144.103 157.658 146.521 156.541C150.389 154.466 147.971 154.306 125.084 154.945C85.7568 156.222 49.3307 150.157 16.7729 136.911C9.03635 133.879 1.6222 130.846 0.332778 130.368C-0.95664 129.729 1.6222 132.442 5.97398 136.113Z" fill="#2FAD1A"/>
<path d="M164.996 159.021C127.925 169.874 84.4075 172.906 47.3367 167.639C38.472 166.363 30.5743 165.405 29.6072 165.405C25.9002 165.405 40.2449 171.789 52.172 175.459C87.7922 186.471 127.281 183.279 161.611 166.841C172.249 161.734 185.304 153.755 181.92 154.234C181.436 154.393 173.861 156.468 164.996 159.021Z" fill="#0EB5EA"/>
<path d="M24.7683 223.36C22.8243 223.36 21.0003 222.988 19.2963 222.244C17.6163 221.5 16.1283 220.468 14.8323 219.148C13.5603 217.804 12.5643 216.268 11.8443 214.54C11.1243 212.788 10.7643 210.916 10.7643 208.924C10.7643 206.956 11.1123 205.108 11.8083 203.38C12.5283 201.628 13.5243 200.092 14.7963 198.772C16.0923 197.452 17.5803 196.42 19.2603 195.676C20.9643 194.908 22.8003 194.524 24.7683 194.524C26.4963 194.524 28.0683 194.776 29.4843 195.28C30.9003 195.784 32.2683 196.588 33.5883 197.692C33.9003 197.932 34.0323 198.244 33.9843 198.628C33.9363 198.988 33.7563 199.24 33.4443 199.384C33.3723 199.672 33.1443 199.864 32.7603 199.96C32.4003 200.032 32.0403 199.912 31.6803 199.6C30.7443 198.784 29.7243 198.184 28.6203 197.8C27.5163 197.392 26.2323 197.188 24.7683 197.188C23.2083 197.188 21.7443 197.5 20.3763 198.124C19.0323 198.748 17.8443 199.6 16.8123 200.68C15.7803 201.76 14.9643 203.008 14.3643 204.424C13.7883 205.84 13.5003 207.34 13.5003 208.924C13.5003 210.556 13.7883 212.08 14.3643 213.496C14.9643 214.912 15.7803 216.16 16.8123 217.24C17.8443 218.32 19.0323 219.172 20.3763 219.796C21.7443 220.396 23.2083 220.696 24.7683 220.696C27.1203 220.696 29.2803 220.012 31.2483 218.644V211.444H25.6323C25.2243 211.444 24.8883 211.324 24.6243 211.084C24.3603 210.844 24.2283 210.544 24.2283 210.184C24.2283 209.824 24.3603 209.536 24.6243 209.32C24.8883 209.08 25.2243 208.96 25.6323 208.96H32.5803C32.9883 208.96 33.3243 209.092 33.5883 209.356C33.8523 209.596 33.9843 209.92 33.9843 210.328V219.256C33.9843 219.448 33.9603 219.628 33.9123 219.796C33.8643 219.94 33.7563 220.096 33.5883 220.264C32.3643 221.392 30.9963 222.196 29.4843 222.676C27.9723 223.132 26.4003 223.36 24.7683 223.36ZM46.7803 223.18C44.9323 223.18 43.2763 222.748 41.8123 221.884C40.3483 220.996 39.1843 219.796 38.3203 218.284C37.4803 216.772 37.0603 215.068 37.0603 213.172C37.0603 211.252 37.4923 209.536 38.3563 208.024C39.2443 206.512 40.4443 205.324 41.9563 204.46C43.4683 203.572 45.1723 203.128 47.0683 203.128C48.9643 203.128 50.6563 203.572 52.1443 204.46C53.6563 205.324 54.8443 206.512 55.7083 208.024C56.5963 209.536 57.0523 211.252 57.0763 213.172V221.632C57.0763 222.04 56.9443 222.376 56.6803 222.64C56.4163 222.88 56.0803 223 55.6723 223C55.2643 223 54.9283 222.88 54.6643 222.64C54.4003 222.376 54.2683 222.04 54.2683 221.632V219.436C53.4523 220.588 52.3963 221.5 51.1003 222.172C49.8043 222.844 48.3643 223.18 46.7803 223.18ZM47.0683 220.66C48.4603 220.66 49.6963 220.336 50.7763 219.688C51.8803 219.04 52.7443 218.152 53.3683 217.024C54.0163 215.872 54.3403 214.588 54.3403 213.172C54.3403 211.732 54.0163 210.448 53.3683 209.32C52.7443 208.192 51.8803 207.304 50.7763 206.656C49.6963 205.984 48.4603 205.648 47.0683 205.648C45.7003 205.648 44.4643 205.984 43.3603 206.656C42.2563 207.304 41.3803 208.192 40.7323 209.32C40.0843 210.448 39.7603 211.732 39.7603 213.172C39.7603 214.588 40.0843 215.872 40.7323 217.024C41.3803 218.152 42.2563 219.04 43.3603 219.688C44.4643 220.336 45.7003 220.66 47.0683 220.66ZM64.4476 223C64.0156 223 63.6676 222.88 63.4036 222.64C63.1636 222.376 63.0436 222.028 63.0436 221.596V204.712C63.0436 204.28 63.1636 203.944 63.4036 203.704C63.6676 203.44 64.0156 203.308 64.4476 203.308C64.8556 203.308 65.1796 203.44 65.4196 203.704C65.6836 203.944 65.8156 204.28 65.8156 204.712V221.596C65.8156 222.028 65.6836 222.376 65.4196 222.64C65.1796 222.88 64.8556 223 64.4476 223ZM64.4116 199.564C63.8836 199.564 63.4276 199.372 63.0436 198.988C62.6596 198.604 62.4676 198.136 62.4676 197.584C62.4676 196.984 62.6596 196.516 63.0436 196.18C63.4516 195.82 63.9196 195.64 64.4476 195.64C64.9516 195.64 65.3956 195.82 65.7796 196.18C66.1876 196.516 66.3916 196.984 66.3916 197.584C66.3916 198.136 66.1996 198.604 65.8156 198.988C65.4316 199.372 64.9636 199.564 64.4116 199.564ZM81.5498 223.18C79.7018 223.18 78.0458 222.748 76.5818 221.884C75.1178 220.996 73.9538 219.796 73.0898 218.284C72.2498 216.772 71.8298 215.068 71.8298 213.172C71.8298 211.252 72.2618 209.536 73.1258 208.024C74.0138 206.512 75.2138 205.324 76.7258 204.46C78.2378 203.572 79.9418 203.128 81.8378 203.128C83.7338 203.128 85.4258 203.572 86.9138 204.46C88.4258 205.324 89.6138 206.512 90.4778 208.024C91.3658 209.536 91.8218 211.252 91.8458 213.172V221.632C91.8458 222.04 91.7138 222.376 91.4498 222.64C91.1858 222.88 90.8498 223 90.4418 223C90.0338 223 89.6978 222.88 89.4338 222.64C89.1698 222.376 89.0378 222.04 89.0378 221.632V219.436C88.2218 220.588 87.1658 221.5 85.8698 222.172C84.5738 222.844 83.1338 223.18 81.5498 223.18ZM81.8378 220.66C83.2298 220.66 84.4658 220.336 85.5458 219.688C86.6498 219.04 87.5138 218.152 88.1378 217.024C88.7858 215.872 89.1098 214.588 89.1098 213.172C89.1098 211.732 88.7858 210.448 88.1378 209.32C87.5138 208.192 86.6498 207.304 85.5458 206.656C84.4658 205.984 83.2298 205.648 81.8378 205.648C80.4698 205.648 79.2338 205.984 78.1298 206.656C77.0258 207.304 76.1498 208.192 75.5018 209.32C74.8538 210.448 74.5298 211.732 74.5298 213.172C74.5298 214.588 74.8538 215.872 75.5018 217.024C76.1498 218.152 77.0258 219.04 78.1298 219.688C79.2338 220.336 80.4698 220.66 81.8378 220.66ZM109.548 223C109.164 223 108.828 222.868 108.54 222.604C108.276 222.34 108.144 222.004 108.144 221.596V196.288C108.144 195.904 108.276 195.58 108.54 195.316C108.828 195.028 109.164 194.884 109.548 194.884C109.932 194.884 110.256 195.028 110.52 195.316C110.808 195.58 110.952 195.904 110.952 196.288V220.336H125.028C125.412 220.336 125.736 220.468 126 220.732C126.288 220.972 126.432 221.284 126.432 221.668C126.432 222.052 126.288 222.376 126 222.64C125.736 222.88 125.412 223 125.028 223H109.548ZM139.241 223.18C137.393 223.18 135.737 222.748 134.273 221.884C132.809 220.996 131.645 219.796 130.781 218.284C129.941 216.772 129.521 215.068 129.521 213.172C129.521 211.252 129.953 209.536 130.817 208.024C131.705 206.512 132.905 205.324 134.417 204.46C135.929 203.572 137.633 203.128 139.529 203.128C141.425 203.128 143.117 203.572 144.605 204.46C146.117 205.324 147.305 206.512 148.169 208.024C149.057 209.536 149.513 211.252 149.537 213.172V221.632C149.537 222.04 149.405 222.376 149.141 222.64C148.877 222.88 148.541 223 148.133 223C147.725 223 147.389 222.88 147.125 222.64C146.861 222.376 146.729 222.04 146.729 221.632V219.436C145.913 220.588 144.857 221.5 143.561 222.172C142.265 222.844 140.825 223.18 139.241 223.18ZM139.529 220.66C140.921 220.66 142.157 220.336 143.237 219.688C144.341 219.04 145.205 218.152 145.829 217.024C146.477 215.872 146.801 214.588 146.801 213.172C146.801 211.732 146.477 210.448 145.829 209.32C145.205 208.192 144.341 207.304 143.237 206.656C142.157 205.984 140.921 205.648 139.529 205.648C138.161 205.648 136.925 205.984 135.821 206.656C134.717 207.304 133.841 208.192 133.193 209.32C132.545 210.448 132.221 211.732 132.221 213.172C132.221 214.588 132.545 215.872 133.193 217.024C133.841 218.152 134.717 219.04 135.821 219.688C136.925 220.336 138.161 220.66 139.529 220.66ZM164.901 223.18C163.029 223.18 161.337 222.748 159.825 221.884C158.337 221.02 157.149 219.844 156.261 218.356C155.397 216.844 154.953 215.152 154.929 213.28V196.288C154.929 195.856 155.049 195.52 155.289 195.28C155.553 195.016 155.901 194.884 156.333 194.884C156.741 194.884 157.065 195.016 157.305 195.28C157.569 195.52 157.701 195.856 157.701 196.288V206.872C158.493 205.744 159.537 204.844 160.833 204.172C162.153 203.476 163.617 203.128 165.225 203.128C167.073 203.128 168.729 203.572 170.193 204.46C171.657 205.324 172.809 206.512 173.649 208.024C174.513 209.536 174.945 211.24 174.945 213.136C174.945 215.056 174.501 216.772 173.613 218.284C172.749 219.796 171.561 220.996 170.049 221.884C168.537 222.748 166.821 223.18 164.901 223.18ZM164.901 220.66C166.293 220.66 167.541 220.336 168.645 219.688C169.749 219.016 170.613 218.116 171.237 216.988C171.885 215.86 172.209 214.576 172.209 213.136C172.209 211.72 171.885 210.448 171.237 209.32C170.613 208.168 169.749 207.268 168.645 206.62C167.541 205.972 166.293 205.648 164.901 205.648C163.533 205.648 162.297 205.972 161.193 206.62C160.089 207.268 159.225 208.168 158.601 209.32C157.977 210.448 157.665 211.72 157.665 213.136C157.665 214.576 157.977 215.86 158.601 216.988C159.225 218.116 160.089 219.016 161.193 219.688C162.297 220.336 163.533 220.66 164.901 220.66ZM187.258 223.18C185.842 223.18 184.438 222.94 183.046 222.46C181.654 221.98 180.526 221.26 179.662 220.3C179.398 220.012 179.29 219.688 179.338 219.328C179.386 218.968 179.566 218.656 179.878 218.392C180.214 218.152 180.562 218.056 180.922 218.104C181.282 218.152 181.582 218.308 181.822 218.572C182.398 219.244 183.154 219.76 184.09 220.12C185.05 220.48 186.106 220.66 187.258 220.66C189.034 220.66 190.318 220.36 191.11 219.76C191.902 219.136 192.31 218.392 192.334 217.528C192.334 216.664 191.926 215.956 191.11 215.404C190.294 214.828 188.95 214.384 187.078 214.072C184.654 213.688 182.878 213.016 181.75 212.056C180.622 211.096 180.058 209.956 180.058 208.636C180.058 207.412 180.382 206.392 181.03 205.576C181.678 204.76 182.542 204.148 183.622 203.74C184.702 203.332 185.89 203.128 187.186 203.128C188.794 203.128 190.174 203.404 191.326 203.956C192.502 204.508 193.45 205.252 194.17 206.188C194.41 206.5 194.506 206.824 194.458 207.16C194.41 207.496 194.218 207.772 193.882 207.988C193.594 208.156 193.258 208.216 192.874 208.168C192.514 208.096 192.202 207.916 191.938 207.628C190.762 206.284 189.154 205.612 187.114 205.612C185.794 205.612 184.738 205.888 183.946 206.44C183.154 206.968 182.758 207.64 182.758 208.456C182.758 209.272 183.106 209.944 183.802 210.472C184.522 211 185.866 211.432 187.834 211.768C189.634 212.056 191.05 212.488 192.082 213.064C193.138 213.616 193.882 214.276 194.314 215.044C194.77 215.788 194.998 216.604 194.998 217.492C194.998 218.62 194.662 219.616 193.99 220.48C193.342 221.32 192.43 221.98 191.254 222.46C190.102 222.94 188.77 223.18 187.258 223.18Z" fill="black"/>
<path d="M52.5434 258.616C52.2554 258.616 52.0234 258.528 51.8474 258.352C51.6874 258.192 51.6074 257.968 51.6074 257.68V246.352C51.6234 245.104 51.9194 243.984 52.4954 242.992C53.0874 241.984 53.8794 241.192 54.8714 240.616C55.8794 240.04 57.0074 239.752 58.2554 239.752C59.5354 239.752 60.6794 240.048 61.6874 240.64C62.6954 241.216 63.4874 242.008 64.0634 243.016C64.6554 244.024 64.9514 245.168 64.9514 246.448C64.9514 247.712 64.6634 248.848 64.0874 249.856C63.5274 250.864 62.7594 251.664 61.7834 252.256C60.8074 252.832 59.7034 253.12 58.4714 253.12C57.3994 253.12 56.4234 252.896 55.5434 252.448C54.6794 251.984 53.9834 251.376 53.4554 250.624V257.68C53.4554 257.968 53.3674 258.192 53.1914 258.352C53.0314 258.528 52.8154 258.616 52.5434 258.616ZM58.2554 251.44C59.1834 251.44 60.0154 251.224 60.7514 250.792C61.4874 250.36 62.0634 249.768 62.4794 249.016C62.9114 248.248 63.1274 247.392 63.1274 246.448C63.1274 245.488 62.9114 244.632 62.4794 243.88C62.0634 243.128 61.4874 242.536 60.7514 242.104C60.0154 241.656 59.1834 241.432 58.2554 241.432C57.3434 241.432 56.5194 241.656 55.7834 242.104C55.0474 242.536 54.4714 243.128 54.0554 243.88C53.6394 244.632 53.4314 245.488 53.4314 246.448C53.4314 247.392 53.6394 248.248 54.0554 249.016C54.4714 249.768 55.0474 250.36 55.7834 250.792C56.5194 251.224 57.3434 251.44 58.2554 251.44ZM69.4881 253C68.8801 253 68.5761 252.696 68.5761 252.088V240.784C68.5761 240.176 68.8801 239.872 69.4881 239.872C70.0961 239.872 70.4001 240.176 70.4001 240.784V241.816C70.8801 241.176 71.4721 240.672 72.1761 240.304C72.8801 239.92 73.6561 239.728 74.5041 239.728C75.2401 239.728 75.8081 239.832 76.2081 240.04C76.6081 240.248 76.7601 240.552 76.6641 240.952C76.5841 241.32 76.3921 241.512 76.0881 241.528C75.8001 241.528 75.4561 241.512 75.0561 241.48C74.1601 241.4 73.3601 241.496 72.6561 241.768C71.9681 242.024 71.4161 242.424 71.0001 242.968C70.6001 243.512 70.4001 244.16 70.4001 244.912V252.088C70.4001 252.696 70.0961 253 69.4881 253ZM84.5594 253.12C83.2634 253.12 82.1114 252.84 81.1034 252.28C80.1114 251.704 79.3274 250.912 78.7514 249.904C78.1914 248.896 77.9114 247.744 77.9114 246.448C77.9114 245.136 78.1754 243.984 78.7034 242.992C79.2474 241.984 79.9914 241.192 80.9354 240.616C81.8794 240.04 82.9674 239.752 84.1994 239.752C85.4154 239.752 86.4714 240.032 87.3674 240.592C88.2794 241.136 88.9834 241.896 89.4794 242.872C89.9754 243.848 90.2234 244.96 90.2234 246.208C90.2234 246.464 90.1434 246.672 89.9834 246.832C89.8234 246.976 89.6154 247.048 89.3594 247.048H79.6634C79.7594 247.912 80.0234 248.68 80.4554 249.352C80.8874 250.008 81.4554 250.528 82.1594 250.912C82.8634 251.28 83.6634 251.464 84.5594 251.464C85.1354 251.464 85.7114 251.368 86.2874 251.176C86.8794 250.968 87.3514 250.712 87.7034 250.408C87.8794 250.264 88.0794 250.192 88.3034 250.192C88.5274 250.176 88.7194 250.232 88.8794 250.36C89.0874 250.552 89.1914 250.76 89.1914 250.984C89.2074 251.208 89.1194 251.4 88.9274 251.56C88.3994 252.008 87.7274 252.384 86.9114 252.688C86.0954 252.976 85.3114 253.12 84.5594 253.12ZM84.1994 241.408C82.9674 241.408 81.9514 241.792 81.1514 242.56C80.3514 243.312 79.8714 244.296 79.7114 245.512H88.4954C88.3674 244.296 87.9194 243.312 87.1514 242.56C86.3994 241.792 85.4154 241.408 84.1994 241.408ZM97.9336 253.12C96.9896 253.12 96.0536 252.96 95.1256 252.64C94.1976 252.32 93.4456 251.84 92.8696 251.2C92.6936 251.008 92.6216 250.792 92.6536 250.552C92.6856 250.312 92.8056 250.104 93.0136 249.928C93.2376 249.768 93.4696 249.704 93.7096 249.736C93.9496 249.768 94.1496 249.872 94.3096 250.048C94.6936 250.496 95.1976 250.84 95.8216 251.08C96.4616 251.32 97.1656 251.44 97.9336 251.44C99.1176 251.44 99.9736 251.24 100.502 250.84C101.03 250.424 101.302 249.928 101.318 249.352C101.318 248.776 101.046 248.304 100.502 247.936C99.9576 247.552 99.0616 247.256 97.8136 247.048C96.1976 246.792 95.0136 246.344 94.2616 245.704C93.5096 245.064 93.1336 244.304 93.1336 243.424C93.1336 242.608 93.3496 241.928 93.7816 241.384C94.2136 240.84 94.7896 240.432 95.5096 240.16C96.2296 239.888 97.0216 239.752 97.8856 239.752C98.9576 239.752 99.8776 239.936 100.646 240.304C101.43 240.672 102.062 241.168 102.542 241.792C102.702 242 102.766 242.216 102.734 242.44C102.702 242.664 102.574 242.848 102.35 242.992C102.158 243.104 101.934 243.144 101.678 243.112C101.438 243.064 101.23 242.944 101.054 242.752C100.27 241.856 99.1976 241.408 97.8376 241.408C96.9576 241.408 96.2536 241.592 95.7256 241.96C95.1976 242.312 94.9336 242.76 94.9336 243.304C94.9336 243.848 95.1656 244.296 95.6296 244.648C96.1096 245 97.0056 245.288 98.3176 245.512C99.5176 245.704 100.462 245.992 101.15 246.376C101.854 246.744 102.35 247.184 102.638 247.696C102.942 248.192 103.094 248.736 103.094 249.328C103.094 250.08 102.87 250.744 102.422 251.32C101.99 251.88 101.382 252.32 100.598 252.64C99.8296 252.96 98.9416 253.12 97.9336 253.12ZM112.239 253.12C110.943 253.12 109.791 252.84 108.783 252.28C107.791 251.704 107.007 250.912 106.431 249.904C105.871 248.896 105.591 247.744 105.591 246.448C105.591 245.136 105.855 243.984 106.383 242.992C106.927 241.984 107.671 241.192 108.615 240.616C109.559 240.04 110.647 239.752 111.879 239.752C113.095 239.752 114.151 240.032 115.047 240.592C115.959 241.136 116.663 241.896 117.159 242.872C117.655 243.848 117.903 244.96 117.903 246.208C117.903 246.464 117.823 246.672 117.663 246.832C117.503 246.976 117.295 247.048 117.039 247.048H107.343C107.439 247.912 107.703 248.68 108.135 249.352C108.567 250.008 109.135 250.528 109.839 250.912C110.543 251.28 111.343 251.464 112.239 251.464C112.815 251.464 113.391 251.368 113.967 251.176C114.559 250.968 115.031 250.712 115.383 250.408C115.559 250.264 115.759 250.192 115.983 250.192C116.207 250.176 116.399 250.232 116.559 250.36C116.767 250.552 116.871 250.76 116.871 250.984C116.887 251.208 116.799 251.4 116.607 251.56C116.079 252.008 115.407 252.384 114.591 252.688C113.775 252.976 112.991 253.12 112.239 253.12ZM111.879 241.408C110.647 241.408 109.631 241.792 108.831 242.56C108.031 243.312 107.551 244.296 107.391 245.512H116.175C116.047 244.296 115.599 243.312 114.831 242.56C114.079 241.792 113.095 241.408 111.879 241.408ZM121.965 253C121.677 253 121.445 252.92 121.269 252.76C121.109 252.584 121.029 252.36 121.029 252.088V240.808C121.029 240.52 121.109 240.296 121.269 240.136C121.445 239.96 121.677 239.872 121.965 239.872C122.237 239.872 122.453 239.96 122.613 240.136C122.789 240.296 122.877 240.52 122.877 240.808V241.624C123.389 241.032 124.021 240.568 124.773 240.232C125.541 239.896 126.365 239.728 127.245 239.728C128.381 239.728 129.397 239.968 130.293 240.448C131.189 240.912 131.893 241.6 132.405 242.512C132.933 243.424 133.197 244.536 133.197 245.848V252.088C133.197 252.344 133.109 252.56 132.933 252.736C132.757 252.912 132.541 253 132.285 253C132.013 253 131.789 252.912 131.613 252.736C131.437 252.56 131.349 252.344 131.349 252.088V245.848C131.349 244.36 130.933 243.264 130.101 242.56C129.285 241.84 128.269 241.48 127.053 241.48C126.269 241.48 125.557 241.632 124.917 241.936C124.293 242.24 123.797 242.656 123.429 243.184C123.061 243.712 122.877 244.312 122.877 244.984V252.088C122.877 252.36 122.789 252.584 122.613 252.76C122.453 252.92 122.237 253 121.965 253ZM142.407 253C141.559 253 140.799 252.8 140.127 252.4C139.471 252 138.951 251.456 138.567 250.768C138.183 250.064 137.991 249.264 137.991 248.368V241.96H136.431C136.191 241.96 135.991 241.888 135.831 241.744C135.671 241.584 135.591 241.392 135.591 241.168C135.591 240.928 135.671 240.736 135.831 240.592C135.991 240.432 136.191 240.352 136.431 240.352H137.991V236.632C137.991 236.36 138.071 236.136 138.231 235.96C138.407 235.784 138.631 235.696 138.903 235.696C139.175 235.696 139.399 235.784 139.575 235.96C139.751 236.136 139.839 236.36 139.839 236.632V240.352H142.551C142.791 240.352 142.991 240.432 143.151 240.592C143.311 240.736 143.391 240.928 143.391 241.168C143.391 241.392 143.311 241.584 143.151 241.744C142.991 241.888 142.791 241.96 142.551 241.96H139.839V248.368C139.839 249.184 140.079 249.856 140.559 250.384C141.039 250.896 141.655 251.152 142.407 251.152H143.055C143.311 251.152 143.519 251.24 143.679 251.416C143.839 251.592 143.919 251.816 143.919 252.088C143.919 252.36 143.823 252.584 143.631 252.76C143.439 252.92 143.199 253 142.911 253H142.407ZM151.512 253.12C150.568 253.12 149.632 252.96 148.704 252.64C147.776 252.32 147.024 251.84 146.448 251.2C146.272 251.008 146.2 250.792 146.232 250.552C146.264 250.312 146.384 250.104 146.592 249.928C146.816 249.768 147.048 249.704 147.288 249.736C147.528 249.768 147.728 249.872 147.888 250.048C148.272 250.496 148.776 250.84 149.4 251.08C150.04 251.32 150.744 251.44 151.512 251.44C152.696 251.44 153.552 251.24 154.08 250.84C154.608 250.424 154.88 249.928 154.896 249.352C154.896 248.776 154.624 248.304 154.08 247.936C153.536 247.552 152.64 247.256 151.392 247.048C149.776 246.792 148.592 246.344 147.84 245.704C147.088 245.064 146.712 244.304 146.712 243.424C146.712 242.608 146.928 241.928 147.36 241.384C147.792 240.84 148.368 240.432 149.088 240.16C149.808 239.888 150.6 239.752 151.464 239.752C152.536 239.752 153.456 239.936 154.224 240.304C155.008 240.672 155.64 241.168 156.12 241.792C156.28 242 156.344 242.216 156.312 242.44C156.28 242.664 156.152 242.848 155.928 242.992C155.736 243.104 155.512 243.144 155.256 243.112C155.016 243.064 154.808 242.944 154.632 242.752C153.848 241.856 152.776 241.408 151.416 241.408C150.536 241.408 149.832 241.592 149.304 241.96C148.776 242.312 148.512 242.76 148.512 243.304C148.512 243.848 148.744 244.296 149.208 244.648C149.688 245 150.584 245.288 151.896 245.512C153.096 245.704 154.04 245.992 154.728 246.376C155.432 246.744 155.928 247.184 156.216 247.696C156.52 248.192 156.672 248.736 156.672 249.328C156.672 250.08 156.448 250.744 156 251.32C155.568 251.88 154.96 252.32 154.176 252.64C153.408 252.96 152.52 253.12 151.512 253.12Z" fill="#F0627D"/>
</svg>
