<svg width="217" height="184" viewBox="0 0 217 184" fill="none" xmlns="http://www.w3.org/2000/svg">
<mask id="path-1-outside-1" maskUnits="userSpaceOnUse" x="-2.17789" y="36.327" width="124.613" height="105.269" fill="black">
<rect fill="white" x="-2.17789" y="36.327" width="124.613" height="105.269"/>
<path fill-rule="evenodd" clip-rule="evenodd" d="M108.348 118.491C103.386 97.8031 90.8849 79.3237 72.0401 67.9858C53.2027 56.6523 31.6043 54.6069 11.937 60.4642C16.8989 81.152 29.4004 99.6314 48.2452 110.969C67.0826 122.303 88.681 124.348 108.348 118.491Z"/>
</mask>
<path fill-rule="evenodd" clip-rule="evenodd" d="M108.348 118.491C103.386 97.8031 90.8849 79.3237 72.0401 67.9858C53.2027 56.6523 31.6043 54.6069 11.937 60.4642C16.8989 81.152 29.4004 99.6314 48.2452 110.969C67.0826 122.303 88.681 124.348 108.348 118.491Z" fill="#F0627D" fill-opacity="0.8"/>
<path d="M72.0401 67.9858L71.5552 68.8603L71.5552 68.8603L72.0401 67.9858ZM108.348 118.491L108.637 119.467L109.529 119.201L109.304 118.264L108.348 118.491ZM11.937 60.4642L11.6484 59.4885L10.7566 59.7541L10.9814 60.6915L11.937 60.4642ZM48.2452 110.969L47.7603 111.844L47.7603 111.844L48.2452 110.969ZM71.5552 68.8603C90.1485 80.047 102.491 98.2828 107.393 118.718L109.304 118.264C104.281 97.3235 91.6212 78.6004 72.525 67.1112L71.5552 68.8603ZM12.2255 61.44C31.6526 55.6542 52.9692 57.6781 71.5552 68.8603L72.525 67.1112C53.4362 55.6265 31.5559 53.5596 11.6484 59.4885L12.2255 61.44ZM48.7301 110.095C30.1367 98.9081 17.7939 80.6723 12.8925 60.237L10.9814 60.6915C16.004 81.6316 28.664 100.355 47.7603 111.844L48.7301 110.095ZM108.06 117.515C88.6326 123.301 67.316 121.277 48.7301 110.095L47.7603 111.844C66.8491 123.329 88.7293 125.395 108.637 119.467L108.06 117.515Z" fill="#CCE1F4" mask="url(#path-1-outside-1)"/>
<mask id="path-3-outside-2" maskUnits="userSpaceOnUse" x="94.8674" y="37.0996" width="124.728" height="104.652" fill="black">
<rect fill="white" x="94.8674" y="37.0996" width="124.728" height="104.652"/>
<path fill-rule="evenodd" clip-rule="evenodd" d="M108.355 117.79C113.488 97.1438 126.141 78.7684 145.079 67.5865C164.008 56.4093 185.622 54.5422 205.24 60.5613C200.108 81.2073 187.455 99.5827 168.517 110.765C149.587 121.942 127.973 123.809 108.355 117.79Z"/>
</mask>
<path fill-rule="evenodd" clip-rule="evenodd" d="M108.355 117.79C113.488 97.1438 126.141 78.7684 145.079 67.5865C164.008 56.4093 185.622 54.5422 205.24 60.5613C200.108 81.2073 187.455 99.5827 168.517 110.765C149.587 121.942 127.973 123.809 108.355 117.79Z" fill="#F0627D" fill-opacity="0.8"/>
<path d="M108.355 117.79L107.402 117.555L107.169 118.49L108.059 118.763L108.355 117.79ZM145.079 67.5865L144.601 66.708L144.601 66.708L145.079 67.5865ZM205.24 60.5613L206.194 60.7964L206.427 59.8609L205.537 59.588L205.24 60.5613ZM168.517 110.765L168.039 109.886L168.039 109.886L168.517 110.765ZM109.309 118.025C114.379 97.6308 126.872 79.4977 145.556 68.4651L144.601 66.708C125.411 78.0391 112.597 96.6568 107.402 117.555L109.309 118.025ZM145.556 68.4651C164.233 57.437 185.565 55.5891 204.944 61.5346L205.537 59.588C185.679 53.4954 163.783 55.3816 144.601 66.708L145.556 68.4651ZM204.287 60.3262C199.217 80.7203 186.724 98.8534 168.039 109.886L168.995 111.643C188.185 100.312 200.999 81.6943 206.194 60.7964L204.287 60.3262ZM168.039 109.886C149.362 120.914 128.03 122.762 108.652 116.817L108.059 118.763C127.916 124.856 149.812 122.97 168.995 111.643L168.039 109.886Z" fill="#CCE1F4" mask="url(#path-3-outside-2)"/>
<mask id="path-5-outside-3" maskUnits="userSpaceOnUse" x="90.3092" y="16.4031" width="117.034" height="121.918" fill="black">
<rect fill="white" x="90.3092" y="16.4031" width="117.034" height="121.918"/>
<path fill-rule="evenodd" clip-rule="evenodd" d="M109.472 118.16C129.946 118.541 150.322 110.755 165.709 94.7261C181.096 78.6968 188.57 57.4708 188.204 36.1425C167.73 35.7608 147.354 43.5466 131.967 59.5759C116.58 75.6052 109.106 96.8312 109.472 118.16Z"/>
</mask>
<path fill-rule="evenodd" clip-rule="evenodd" d="M109.472 118.16C129.946 118.541 150.322 110.755 165.709 94.7261C181.096 78.6968 188.57 57.4708 188.204 36.1425C167.73 35.7608 147.354 43.5466 131.967 59.5759C116.58 75.6052 109.106 96.8312 109.472 118.16Z" fill="#F0627D" fill-opacity="0.8"/>
<path d="M165.709 94.7261L166.402 95.4475L165.709 94.7261ZM109.472 118.16L108.493 118.178L108.51 119.162L109.455 119.18L109.472 118.16ZM188.204 36.1425L189.183 36.1242L189.166 35.14L188.221 35.1224L188.204 36.1425ZM131.967 59.5759L132.659 60.2973L131.967 59.5759ZM165.017 94.0046C149.828 109.827 129.714 117.516 109.49 117.139L109.455 119.18C130.179 119.566 150.816 111.684 166.402 95.4475L165.017 94.0046ZM187.225 36.1607C187.586 57.2285 180.205 78.1824 165.017 94.0046L166.402 95.4475C181.987 79.2112 189.554 57.7131 189.183 36.1242L187.225 36.1607ZM132.659 60.2973C147.848 44.4751 167.962 36.7856 188.186 37.1625L188.221 35.1224C167.497 34.7361 146.86 42.6182 131.274 58.8545L132.659 60.2973ZM110.451 118.141C110.09 97.0735 117.471 76.1196 132.659 60.2973L131.274 58.8545C115.689 75.0908 108.122 96.5889 108.493 118.178L110.451 118.141Z" fill="#CCE1F4" mask="url(#path-5-outside-3)"/>
<mask id="path-7-outside-4" maskUnits="userSpaceOnUse" x="86.3038" y="3.17471" width="101.39" height="130.369" fill="black">
<rect fill="white" x="86.3038" y="3.17471" width="101.39" height="130.369"/>
<path fill-rule="evenodd" clip-rule="evenodd" d="M108.922 118.346C103.239 97.8284 105.166 75.2925 116.047 55.6525C126.924 36.0202 144.679 23.015 164.563 17.8809C170.246 38.3985 168.318 60.9344 157.437 80.5744C146.56 100.207 128.805 113.212 108.922 118.346Z"/>
</mask>
<path fill-rule="evenodd" clip-rule="evenodd" d="M108.922 118.346C103.239 97.8284 105.166 75.2925 116.047 55.6525C126.924 36.0202 144.679 23.015 164.563 17.8809C170.246 38.3985 168.318 60.9344 157.437 80.5744C146.56 100.207 128.805 113.212 108.922 118.346Z" fill="#F0627D" fill-opacity="0.8"/>
<path d="M108.922 118.346L107.975 118.609L108.242 119.572L109.177 119.331L108.922 118.346ZM116.047 55.6525L115.19 55.1372L115.19 55.1372L116.047 55.6525ZM164.563 17.8809L165.509 17.6181L165.242 16.6545L164.308 16.8958L164.563 17.8809ZM157.437 80.5744L158.294 81.0897L158.294 81.0897L157.437 80.5744ZM109.868 118.083C104.254 97.8162 106.159 75.5622 116.904 56.1677L115.19 55.1372C104.173 75.0227 102.223 97.8406 107.975 118.609L109.868 118.083ZM116.904 56.1677C127.645 36.7809 145.177 23.9373 164.818 18.8659L164.308 16.8958C144.181 22.0927 126.203 35.2594 115.19 55.1372L116.904 56.1677ZM163.616 18.1436C169.23 38.4106 167.325 60.6647 156.58 80.0592L158.294 81.0897C169.311 61.2042 171.261 38.3863 165.509 17.6181L163.616 18.1436ZM156.58 80.0592C145.839 99.446 128.307 112.29 108.667 117.361L109.177 119.331C129.303 114.134 147.281 100.967 158.294 81.0897L156.58 80.0592Z" fill="#CCE1F4" mask="url(#path-7-outside-4)"/>
<mask id="path-9-outside-5" maskUnits="userSpaceOnUse" x="84.8453" y="-2.21586" width="78.0519" height="129.66" fill="black">
<rect fill="white" x="84.8453" y="-2.21586" width="78.0519" height="129.66"/>
<path fill-rule="evenodd" clip-rule="evenodd" d="M109.51 118.478C127.431 108.159 141.341 90.8139 146.964 68.9221C152.593 47.0117 148.85 24.7164 138.256 6.42476C120.335 16.7438 106.425 34.0892 100.801 55.981C95.1728 77.8915 98.9155 100.187 109.51 118.478Z"/>
</mask>
<path fill-rule="evenodd" clip-rule="evenodd" d="M109.51 118.478C127.431 108.159 141.341 90.8139 146.964 68.9221C152.593 47.0117 148.85 24.7164 138.256 6.42476C120.335 16.7438 106.425 34.0892 100.801 55.981C95.1728 77.8915 98.9155 100.187 109.51 118.478Z" fill="#F0627D" fill-opacity="0.8"/>
<path d="M146.964 68.9221L147.928 69.1907L147.928 69.1907L146.964 68.9221ZM109.51 118.478L108.653 118.975L109.158 119.846L110.014 119.354L109.51 118.478ZM138.256 6.42476L139.113 5.92867L138.608 5.05675L137.752 5.54937L138.256 6.42476ZM100.801 55.981L101.765 56.2496L100.801 55.981ZM146.001 68.6536C140.446 90.2784 126.707 107.41 109.006 117.603L110.014 119.354C128.154 108.909 142.235 91.3494 147.928 69.1907L146.001 68.6536ZM137.4 6.92086C147.865 24.9893 151.561 47.0102 146.001 68.6536L147.928 69.1907C153.625 47.0131 149.836 24.4435 139.113 5.92867L137.4 6.92086ZM101.765 56.2496C107.32 34.6247 121.058 17.493 138.76 7.30016L137.752 5.54937C119.612 15.9946 105.53 33.5538 99.8381 55.7125L101.765 56.2496ZM110.366 117.982C99.9012 99.9139 96.2046 77.8929 101.765 56.2496L99.8381 55.7125C94.1409 77.89 97.9298 100.46 108.653 118.975L110.366 117.982Z" fill="#CCE1F4" mask="url(#path-9-outside-5)"/>
<mask id="path-11-outside-6" maskUnits="userSpaceOnUse" x="11.7219" y="16.2042" width="117.034" height="121.918" fill="black">
<rect fill="white" x="11.7219" y="16.2042" width="117.034" height="121.918"/>
<path fill-rule="evenodd" clip-rule="evenodd" d="M109.402 118.16C109.768 96.8312 102.294 75.6052 86.9071 59.5759C71.5199 43.5466 51.1443 35.7609 30.6704 36.1424C30.3041 57.4708 37.778 78.6968 53.1651 94.726C68.5522 110.755 88.9279 118.541 109.402 118.16Z"/>
</mask>
<path fill-rule="evenodd" clip-rule="evenodd" d="M109.402 118.16C109.768 96.8312 102.294 75.6052 86.9071 59.5759C71.5199 43.5466 51.1443 35.7609 30.6704 36.1424C30.3041 57.4708 37.778 78.6968 53.1651 94.726C68.5522 110.755 88.9279 118.541 109.402 118.16Z" fill="#F0627D" fill-opacity="0.8"/>
<path d="M109.402 118.16L109.419 119.18L110.364 119.162L110.381 118.178L109.402 118.16ZM30.6704 36.1424L30.6529 35.1224L29.7081 35.14L29.6912 36.1242L30.6704 36.1424ZM53.1651 94.726L52.4726 95.4474L53.1651 94.726ZM86.2145 60.2973C101.403 76.1195 108.784 97.0735 108.423 118.141L110.381 118.178C110.752 96.5888 103.185 75.0908 87.5996 58.8545L86.2145 60.2973ZM30.6879 37.1625C50.9117 36.7856 71.0262 44.4751 86.2145 60.2973L87.5996 58.8545C72.0137 42.6182 51.3769 34.7361 30.6529 35.1224L30.6879 37.1625ZM53.8576 94.0046C38.6692 78.1824 31.2878 57.2284 31.6496 36.1607L29.6912 36.1242C29.3204 57.7131 36.8867 79.2112 52.4726 95.4474L53.8576 94.0046ZM109.384 117.139C89.1605 117.516 69.046 109.827 53.8576 94.0046L52.4726 95.4474C68.0584 111.684 88.6952 119.566 109.419 119.18L109.384 117.139Z" fill="#CCE1F4" mask="url(#path-11-outside-6)"/>
<mask id="path-13-outside-7" maskUnits="userSpaceOnUse" x="30.8192" y="2.82035" width="101.39" height="130.369" fill="black">
<rect fill="white" x="30.8192" y="2.82035" width="101.39" height="130.369"/>
<path fill-rule="evenodd" clip-rule="evenodd" d="M109.002 118.346C114.685 97.8284 112.757 75.2925 101.876 55.6525C90.999 36.0202 73.244 23.015 53.3609 17.8809C47.6778 38.3985 49.6055 60.9344 60.4867 80.5744C71.3636 100.207 89.1185 113.212 109.002 118.346Z"/>
</mask>
<path fill-rule="evenodd" clip-rule="evenodd" d="M109.002 118.346C114.685 97.8284 112.757 75.2925 101.876 55.6525C90.999 36.0202 73.244 23.015 53.3609 17.8809C47.6778 38.3985 49.6055 60.9344 60.4867 80.5744C71.3636 100.207 89.1185 113.212 109.002 118.346Z" fill="#F0627D" fill-opacity="0.8"/>
<path d="M101.876 55.6525L102.733 55.1372L102.733 55.1372L101.876 55.6525ZM109.002 118.346L108.747 119.331L109.681 119.572L109.948 118.609L109.002 118.346ZM53.3609 17.8809L53.6159 16.8958L52.6814 16.6545L52.4145 17.6181L53.3609 17.8809ZM60.4867 80.5744L59.6297 81.0897L59.6297 81.0897L60.4867 80.5744ZM101.019 56.1678C111.764 75.5622 113.669 97.8162 108.055 118.083L109.948 118.609C115.701 97.8406 113.75 75.0227 102.733 55.1372L101.019 56.1678ZM53.1059 18.866C72.7459 23.9373 90.2779 36.7809 101.019 56.1678L102.733 55.1372C91.72 35.2595 73.7421 22.0927 53.6159 16.8958L53.1059 18.866ZM61.3437 80.0591C50.5986 60.6647 48.6935 38.4107 54.3072 18.1437L52.4145 17.6181C46.662 38.3863 48.6124 61.2042 59.6297 81.0897L61.3437 80.0591ZM109.257 117.361C89.6166 112.29 72.0847 99.4459 61.3437 80.0591L59.6297 81.0897C70.6426 100.967 88.6204 114.134 108.747 119.331L109.257 117.361Z" fill="#CCE1F4" mask="url(#path-13-outside-7)"/>
<mask id="path-15-outside-8" maskUnits="userSpaceOnUse" x="56.2366" y="-2.2315" width="78.0518" height="129.66" fill="black">
<rect fill="white" x="56.2366" y="-2.2315" width="78.0518" height="129.66"/>
<path fill-rule="evenodd" clip-rule="evenodd" d="M80.8216 6.42479C98.7427 16.7438 112.653 34.0893 118.277 55.9812C123.905 77.8916 120.162 100.187 109.568 118.479C91.6469 108.16 77.7369 90.8141 72.1131 68.9222C66.4845 47.0118 70.2273 24.7164 80.8216 6.42479Z"/>
</mask>
<path fill-rule="evenodd" clip-rule="evenodd" d="M80.8216 6.42479C98.7427 16.7438 112.653 34.0893 118.277 55.9812C123.905 77.8916 120.162 100.187 109.568 118.479C91.6469 108.16 77.7369 90.8141 72.1131 68.9222C66.4845 47.0118 70.2273 24.7164 80.8216 6.42479Z" fill="#F0627D" fill-opacity="0.8"/>
<path d="M80.8216 6.42479L81.3257 5.54939L80.4701 5.05679L79.9651 5.9287L80.8216 6.42479ZM118.277 55.9812L119.24 55.7126L119.24 55.7126L118.277 55.9812ZM109.568 118.479L109.064 119.354L109.919 119.847L110.424 118.975L109.568 118.479ZM72.1131 68.9222L73.0763 68.6537L72.1131 68.9222ZM80.3174 7.30019C98.0194 17.493 111.758 34.6248 117.313 56.2497L119.24 55.7126C113.547 33.5538 99.466 15.9946 81.3257 5.54939L80.3174 7.30019ZM117.313 56.2497C122.873 77.8931 119.177 99.9141 108.712 117.983L110.424 118.975C121.148 100.46 124.937 77.8902 119.24 55.7126L117.313 56.2497ZM110.072 117.603C92.3702 107.41 78.6316 90.2786 73.0763 68.6537L71.1498 69.1908C76.8422 91.3496 90.9236 108.909 109.064 119.354L110.072 117.603ZM73.0763 68.6537C67.5164 47.0103 71.213 24.9893 81.678 6.92089L79.9651 5.9287C69.2416 24.4436 65.4526 47.0132 71.1498 69.1908L73.0763 68.6537Z" fill="#CCE1F4" mask="url(#path-15-outside-8)"/>
<mask id="path-17-inside-9" fill="white">
<path fill-rule="evenodd" clip-rule="evenodd" d="M109.198 118.174C123.934 103.362 133.057 82.848 133.057 60.1792C133.057 37.5104 123.934 16.996 109.198 2.1844C94.4614 16.996 85.3384 37.5104 85.3384 60.1792C85.3384 82.848 94.4614 103.362 109.198 118.174Z"/>
</mask>
<path fill-rule="evenodd" clip-rule="evenodd" d="M109.198 118.174C123.934 103.362 133.057 82.848 133.057 60.1792C133.057 37.5104 123.934 16.996 109.198 2.1844C94.4614 16.996 85.3384 37.5104 85.3384 60.1792C85.3384 82.848 94.4614 103.362 109.198 118.174Z" fill="#F0627D" fill-opacity="0.8"/>
<path d="M109.198 118.174L108.489 118.879L109.198 119.592L109.907 118.879L109.198 118.174ZM109.198 2.1844L109.907 1.4791L109.198 0.766569L108.489 1.4791L109.198 2.1844ZM132.057 60.1792C132.057 82.5746 123.045 102.838 108.489 117.469L109.907 118.879C124.823 103.887 134.057 83.1213 134.057 60.1792H132.057ZM108.489 2.8897C123.045 17.5204 132.057 37.7837 132.057 60.1792H134.057C134.057 37.2371 124.823 16.4716 109.907 1.4791L108.489 2.8897ZM86.3384 60.1792C86.3384 37.7837 95.3503 17.5204 109.907 2.8897L108.489 1.4791C93.5725 16.4716 84.3384 37.2371 84.3384 60.1792H86.3384ZM109.907 117.469C95.3503 102.838 86.3384 82.5746 86.3384 60.1792H84.3384C84.3384 83.1213 93.5725 103.887 108.489 118.879L109.907 117.469Z" fill="#CCE1F4" mask="url(#path-17-inside-9)"/>
<path d="M52.509 175V149.044H55.425V172.084H78.429V175H52.509ZM84.7037 175C83.5037 175 82.4717 174.58 81.6077 173.74C80.7677 172.876 80.3477 171.844 80.3477 170.644V158.476C80.3477 157.276 80.7677 156.256 81.6077 155.416C82.4717 154.552 83.5037 154.12 84.7037 154.12H97.2317C98.4557 154.12 99.4877 154.552 100.328 155.416C101.192 156.256 101.624 157.276 101.624 158.476V170.644C101.624 171.844 101.192 172.876 100.328 173.74C99.4877 174.58 98.4557 175 97.2317 175H84.7037ZM84.7037 172.048H97.2317C97.6157 172.048 97.9397 171.916 98.2037 171.652C98.4917 171.364 98.6357 171.028 98.6357 170.644V158.476C98.6357 158.092 98.4917 157.768 98.2037 157.504C97.9397 157.216 97.6157 157.072 97.2317 157.072H84.7037C84.3197 157.072 83.9837 157.216 83.6957 157.504C83.4317 157.768 83.2997 158.092 83.2997 158.476V170.644C83.2997 171.028 83.4317 171.364 83.6957 171.652C83.9837 171.916 84.3197 172.048 84.7037 172.048ZM108.858 175C107.634 175 106.602 174.58 105.762 173.74C104.922 172.876 104.502 171.844 104.502 170.644V147.28H107.454V154.12H116.49V157.072H107.454V170.644C107.454 171.028 107.586 171.364 107.85 171.652C108.138 171.916 108.474 172.048 108.858 172.048H116.49V175H108.858ZM123.623 175C122.423 175 121.391 174.58 120.527 173.74C119.687 172.876 119.267 171.844 119.267 170.644V154.12H122.219V170.644C122.219 171.028 122.351 171.364 122.615 171.652C122.903 171.916 123.239 172.048 123.623 172.048H136.151C136.535 172.048 136.871 171.916 137.159 171.652C137.447 171.364 137.591 171.028 137.591 170.644V154.12H140.543V170.644C140.543 171.844 140.111 172.876 139.247 173.74C138.407 174.58 137.375 175 136.151 175H123.623ZM147.947 175C146.747 175 145.715 174.58 144.851 173.74C144.011 172.876 143.591 171.844 143.591 170.644V170.356H146.543V170.644C146.543 171.028 146.675 171.364 146.939 171.652C147.227 171.916 147.563 172.048 147.947 172.048H160.475C160.859 172.048 161.183 171.916 161.447 171.652C161.735 171.364 161.879 171.028 161.879 170.644V167.44C161.879 167.056 161.735 166.732 161.447 166.468C161.183 166.18 160.859 166.036 160.475 166.036H147.947C146.747 166.036 145.715 165.616 144.851 164.776C144.011 163.912 143.591 162.88 143.591 161.68V158.476C143.591 157.276 144.011 156.256 144.851 155.416C145.715 154.552 146.747 154.12 147.947 154.12H160.475C161.699 154.12 162.731 154.552 163.571 155.416C164.435 156.256 164.867 157.276 164.867 158.476V158.764H161.879V158.476C161.879 158.092 161.735 157.768 161.447 157.504C161.183 157.216 160.859 157.072 160.475 157.072H147.947C147.563 157.072 147.227 157.216 146.939 157.504C146.675 157.768 146.543 158.092 146.543 158.476V161.68C146.543 162.064 146.675 162.4 146.939 162.688C147.227 162.952 147.563 163.084 147.947 163.084H160.475C161.699 163.084 162.731 163.516 163.571 164.38C164.435 165.22 164.867 166.24 164.867 167.44V170.644C164.867 171.844 164.435 172.876 163.571 173.74C162.731 174.58 161.699 175 160.475 175H147.947Z" fill="black"/>
</svg>
