<svg width="962" height="962" viewBox="0 0 962 962" fill="none" xmlns="http://www.w3.org/2000/svg">
<rect width="962" height="962" rx="481" fill="#BDE0FE"/>
<path d="M435.16 596.094L689.6 453.065L729.498 470.379L722.723 516.299L456.238 617.172L435.16 596.094Z" fill="#B1E4F9"/>
<path d="M412.576 573.511L641.422 386.821L689.6 401.876V453.065L435.16 596.094L412.576 573.511Z" fill="#D3EFFB"/>
<path d="M365.904 526.838L508.933 272.398L491.619 232.5L445.699 239.275L344.826 505.76L365.904 526.838Z" fill="#B1E4F9"/>
<path d="M388.487 549.422L575.177 320.576L560.122 272.398H508.933L365.904 526.838L388.487 549.422Z" fill="#D3EFFB"/>
<path d="M396.015 701.484C358.598 738.902 297.932 738.902 260.514 701.484C223.097 664.067 223.097 603.401 260.514 565.983L308.692 517.805L444.193 653.306L396.015 701.484Z" fill="#F4FBFF"/>
<path d="M422.363 631.475L374.185 679.653C340.484 713.354 287.927 716.695 250.479 689.689C253.457 693.818 256.798 697.767 260.515 701.484C297.932 738.901 358.598 738.901 396.016 701.484L444.194 653.306L422.363 631.475Z" fill="#D3EFFB"/>
<path d="M284.642 541.851L420.123 677.332L396.037 701.417L260.557 565.937L284.642 541.851Z" fill="#DF75A5"/>
<path d="M374.121 679.623L398.207 655.538L420.034 677.365L395.948 701.451L374.121 679.623Z" fill="#DD5790"/>
<path d="M400.532 561.466L388.487 549.422L575.177 320.576L630.883 331.115L641.422 386.821L412.576 573.511L400.532 561.466Z" fill="#F4FBFF"/>
<path d="M732.483 463.499L697.105 448.146V401.876C697.105 398.595 694.973 395.695 691.841 394.716L647.956 381.007L638.253 329.72C637.68 326.689 635.308 324.318 632.278 323.745L580.994 314.042L567.28 270.16C566.301 267.029 563.402 264.897 560.121 264.897H513.859L498.496 229.513C497.144 226.402 493.872 224.587 490.522 225.08L444.609 231.85C441.917 232.247 439.651 234.071 438.688 236.615L414.135 301.481C412.669 305.355 414.62 309.685 418.495 311.152C419.369 311.482 420.267 311.639 421.15 311.639C424.178 311.639 427.03 309.792 428.166 306.792L451.158 246.048L487.026 240.758L500.574 271.962L364.213 514.539L353.552 503.879L415.773 339.526C417.239 335.652 415.288 331.322 411.413 329.855C407.543 328.393 403.209 330.339 401.742 334.215L338.373 501.605L320.737 519.241L313.997 512.501C311.067 509.573 306.319 509.573 303.389 512.501L255.23 560.659C255.223 560.666 255.216 560.671 255.21 560.677C255.201 560.686 255.194 560.695 255.186 560.704C214.93 600.989 214.938 666.513 255.211 706.787C275.352 726.928 301.808 736.999 328.265 736.999C354.71 736.999 381.155 726.937 401.294 706.814C401.303 706.805 401.312 706.798 401.321 706.79C401.328 706.783 401.333 706.776 401.339 706.77L449.498 658.611C452.427 655.681 452.427 650.933 449.498 648.003L442.758 641.263L460.402 623.619L725.378 523.317C727.922 522.353 729.746 520.088 730.143 517.397L736.918 471.478C737.413 468.119 735.595 464.849 732.483 463.499V463.499ZM633.222 383.83L413.087 563.414L398.584 548.911L578.168 328.776L624.463 337.535L633.222 383.83ZM387.052 585.555L400.532 572.075L416.272 587.814L402.791 601.295L387.052 585.555ZM360.704 559.207L374.184 545.727L389.924 561.466L376.444 574.946L360.704 559.207ZM513.32 279.898H554.607L566.814 318.961L387.922 538.248L375.229 525.556L513.32 279.898ZM344.827 516.368L363.576 535.118L350.096 548.598L331.346 529.848L344.827 516.368ZM265.819 696.179C233.173 663.534 231.501 611.493 260.756 576.832L331.297 647.373C332.762 648.837 334.682 649.569 336.601 649.569C338.52 649.569 340.44 648.837 341.905 647.373C344.834 644.443 344.834 639.695 341.905 636.765L271.123 565.983L284.604 552.502L409.497 677.395L396.016 690.875L366.658 661.517C363.728 658.589 358.98 658.589 356.05 661.517C353.121 664.447 353.121 669.195 356.05 672.125L385.167 701.242C350.505 730.499 298.464 728.826 265.819 696.179V696.179ZM420.105 666.786L295.212 541.893L308.693 528.412L433.586 653.305L420.105 666.786ZM413.399 611.902L426.88 598.421L445.629 617.172L432.149 630.652L413.399 611.902ZM715.946 510.845L458.115 608.442L447.459 597.786L541.635 544.848C545.247 542.818 546.528 538.245 544.499 534.634C542.469 531.022 537.897 529.741 534.285 531.77L436.443 586.768L423.75 574.075L643.033 395.186L682.104 407.391V448.672L564.797 514.618C561.186 516.648 559.905 521.221 561.934 524.833C563.311 527.281 565.857 528.659 568.48 528.659C569.724 528.659 570.987 528.349 572.149 527.696L690.028 461.428L721.238 474.972L715.946 510.845Z" fill="black"/>
</svg>
