<svg width="962" height="962" viewBox="0 0 962 962" fill="none" xmlns="http://www.w3.org/2000/svg">
<rect width="962" height="962" rx="481" fill="#BDE0FE"/>
<path d="M321.633 406.845C275.199 406.845 237.437 369.059 237.437 322.633C237.437 276.207 275.198 238.428 321.633 238.428C368.068 238.428 405.829 276.198 405.829 322.624C405.829 369.05 368.059 406.845 321.633 406.845Z" fill="#00CFFF"/>
<path d="M321.633 238.428C368.067 238.428 405.829 276.198 405.829 322.624C405.829 369.05 368.059 406.844 321.633 406.844" fill="#00B7FF"/>
<path d="M321.633 246.849C363.491 246.849 397.425 280.775 397.425 322.633C397.425 364.491 363.491 398.417 321.633 398.417C279.783 398.417 245.849 364.491 245.849 322.633C245.849 280.775 279.775 246.849 321.633 246.849ZM321.633 230C270.559 230 229.008 271.551 229.008 322.633C229.008 373.715 270.551 415.266 321.633 415.266C372.715 415.266 414.266 373.715 414.266 322.633C414.266 271.551 372.707 230 321.633 230Z" fill="#1791BC"/>
<path d="M321.633 269.479C350.99 269.479 374.794 293.275 374.794 322.648" stroke="#1791BC" stroke-miterlimit="10" stroke-linecap="round" stroke-linejoin="round"/>
<path d="M321.648 375.786C292.275 375.786 268.479 351.99 268.479 322.633" stroke="#1791BC" stroke-miterlimit="10" stroke-linecap="round" stroke-linejoin="round"/>
<path d="M321.633 290.739C339.238 290.739 353.527 305.012 353.527 322.633" stroke="#1791BC" stroke-miterlimit="10" stroke-linecap="round" stroke-linejoin="round"/>
<path d="M321.648 354.526C304.019 354.526 289.746 340.253 289.746 322.632" stroke="#1791BC" stroke-miterlimit="10" stroke-linecap="round" stroke-linejoin="round"/>
<path d="M321.633 341.576C332.095 341.576 340.577 333.094 340.577 322.632C340.577 312.17 332.095 303.688 321.633 303.688C311.171 303.688 302.689 312.17 302.689 322.632C302.689 333.094 311.171 341.576 321.633 341.576Z" fill="#093568"/>
<path d="M500.644 462.936C511.325 473.625 511.325 490.954 500.644 501.643C489.963 512.332 472.618 512.332 461.929 501.643C451.247 490.954 308.344 330.722 319.033 320.025C329.706 309.336 489.962 452.247 500.644 462.936Z" fill="#093568"/>
<path d="M319.041 320.033C329.706 309.344 489.962 452.247 500.651 462.944C511.34 473.641 511.332 490.962 500.651 501.651" fill="#041D35"/>
<path d="M640.49 406.845C686.924 406.845 724.694 369.059 724.694 322.633C724.694 276.207 686.925 238.428 640.49 238.428C594.055 238.428 556.286 276.198 556.286 322.632C556.286 369.066 594.064 406.845 640.49 406.845Z" fill="#00CFFF"/>
<path d="M640.49 238.428C594.056 238.428 556.286 276.198 556.286 322.624C556.286 369.05 594.064 406.836 640.49 406.836" fill="#00B7FF"/>
<path d="M640.49 246.849C682.332 246.849 716.274 280.775 716.274 322.633C716.274 364.491 682.332 398.417 640.49 398.417C598.632 398.417 564.69 364.491 564.69 322.633C564.69 280.775 598.632 246.849 640.49 246.849ZM640.49 230C589.416 230 547.857 271.551 547.857 322.633C547.857 373.715 589.408 415.266 640.49 415.266C691.572 415.266 733.123 373.715 733.123 322.633C733.123 271.551 691.572 230 640.49 230Z" fill="#1791BC"/>
<path d="M640.49 269.479C611.133 269.479 587.329 293.275 587.329 322.648" stroke="#1791BC" stroke-miterlimit="10" stroke-linecap="round" stroke-linejoin="round"/>
<path d="M640.475 375.786C669.848 375.786 693.644 351.99 693.644 322.633" stroke="#1791BC" stroke-miterlimit="10" stroke-linecap="round" stroke-linejoin="round"/>
<path d="M640.49 290.739C622.885 290.739 608.596 305.012 608.596 322.633" stroke="#1791BC" stroke-miterlimit="10" stroke-linecap="round" stroke-linejoin="round"/>
<path d="M640.475 354.526C658.104 354.526 672.377 340.253 672.377 322.632" stroke="#1791BC" stroke-miterlimit="10" stroke-linecap="round" stroke-linejoin="round"/>
<path d="M640.49 341.584C650.957 341.584 659.442 333.099 659.442 322.632C659.442 312.165 650.957 303.68 640.49 303.68C630.023 303.68 621.538 312.165 621.538 322.632C621.538 333.099 630.023 341.584 640.49 341.584Z" fill="#093568"/>
<path d="M461.48 462.936C450.799 473.625 450.799 490.954 461.48 501.643C472.153 512.332 489.506 512.332 500.195 501.643C510.868 490.954 653.779 330.722 643.098 320.025C632.417 309.328 472.153 452.247 461.48 462.936Z" fill="#093568"/>
<path d="M643.09 320.033C632.409 309.344 472.153 452.247 461.472 462.944C450.791 473.633 450.791 490.962 461.472 501.651" fill="#041D35"/>
<path d="M640.483 555.971C686.91 555.971 724.687 593.757 724.687 640.183C724.687 686.609 686.901 724.379 640.483 724.379C594.049 724.379 556.279 686.609 556.279 640.183C556.279 593.757 594.056 555.971 640.483 555.971Z" fill="#00CFFF"/>
<path d="M640.483 724.387C594.049 724.387 556.279 686.617 556.279 640.191C556.279 593.765 594.057 555.979 640.483 555.979" fill="#00B7FF"/>
<path d="M640.483 715.967C598.625 715.967 564.691 682.041 564.691 640.183C564.691 598.325 598.625 564.399 640.483 564.399C682.333 564.399 716.275 598.325 716.275 640.183C716.275 682.041 682.341 715.967 640.483 715.967ZM640.483 732.815C691.565 732.815 733.108 691.264 733.108 640.182C733.108 589.1 691.573 547.549 640.483 547.549C589.417 547.549 547.85 589.1 547.85 640.182C547.85 691.264 589.417 732.815 640.483 732.815Z" fill="#1791BC"/>
<path d="M640.483 693.336C611.134 693.336 587.322 669.54 587.322 640.167" stroke="#1791BC" stroke-miterlimit="10" stroke-linecap="round" stroke-linejoin="round"/>
<path d="M640.459 587.029C669.832 587.029 693.628 610.825 693.628 640.183" stroke="#1791BC" stroke-miterlimit="10" stroke-linecap="round" stroke-linejoin="round"/>
<path d="M640.483 672.076C622.886 672.076 608.589 657.803 608.589 640.182" stroke="#1791BC" stroke-miterlimit="10" stroke-linecap="round" stroke-linejoin="round"/>
<path d="M640.459 608.289C658.095 608.289 672.368 622.562 672.368 640.183" stroke="#1791BC" stroke-miterlimit="10" stroke-linecap="round" stroke-linejoin="round"/>
<path d="M640.483 659.127C650.945 659.127 659.427 650.645 659.427 640.183C659.427 629.721 650.945 621.239 640.483 621.239C630.021 621.239 621.539 629.721 621.539 640.183C621.539 650.645 630.021 659.127 640.483 659.127Z" fill="#093568"/>
<path d="M461.48 499.879C450.791 489.19 450.791 471.861 461.48 461.172C472.153 450.483 489.506 450.483 500.195 461.172C510.86 471.861 653.771 632.093 643.082 642.79C632.409 653.479 472.153 510.568 461.48 499.879Z" fill="#093568"/>
<path d="M643.074 642.782C632.409 653.471 472.153 510.568 461.472 499.871C450.783 489.182 450.783 471.853 461.472 461.164" fill="#041D35"/>
<path d="M321.625 555.971C275.191 555.971 237.421 593.757 237.421 640.183C237.421 686.609 275.199 724.379 321.625 724.379C368.051 724.379 405.829 686.609 405.829 640.183C405.829 593.757 368.043 555.971 321.625 555.971Z" fill="#00CFFF"/>
<path d="M321.625 724.387C368.052 724.387 405.829 686.617 405.829 640.191C405.829 593.765 368.043 555.979 321.625 555.979" fill="#00B7FF"/>
<path d="M321.625 715.967C279.775 715.967 245.833 682.041 245.833 640.183C245.833 598.325 279.775 564.399 321.625 564.399C363.483 564.399 397.417 598.325 397.417 640.183C397.417 682.041 363.483 715.967 321.625 715.967ZM321.625 732.815C372.707 732.815 414.258 691.264 414.258 640.182C414.258 589.1 372.715 547.549 321.625 547.549C270.559 547.55 229 589.101 229 640.183C229 691.265 270.551 732.815 321.625 732.815Z" fill="#1791BC"/>
<path d="M321.625 693.336C350.99 693.336 374.786 669.54 374.786 640.167" stroke="#1791BC" stroke-miterlimit="10" stroke-linecap="round" stroke-linejoin="round"/>
<path d="M321.64 587.029C292.267 587.029 268.471 610.825 268.471 640.183" stroke="#1791BC" stroke-miterlimit="10" stroke-linecap="round" stroke-linejoin="round"/>
<path d="M321.625 672.076C339.238 672.076 353.519 657.803 353.519 640.182" stroke="#1791BC" stroke-miterlimit="10" stroke-linecap="round" stroke-linejoin="round"/>
<path d="M321.64 608.289C304.011 608.289 289.738 622.562 289.738 640.183" stroke="#1791BC" stroke-miterlimit="10" stroke-linecap="round" stroke-linejoin="round"/>
<path d="M321.625 659.127C332.087 659.127 340.569 650.645 340.569 640.183C340.569 629.721 332.087 621.239 321.625 621.239C311.163 621.239 302.681 629.721 302.681 640.183C302.681 650.645 311.163 659.127 321.625 659.127Z" fill="#093568"/>
<path d="M500.644 499.879C511.317 489.19 511.317 471.861 500.644 461.172C489.963 450.483 472.618 450.483 461.929 461.172C451.247 471.861 308.336 632.093 319.017 642.79C329.699 653.487 489.962 510.568 500.644 499.879Z" fill="#093568"/>
<path d="M319.025 642.782C329.706 653.471 489.962 510.568 500.651 499.871C511.324 489.182 511.324 471.853 500.651 461.164" fill="#041D35"/>
<path d="M554.167 481.408C554.167 455.17 560.429 432.689 569.346 423.205V393.123H540.879C532.585 402.938 508.954 410.027 481.062 410.027C453.17 410.027 429.539 402.946 421.245 393.123H392.778V423.205C401.695 432.689 407.957 455.17 407.957 481.408C407.957 507.646 401.695 530.127 392.778 539.611V569.693H421.245C429.539 559.878 453.17 552.789 481.062 552.789C508.954 552.789 532.585 559.87 540.879 569.693H569.346V539.611C560.429 530.126 554.167 507.646 554.167 481.408Z" fill="#041D35"/>
<path d="M450.578 505.527C450.578 506.26 449.987 506.842 449.263 506.842H430.886C430.153 506.842 429.571 506.259 429.571 505.527C429.571 504.794 430.154 504.212 430.886 504.212H449.263C449.987 504.219 450.578 504.802 450.578 505.527Z" fill="#00B7FF"/>
<path d="M450.578 518.004C450.578 518.737 449.987 519.319 449.263 519.319H430.886C430.153 519.319 429.571 518.736 429.571 518.004C429.571 517.271 430.154 516.689 430.886 516.689H449.263C449.987 516.688 450.578 517.271 450.578 518.004Z" fill="#00B7FF"/>
<path d="M450.578 530.473C450.578 531.206 449.987 531.788 449.263 531.788H430.886C430.153 531.788 429.571 531.205 429.571 530.473C429.571 529.74 430.154 529.158 430.886 529.158H449.263C449.987 529.157 450.578 529.74 450.578 530.473Z" fill="#00B7FF"/>
<path d="M514.42 463.676C522.394 463.676 528.858 457.212 528.858 449.238C528.858 441.264 522.394 434.8 514.42 434.8C506.446 434.8 499.982 441.264 499.982 449.238C499.982 457.212 506.446 463.676 514.42 463.676Z" fill="#00B7FF"/>
</svg>
