<svg width="409" height="314" viewBox="0 0 409 314" fill="none" xmlns="http://www.w3.org/2000/svg">
<path d="M80.9393 276.136H368.204C386.551 257.163 397.845 231.327 397.845 202.85C397.845 148.441 356.633 103.663 303.723 98.016C282.515 40.7885 227.442 -2.45293e-05 162.837 -2.45293e-05C79.8796 -2.45293e-05 12.6292 67.2504 12.6292 150.208C12.6292 202.951 39.8181 249.337 80.9393 276.136Z" fill="#CCE1F4"/>
<path d="M3.28137 89.1596C3.28137 89.1596 43.1874 56.3832 63.2798 106.613C63.2798 106.613 92.0673 105.917 110.08 147.839C110.08 147.839 142.964 117.05 151.187 162.849C151.187 162.849 197.882 149.673 207.037 207.928C207.037 207.928 240.368 206.09 238.742 249.565C238.742 249.565 284.954 214.876 317.019 272.341" stroke="white" stroke-width="1.33333" stroke-miterlimit="10"/>
<path d="M100.358 130.235C100.358 130.235 108.285 84.1759 160.15 99.2968C160.15 99.2968 177.94 75.484 197.066 93.6977C197.066 93.6977 202.764 35.1427 267.758 55.7971C267.758 55.7971 274.114 35.0387 294.87 38.381" stroke="white" stroke-width="1.33333" stroke-miterlimit="10"/>
<path d="M357.949 164.231L371.399 215.231L353.071 164.16C343.866 164.526 334.033 167.857 323.976 175.872C314.199 183.663 307.739 193.378 303.612 203.802L360.612 241.986L300.603 212.962C291.203 248.201 303.906 287.311 303.906 287.311L397.845 276.257L409 196.941C409 196.941 387.229 166.336 357.949 164.231" fill="#AAC7E8"/>
<path d="M289.342 241.986L397.845 268.137L333.071 163.791" stroke="white" stroke-width="1.33333" stroke-miterlimit="10"/>
<path d="M133.393 175.256C145.02 181.583 146.939 210.38 146.939 210.38C146.939 210.38 129.811 184.325 96.1985 185.295C96.1985 185.295 110.699 162.906 133.393 175.256" fill="#67A3C1"/>
<path d="M9.93213 267.723L54.6047 282.288C54.6047 282.288 66.0948 243.933 82.0857 216.598L61.4832 221.225C68.9894 216.124 79.3997 211.388 87.4978 208.071C88.4807 206.656 89.4758 205.294 90.4826 204C110.691 178.023 133.393 175.256 133.393 175.256C54.9217 127.306 9.93213 267.723 9.93213 267.723Z" fill="#AAC7E8"/>
<path d="M27.9334 273.592C56.6629 243.217 70.9133 193.899 76.1289 171.789C33.448 194.336 9.93164 267.723 9.93164 267.723L27.9334 273.592Z" fill="#67A3C1"/>
<path d="M26.1017 280.348C26.1017 280.348 65.5351 146.63 129.555 170.627" stroke="white" stroke-width="1.33333" stroke-miterlimit="10"/>
<path d="M43.0086 130.413L55.989 112.867C60.1147 89.6363 62.2098 73.923 62.2098 73.923C6.64183 114.385 0.579224 223.405 0.579224 223.405L16.6317 258.608C34.5158 218.32 47.2921 160.3 54.6845 120.085L43.0086 130.413Z" fill="#AAC7E8"/>
<path d="M8.08682 173.947C1.79054 201.637 0.579224 223.405 0.579224 223.405L16.6317 258.608C31.9332 224.138 43.4918 176.696 51.1423 138.523C40.5256 144.719 23.4622 156.304 8.08682 173.947Z" fill="#67A3C1"/>
<path d="M62.2099 73.9229C62.2099 73.9229 44.7622 92.595 28.6337 143.698C12.5054 194.801 1.96301 249.45 1.96301 249.45" stroke="white" stroke-width="1.33333" stroke-miterlimit="10"/>
<path d="M50.2945 190.793C59.032 180.744 69.6164 172.578 78.4456 166.714C93.1687 135.019 103.011 109.203 103.011 109.203C87.0183 115.329 73.2764 123.674 61.53 133.04L56.6253 155.965C56.2347 149.773 56.5766 142.763 57.1079 136.684C15.9068 171.915 1.22058 218.871 1.22058 218.871L19.2018 265.63C37.8499 245.745 56.9889 211.28 72.2616 179.753L50.2945 190.793Z" fill="#AAC7E8"/>
<path d="M103.011 109.203C103.011 109.203 27.2917 172.639 4.95264 260.899" stroke="white" stroke-width="1.33333" stroke-miterlimit="10"/>
<path d="M127.135 270.736C77.887 270.736 37.9639 273.763 37.9639 277.496C37.9639 281.23 77.887 284.256 127.135 284.256C176.383 284.256 216.306 281.23 216.306 277.496C216.306 273.763 176.383 270.736 127.135 270.736Z" fill="#67A3C1"/>
<path d="M245.441 272.28C172.971 272.28 114.222 275.716 114.222 279.956C114.222 284.196 172.971 287.633 245.441 287.633C317.911 287.633 376.659 284.196 376.659 279.956C376.659 275.716 317.911 272.28 245.441 272.28Z" fill="#67A3C1"/>
<path d="M179.32 279.956C133.024 279.956 95.4941 283.393 95.4941 287.633C95.4941 291.873 133.024 295.31 179.32 295.31C225.615 295.31 263.145 291.873 263.145 287.633C263.145 283.393 225.615 279.956 179.32 279.956Z" fill="#67A3C1"/>
<path d="M148.242 273.418L189.497 223.064L186.902 216.979L137.086 257.921L148.242 273.418Z" fill="#FAD638"/>
<path d="M183.706 219.12L188.827 224.241C192.407 224.671 196.939 222.917 199.309 220.546L187.401 208.638C185.031 211.009 183.276 215.54 183.706 219.12Z" fill="#2E353D"/>
<path d="M197.722 221.592L186.262 210.132C185.926 209.797 185.926 209.253 186.262 208.917L187.477 207.703C187.812 207.367 188.356 207.367 188.692 207.703L200.151 219.162C200.487 219.498 200.487 220.042 200.151 220.378L198.937 221.592C198.601 221.928 198.057 221.928 197.722 221.592Z" fill="#E3BA22"/>
<path d="M86.0841 252.325L73.773 223.827C73.2019 222.506 72.9122 221.105 72.9122 219.665V203.955C72.9122 198.169 77.6194 193.462 83.4059 193.462H132.235C135.531 193.462 138.569 194.963 140.571 197.583C142.573 200.202 143.225 203.527 142.361 206.708L136.309 228.973L131.635 227.702L137.687 205.437C138.153 203.725 137.802 201.934 136.724 200.524C135.646 199.114 134.01 198.305 132.235 198.305H83.4059C80.2902 198.305 77.7556 200.84 77.7556 203.955V219.665C77.7556 220.44 77.9115 221.195 78.2188 221.906L90.5301 250.405L86.0841 252.325Z" fill="#E3BA22"/>
<path d="M132.073 221.844H94.8759C92.6664 221.844 90.6428 223.04 89.537 224.953C80.0917 241.289 77.2066 263.39 76.3347 274.272C76.0488 277.84 78.8698 280.885 82.4492 280.885H144.5C148.08 280.885 150.901 277.84 150.615 274.272C149.743 263.39 146.858 241.289 137.413 224.953C136.307 223.04 134.283 221.844 132.073 221.844Z" fill="#FAD638"/>
<path d="M118.975 236.733H107.974C103.768 236.733 100.358 240.143 100.358 244.349V246.641C100.358 242.435 103.768 239.025 107.974 239.025H118.975C123.182 239.025 126.591 242.435 126.591 246.641V244.349C126.591 240.143 123.182 236.733 118.975 236.733Z" fill="#E3BA22"/>
<path d="M107.974 267.917H118.975C123.182 267.917 126.592 264.507 126.592 260.301V258.009C126.592 262.215 123.182 265.625 118.975 265.625H107.974C103.768 265.625 100.358 262.215 100.358 258.009V260.301C100.358 264.507 103.768 267.917 107.974 267.917Z" fill="#E3BA22"/>
<path d="M140.936 243.566L128.749 253.599C128.749 253.599 142.036 273.804 147.403 276.709C152.578 279.511 160.118 276.79 160.118 276.79C160.118 276.79 166.245 271.621 166.406 265.738C166.574 259.638 155.719 238.028 155.719 238.028L140.936 243.566Z" fill="#2E353D"/>
<path d="M116.954 202.027C112.919 204.357 117.415 211.888 122.804 220.202C128.194 228.515 134.282 237.184 137.88 243.415L140.107 242.129L142.334 240.843C138.736 234.612 134.274 225.005 129.768 216.181C125.263 207.357 120.989 199.697 116.954 202.027Z" fill="#67A3C1"/>
<path d="M140.936 243.566L151.057 261.095C151.063 261.091 151.07 261.09 151.076 261.086L151.074 261.082C155.566 258.409 150.162 247.185 146.92 241.324L140.936 243.566Z" fill="#181E23"/>
<path d="M142.067 239.314L139.387 240.861L139.369 240.872L136.689 242.419C136.689 242.419 147.936 262.785 151.046 261.098L151.049 261.102C151.052 261.1 151.053 261.096 151.056 261.095C151.06 261.093 151.064 261.093 151.067 261.091L151.064 261.088C154.08 259.237 142.067 239.314 142.067 239.314Z" fill="#2E353D"/>
<path d="M135.964 241.941L138.197 245.81L144.25 242.316L142.016 238.447L135.964 241.941Z" fill="#AAC7E8"/>
<path d="M186.757 200.634C186.757 200.634 180.159 193.462 178.279 193.462C176.398 193.462 172.891 196.926 172.325 197.048C170.549 197.43 164.387 197.849 163.656 198.057C162.925 198.266 162.194 200.564 162.194 201.086C162.194 201.608 163.447 203.071 163.447 203.071C163.447 203.071 161.045 204.22 161.567 206.204C162.089 208.189 165.014 208.711 165.014 208.711C165.014 208.711 163.865 210.382 164.283 211.635C164.7 212.889 167.52 213.933 167.52 213.933C167.52 213.933 167.625 215.291 168.461 216.231C169.296 217.171 173.161 218.111 176.921 218.111C180.681 218.111 190.29 213.113 190.29 213.113L186.757 200.634Z" fill="#7A4335"/>
<path d="M167.759 148.515C167.759 148.515 166.328 143.182 163.232 140.941C160.136 138.701 154.969 139.198 152.542 136.895C152.542 136.895 154.222 144.365 159.202 147.042C164.182 149.718 167.759 148.515 167.759 148.515Z" fill="#AABC42"/>
<path d="M170.638 173.393C170.638 173.393 172.249 167.385 166.589 161.526C163.188 158.005 155.329 159.274 155.329 159.274C155.329 159.274 157.748 160.978 160.083 165.339C162.419 169.7 163.845 174.313 170.638 173.393Z" fill="#AABC42"/>
<path d="M168.264 135.174C168.264 135.174 162.849 133.51 163.685 122.125C163.685 122.125 171.901 128.017 168.264 135.174Z" fill="#AABC42"/>
<path d="M179.565 146.878C179.565 146.878 181.137 139.776 179.565 135.703C177.994 131.629 175.278 130.05 174.234 126.871C174.234 126.871 173.189 133.823 174.234 138.627C175.278 143.432 179.565 146.878 179.565 146.878Z" fill="#AABC42"/>
<path d="M183.565 151.111C183.565 151.111 187.499 151.422 192.303 149.281C197.108 147.14 198.57 142.283 203.061 140.508C203.061 140.508 197.066 138.314 190.945 140.508C184.121 142.953 183.565 151.111 183.565 151.111Z" fill="#AABC42"/>
<path d="M178.563 173.031L185.661 135.271C185.661 135.271 181.151 150.278 178.367 166.225C177.782 158.115 165.622 126.87 165.622 126.87C165.622 126.87 172.145 146.878 175.589 160.328C176.747 164.849 176.846 178.22 176.634 183.748C175.879 211.185 179.701 248.435 179.408 280.885H182.763C182.763 280.885 181.858 241.193 179.576 221.14C177.695 204.623 178.607 185.278 178.563 173.031Z" fill="#2E353D"/>
<path d="M181.108 154.947C181.8 153.259 182.787 151.77 183.905 150.38C185.029 148.999 186.304 147.747 187.691 146.638C188.039 146.364 188.405 146.11 188.761 145.846C188.94 145.716 189.116 145.581 189.3 145.456L189.863 145.103C190.24 144.87 190.61 144.626 190.992 144.402L192.166 143.779L192.752 143.468L193.359 143.2L194.574 142.665C194.774 142.57 194.983 142.499 195.192 142.426L195.817 142.204L197.066 141.761L195.828 142.232L195.209 142.468C195.002 142.546 194.795 142.621 194.597 142.721L193.398 143.281L192.799 143.562L192.222 143.886L191.069 144.532C190.694 144.763 190.331 145.014 189.962 145.254L189.411 145.618C189.232 145.745 189.061 145.884 188.885 146.016C188.538 146.287 188.182 146.546 187.843 146.825C186.494 147.955 185.264 149.221 184.189 150.605C184.056 150.779 183.917 150.949 183.789 151.126L183.415 151.667C183.158 152.021 182.94 152.401 182.708 152.771C182.271 153.523 181.859 154.31 181.564 155.104L181.108 154.947Z" fill="#2E353D"/>
<path d="M179.842 160.653C179.955 158.525 179.966 156.379 179.921 154.241C179.87 152.101 179.753 149.963 179.55 147.831C179.333 145.701 179.04 143.579 178.621 141.478C178.178 139.383 177.617 137.311 176.845 135.308C177.654 137.296 178.256 139.361 178.74 141.453C179.198 143.55 179.533 145.673 179.791 147.806C180.033 149.94 180.192 152.083 180.283 154.229C180.368 156.377 180.398 158.522 180.324 160.678L179.842 160.653Z" fill="#2E353D"/>
<path d="M174.974 156.519C173.812 154.863 172.476 153.298 171.08 151.811C169.678 150.325 168.202 148.904 166.637 147.585C165.077 146.262 163.458 145.003 161.753 143.868C160.068 142.7 158.283 141.689 156.478 140.716C158.301 141.653 160.109 142.631 161.819 143.768C163.551 144.871 165.199 146.103 166.792 147.4C168.389 148.693 169.9 150.093 171.341 151.561C172.779 153.034 174.146 154.569 175.373 156.247L174.974 156.519Z" fill="#2E353D"/>
<path d="M177.449 189.039C177.071 187.792 176.633 186.548 176.167 185.322C175.937 184.707 175.684 184.1 175.444 183.488L174.674 181.674C173.615 179.267 172.43 176.916 171.133 174.629C170.8 174.062 170.487 173.482 170.138 172.925L169.091 171.253C168.92 170.971 168.733 170.7 168.546 170.43L167.987 169.617L167.428 168.804C167.246 168.53 167.035 168.276 166.84 168.012L165.646 166.439C165.229 165.93 164.799 165.432 164.376 164.927L163.738 164.173L163.059 163.456L161.698 162.024L163.081 163.435L163.772 164.142L164.421 164.888C164.852 165.386 165.291 165.878 165.716 166.382L166.936 167.939C167.136 168.201 167.351 168.452 167.537 168.724L168.11 169.53L168.683 170.337C168.875 170.605 169.067 170.874 169.242 171.153L170.318 172.814C170.676 173.368 170.999 173.944 171.341 174.508C172.678 176.783 173.904 179.125 175.004 181.525L175.806 183.337C176.057 183.948 176.32 184.554 176.56 185.169C177.049 186.398 177.506 187.634 177.912 188.902L177.449 189.039Z" fill="#2E353D"/>
<path d="M254.591 280.885C254.591 280.885 241.763 271.138 226.31 268.699C226.31 268.699 211.671 256.906 207.225 256.57C202.78 256.233 197.44 256.57 197.44 256.57C197.44 256.57 186.273 243.479 172.928 246.723C159.582 249.967 140.618 268.699 140.618 268.699C140.618 268.699 134.647 263.753 128.326 273.78C128.326 273.78 121.302 269.609 103.391 280.885L132.863 283.902L124.837 286.453C124.837 286.453 137.887 292.024 172.583 292.024C207.28 292.024 227.822 287.564 227.822 287.564L206.723 284.256L254.591 280.885Z" fill="#CB6248"/>
<path d="M140.936 258.446C140.936 258.446 180.263 268.182 214.521 253.643" stroke="#E77F6B" stroke-width="1.33333" stroke-miterlimit="10"/>
<path d="M137.085 257.92C137.085 257.92 167.174 278.796 227.821 263.546" stroke="#E77F6B" stroke-width="1.33333" stroke-miterlimit="10"/>
<path d="M239.588 267.758C239.588 267.758 177.421 290.382 128.867 264.675" stroke="#E77F6B" stroke-width="1.33333" stroke-miterlimit="10"/>
<path d="M111.746 270.736C111.746 270.736 177.84 294.905 235.42 269.115" stroke="#E77F6B" stroke-width="1.33333" stroke-miterlimit="10"/>
<path d="M135.37 276.958C135.37 276.958 183.885 293.06 227.821 284.256" stroke="#E77F6B" stroke-width="1.33333" stroke-miterlimit="10"/>
<path d="M152.785 245.81C152.785 245.81 178.347 255.715 200.403 247.828" stroke="#E77F6B" stroke-width="1.33333" stroke-miterlimit="10"/>
<path d="M200.403 262.963C204.989 263.38 210.819 262.005 215.304 260.613C212.049 258.465 208.907 256.697 207.225 256.57C202.78 256.233 197.44 256.57 197.44 256.57C197.44 256.57 186.273 243.479 172.928 246.723C170.26 247.371 167.368 248.644 164.448 250.257L163.499 252.474C163.499 252.474 165.157 259.159 185.661 259.994C185.661 259.994 191.716 262.172 200.403 262.963" fill="#AF4630"/>
<path d="M186.757 200.634C186.757 200.634 180.159 193.462 178.279 193.462C176.398 193.462 172.638 196.56 172.325 197.048C171.489 198.579 172.116 200.959 172.325 204.939C172.534 208.92 172.847 209.338 174.727 207.875C176.607 206.413 176.951 202.131 175.891 199.415C175.891 199.415 178.069 205.767 183.083 208.649C185.153 209.839 187.347 209.779 189.21 209.3L186.757 200.634Z" fill="#915B3C"/>
<path d="M193.035 247.829C193.035 247.829 183.501 243.631 180.158 244.396C176.816 245.163 165.954 249.132 165.223 249.967C164.492 250.803 165.849 251.534 165.849 251.534C165.849 251.534 163.708 252.004 163.499 252.474C163.29 252.944 164.283 253.779 165.014 253.884C165.745 253.988 167.259 254.093 167.259 254.093C167.259 254.093 166.006 254.197 166.058 254.511C166.111 254.824 166.163 255.555 167.259 255.868C168.356 256.182 173.996 256.391 173.996 256.391C173.996 256.391 171.437 256.704 171.437 256.965C171.437 257.226 172.012 258.271 175.041 258.427C178.069 258.584 185.381 257.54 185.381 257.54C185.381 257.54 188.41 259.576 192.222 259.89C196.034 260.203 199.409 258.11 199.409 258.11L193.035 247.829Z" fill="#915B3C"/>
<path d="M165.16 250.928C165.402 251.292 165.849 251.534 165.849 251.534L179.079 248.435C179.079 248.435 169.338 249.793 165.16 250.928Z" fill="#CB6248"/>
<path d="M164.433 253.682C164.628 253.784 164.829 253.857 165.014 253.884C165.745 253.988 167.259 254.093 167.259 254.093L180.733 251.534C180.733 251.534 168.306 253.104 164.433 253.682Z" fill="#CB6248"/>
<path d="M173.996 256.391L182.422 254.493L169.612 256.152C171.588 256.301 173.996 256.391 173.996 256.391Z" fill="#CB6248"/>
<path d="M280.101 72.2694C280.101 72.2694 278.112 57.5076 289.69 58.2038C301.269 58.9002 307.683 74.2191 292.708 79.2324L280.101 72.2694Z" fill="#191847"/>
<path d="M279.038 73.7301C279.038 73.7301 284.138 67.4336 290.139 71.6778C295.329 75.3482 292.339 83.9015 292.339 83.9015L279.038 73.7301Z" fill="#61095B"/>
<path d="M255.151 104.996C255.151 104.996 254.563 111.322 253.375 115.158C252.725 117.257 257.031 115.963 259.015 113.665L255.151 104.996Z" fill="#7A4335"/>
<path d="M276.937 99.2968L303.906 115.938C303.906 115.938 302.05 129.43 295.362 135.527L273.272 115.176L276.937 99.2968Z" fill="#915B3C"/>
<path d="M273.825 115.685L284.783 125.78C286.25 120.657 287.197 113.292 283.813 106.458L273.825 115.685Z" fill="#7A4335"/>
<path d="M329.815 207.771C329.815 207.771 261.731 163.068 251.704 166.41C241.677 169.752 242.513 188.97 243.348 193.984C244.184 198.997 286.35 259.994 286.35 259.994C286.35 259.994 296.263 260.053 300.097 256.234L286.35 219.051C286.35 219.051 300.585 239.244 317.714 244.397C334.843 249.549 347.764 242.587 351.449 233.674C354.558 226.153 353.644 207.771 353.644 207.771H329.815Z" fill="#4B2E49"/>
<path d="M268.9 234.424C278.144 248.122 286.35 259.994 286.35 259.994C286.35 259.994 296.263 260.053 300.097 256.234L289.009 226.243L268.9 234.424Z" fill="#915B3C"/>
<path d="M293.645 129.618C293.645 129.618 261.453 170.099 256.578 173.686C251.704 177.272 186.757 200.634 186.757 200.634C186.757 200.634 185.694 209.263 190.29 213.113C190.29 213.113 253.749 202.612 268.9 193.69C284.051 184.768 308.171 150.672 308.171 150.672C308.171 150.672 308.012 132.515 293.645 129.618" fill="#915B3C"/>
<path d="M286.35 259.994C286.35 259.994 282.443 265.008 278.876 267.514C275.309 270.021 262.775 267.932 262.775 280.885H291.811C300.376 280.885 309.358 271.692 309.358 271.692C309.358 271.692 308.105 266.333 305.807 262.641C303.509 258.949 300.097 256.234 300.097 256.234L286.35 259.994Z" fill="#915B3C"/>
<path d="M309.358 271.692C309.358 271.692 308.105 266.333 305.807 262.641C304.784 260.997 303.541 259.549 302.476 258.446C301.127 260.591 301.838 264.944 301.838 264.944C295.78 269.268 289.305 268.56 289.305 268.56C290.807 263.303 287.809 261.797 285.164 261.433C283.737 263.108 281.236 265.856 278.876 267.514C275.309 270.021 262.775 267.932 262.775 280.885H291.812C300.376 280.885 309.358 271.692 309.358 271.692Z" fill="#CC5167"/>
<path d="M263.086 277.635C263.086 277.635 287.496 278.172 293.692 277.054C299.475 276.009 308.171 267.758 308.171 267.758" stroke="#2E353D" stroke-width="1.33333" stroke-miterlimit="10"/>
<path d="M276.496 245.622C278.077 247.941 279.533 250.071 280.818 251.948L300.097 256.234L296.332 246.049L276.496 245.622Z" fill="#2E353D"/>
<path d="M291.485 129.264C268.398 157.277 260.819 166.136 260.819 166.136C260.819 166.136 275.994 180.215 284.051 184.768C284.051 184.768 306.883 165.184 310.223 152.806C315.333 133.867 301.401 117.232 291.485 129.264Z" fill="#CC5167"/>
<path d="M302.758 115.158C302.758 115.158 324.351 121.111 331.871 137.404C339.391 153.698 357.721 207.771 357.721 207.771H311.693C311.693 207.771 281.737 178.765 278.395 166.232C275.052 153.698 291.606 128.809 291.606 128.809L302.758 115.158Z" fill="#F0627D"/>
<path d="M232.227 204.939C247.155 201.584 261.893 197.622 268.502 193.914L267.814 171.139C267.814 171.139 253.193 189.488 232.227 204.939Z" fill="#2E353D"/>
<path d="M290.469 135.174C290.469 135.174 265.429 177.281 252.804 191.552C240.18 205.824 193.035 247.829 193.035 247.829C193.035 247.829 192.967 255.493 199.409 258.11C199.409 258.11 247.601 229.511 268.643 210.259C289.684 191.007 306.389 153.44 306.389 153.44L290.469 135.174Z" fill="#915B3C"/>
<path d="M300.88 196.699C310.971 176.318 315.142 150.671 315.142 150.671L283.813 176.341C288.48 183.017 295.204 190.635 300.88 196.699Z" fill="#CC5167"/>
<path d="M290.469 135.174C290.469 135.174 279.096 154.299 267.814 171.139C270.815 176.901 276.223 186.242 283.101 193.69C296.846 174.898 306.389 153.44 306.389 153.44L290.469 135.174Z" fill="#7A4335"/>
<path d="M293.645 129.618C274.187 160.263 267.758 169.989 267.758 169.989C267.758 169.989 284.552 182.09 293.11 185.615C293.11 185.615 313.353 163.367 315.142 150.672C317.878 131.247 302.002 116.455 293.645 129.618Z" fill="#F0627D"/>
<path d="M329.59 244.397C333.839 246.646 341.585 244.397 351.449 252.661C351.449 252.661 347.084 271.137 337.837 276.135C328.59 281.134 315.108 280.883 315.108 280.883C315.108 280.883 313.596 274.886 316.345 271.137C319.094 267.388 327.091 264.145 327.091 261.018C327.091 257.892 323.592 253.643 323.592 253.643L329.59 244.397Z" fill="#915B3C"/>
<path d="M338.067 246.206C338.267 248.566 340.586 250.644 340.586 250.644C340.622 254.506 335.088 258.641 335.088 258.641C335.088 258.641 333.339 255.143 330.09 255.143C328.609 255.143 326.976 255.87 325.634 256.661C326.401 258.022 327.091 259.63 327.091 261.018C327.091 264.145 319.094 267.388 316.345 271.137C313.596 274.886 315.108 280.883 315.108 280.883C315.108 280.883 328.59 281.133 337.837 276.135C347.084 271.137 351.449 252.661 351.449 252.661C346.362 248.398 341.839 246.935 338.067 246.206Z" fill="#F0627D"/>
<path d="M312.283 207.771C312.283 207.771 230.012 203.679 228.116 215.543C226.219 227.407 233.739 238.826 243.348 244.397C252.957 249.967 323.592 253.643 323.592 253.643L328.84 245.554C328.84 245.554 364.924 256.025 357.721 207.771H312.283Z" fill="#915B3C"/>
<path d="M361.895 207.771H312.283C312.283 207.771 230.012 203.679 228.116 215.543C226.219 227.407 233.739 238.826 243.348 244.397C249.269 247.829 278.352 250.541 299.811 252.118L301.976 238.186C301.976 238.186 322.112 243.753 328.839 245.554C337.338 247.828 362.786 257.793 361.895 207.771Z" fill="#5B3758"/>
<path d="M328.84 245.554L256.578 225.736C256.578 225.736 259.921 230.053 272.315 233.395C284.709 236.737 328.84 245.554 328.84 245.554Z" fill="#432941"/>
<path d="M301.647 239.979C315.637 242.916 328.84 245.554 328.84 245.554L301.976 238.186L301.647 239.979Z" fill="#7A4335"/>
<path d="M335.557 207.771C335.557 207.771 337.184 221.002 331.987 226.244C326.07 232.211 242.885 221.558 242.885 221.558C242.885 221.558 244.811 231.976 253.166 235.645C261.522 239.314 300.836 244.397 300.836 244.397" stroke="#432941" stroke-width="1.33333" stroke-miterlimit="10"/>
<path d="M361.205 222.892L343.825 219.469C343.825 219.469 345.079 232.42 339.439 239.105L341.528 247.828" stroke="#432941" stroke-width="1.33333" stroke-miterlimit="10"/>
<path d="M343.939 223.23L360.612 226.742" stroke="#432941" stroke-width="1.33333" stroke-miterlimit="10"/>
<path d="M309.868 207.664C317.991 209.992 335.963 214.126 361.852 214.38" stroke="#432941" stroke-width="1.33333" stroke-miterlimit="10"/>
<path d="M314.742 278.394C314.742 278.394 331.919 277.75 337.559 272.319C343.199 266.887 349.233 250.955 349.233 250.955" stroke="#2E353D" stroke-width="1.33333" stroke-miterlimit="10"/>
<path d="M263.988 76.7599C248.724 79.5019 250.562 99.9806 258.773 117.876C266.985 135.771 280.202 123.961 287.054 108.537C293.906 93.112 289.102 72.2488 263.988 76.7599Z" fill="#915B3C"/>
<path d="M293.787 109.694C293.787 109.694 285.041 110.553 281.994 106.249C278.947 101.945 278.233 94.1334 268.502 92.4623C258.771 90.7911 258.389 84.1064 258.389 84.1064C258.389 84.1064 253.985 86.8221 252.531 92.0444C252.531 92.0444 242.441 91.0974 243.766 83.6888C245.298 75.1241 279.812 66.1416 289.885 75.1241C299.958 84.1064 293.787 109.694 293.787 109.694Z" fill="#191847"/>
<path d="M281.994 106.249C281.994 106.249 285.474 122.707 298.327 120.582C311.18 118.458 319.594 119.2 325.652 131.734C331.71 144.268 338.691 168.557 344.914 171.139C351.137 173.721 365.132 156.262 358.657 136.895C352.181 117.529 330.698 116.067 317.835 107.294C304.972 98.5201 297.568 80.7641 289.885 75.1242L281.994 106.249Z" fill="#191847"/>
<path d="M289.885 102.933C288.933 95.7652 284.791 94.2905 284.791 94.2905L282.135 106.823C282.438 107.981 283.271 110.739 284.906 113.506C287.61 111.837 290.615 108.429 289.885 102.933Z" fill="#191847"/>
<path d="M256.162 73.4748C256.162 73.4748 258.264 86.287 271.208 87.9582C284.152 89.6291 287.663 110.327 302.758 115.158C317.853 119.988 327.045 115.81 335.679 131.965C344.313 148.119 349.291 171.599 355.575 171.139" stroke="#10100F" stroke-width="1.33333" stroke-miterlimit="10"/>
<path d="M260.819 71.3931C260.819 71.3931 264.864 83.7802 286.067 86.5656C307.27 89.3509 302.535 109.544 324.26 117.412C345.984 125.28 359.912 141.434 360.329 153.968" stroke="#0E0D0B" stroke-width="1.33333" stroke-miterlimit="10"/>
<path d="M265.212 70.8029C265.212 70.8029 279.427 83.4102 301.46 77.3742" stroke="#0C0B0B" stroke-width="1.33333" stroke-miterlimit="10"/>
<path d="M253.309 75.1241C253.309 75.1241 245.074 86.2868 249.712 94.921" stroke="#10100F" stroke-width="1.33333" stroke-miterlimit="10"/>
<path d="M279.788 106.101C279.788 106.101 279.878 90.5026 284.791 94.2905C289.704 98.0785 290.813 109.691 282.403 111.66L279.788 106.101Z" fill="#915B3C"/>
<path d="M286.067 99.2967C286.067 99.2967 283.56 96.7444 282.934 98.1023C282.307 99.4601 282.64 107.973 284.197 108.155C285.754 108.338 286.118 104.265 286.118 104.265" stroke="#7A4335" stroke-width="1.33333" stroke-miterlimit="10"/>
</svg>