<svg width="962" height="962" viewBox="0 0 962 962" fill="none" xmlns="http://www.w3.org/2000/svg">
<rect width="962" height="962" rx="481" fill="#BDE0FE"/>
<path d="M568.999 712.994H296.999L264.999 456.994H600.999L568.999 712.994Z" fill="#E82F3E"/>
<path d="M688.999 712.994H592.999L576.999 552.994H704.999L688.999 712.994Z" fill="#0296E5"/>
<path d="M698.709 615.884L693.989 663.054L586.099 644.014L581.219 595.154L698.709 615.884Z" fill="#0296E5"/>
<path d="M712.999 520.994H568.999L576.999 488.994H704.999L712.999 520.994Z" fill="#EAEAE8"/>
<path d="M672.999 488.994H656.999V408.994L680.999 360.994H696.999L672.999 416.994V488.994Z" fill="#0276B4"/>
<path d="M408.999 456.994H456.999V712.994H408.999V456.994Z" fill="#CBCBCB"/>
<path d="M368.999 712.994H328.999L312.999 456.994H360.999L368.999 712.994Z" fill="#CBCBCB"/>
<path d="M536.999 712.994H496.999L504.999 456.994H552.999L536.999 712.994Z" fill="#CBCBCB"/>
<path d="M516.713 345.03C517.689 342.592 518.175 339.985 518.143 337.358C518.111 334.731 517.562 332.137 516.528 329.722C515.493 327.308 513.993 325.121 512.113 323.287C510.233 321.452 508.01 320.006 505.571 319.03C506.547 316.592 507.032 313.985 507 311.359C506.968 308.732 506.419 306.138 505.385 303.724C504.35 301.31 502.85 299.123 500.971 297.289C499.091 295.455 496.868 294.008 494.43 293.033C491.991 292.057 489.384 291.572 486.758 291.604C484.132 291.636 481.538 292.185 479.124 293.219C476.709 294.254 474.523 295.754 472.688 297.634C470.854 299.513 469.408 301.736 468.432 304.174C463.507 302.204 458.002 302.271 453.126 304.361C448.251 306.45 444.405 310.391 442.435 315.316C440.465 320.241 440.532 325.747 442.621 330.622C444.711 335.498 448.651 339.343 453.576 341.313C453.784 341.396 453.994 341.452 454.203 341.528C454.198 341.538 454.193 341.548 454.189 341.558C452.219 346.483 452.286 351.989 454.376 356.865C456.465 361.74 460.406 365.586 465.331 367.556C470.256 369.526 475.762 369.459 480.637 367.369C485.512 365.28 489.358 361.339 491.328 356.414C491.328 356.403 491.334 356.392 491.338 356.382C496.214 358.153 501.587 357.959 506.323 355.841C511.058 353.722 514.784 349.846 516.713 345.03Z" fill="#D18D28"/>
<path d="M412.879 324.028C410.946 319.089 407.13 315.12 402.27 312.995C397.41 310.869 391.906 310.761 386.966 312.694C385.033 307.755 381.217 303.785 376.358 301.659C371.498 299.533 365.993 299.424 361.053 301.357C356.114 303.29 352.144 307.106 350.018 311.966C347.892 316.826 347.783 322.331 349.716 327.27C344.777 329.203 340.807 333.019 338.681 337.879C336.555 342.739 336.446 348.244 338.379 353.183C340.312 358.123 344.128 362.093 348.988 364.219C353.847 366.345 359.353 366.453 364.292 364.52C364.5 364.439 364.692 364.335 364.892 364.248C364.892 364.258 364.898 364.269 364.902 364.28C365.859 366.726 367.289 368.96 369.109 370.853C370.929 372.747 373.105 374.263 375.511 375.316C377.917 376.368 380.507 376.937 383.133 376.989C385.759 377.04 388.369 376.574 390.815 375.617C393.261 374.66 395.495 373.231 397.388 371.411C399.281 369.59 400.798 367.415 401.851 365.009C402.903 362.603 403.472 360.013 403.524 357.387C403.575 354.761 403.109 352.15 402.152 349.704C402.152 349.693 402.142 349.684 402.138 349.673C406.907 347.629 410.695 343.811 412.699 339.025C414.704 334.239 414.768 328.861 412.879 324.028V324.028Z" fill="#FBB540"/>
<path d="M324.879 273.048C323.922 270.602 322.493 268.369 320.673 266.476C318.852 264.582 316.677 263.066 314.271 262.013C311.865 260.96 309.274 260.392 306.649 260.34C304.023 260.288 301.412 260.754 298.966 261.711C298.009 259.266 296.58 257.032 294.76 255.139C292.939 253.245 290.764 251.729 288.358 250.676C285.952 249.623 283.361 249.055 280.736 249.003C278.11 248.951 275.499 249.417 273.053 250.374C270.607 251.331 268.374 252.761 266.481 254.581C264.587 256.401 263.071 258.577 262.018 260.983C260.965 263.389 260.397 265.979 260.345 268.605C260.293 271.231 260.759 273.842 261.716 276.287C256.777 278.22 252.807 282.036 250.681 286.896C248.555 291.756 248.446 297.261 250.379 302.2C252.312 307.14 256.128 311.11 260.988 313.236C265.847 315.362 271.353 315.47 276.292 313.537C276.5 313.456 276.692 313.353 276.892 313.265C276.892 313.276 276.898 313.286 276.902 313.297C278.835 318.237 282.651 322.207 287.511 324.333C292.37 326.459 297.876 326.567 302.815 324.634C307.755 322.701 311.724 318.885 313.851 314.026C315.977 309.166 316.085 303.661 314.152 298.721C314.152 298.71 314.142 298.701 314.138 298.691C318.907 296.647 322.694 292.829 324.698 288.043C326.702 283.258 326.767 277.881 324.879 273.048V273.048Z" fill="#D18D28"/>
<path d="M344.999 408.994C344.999 403.69 342.892 398.603 339.141 394.852C335.391 391.102 330.304 388.994 324.999 388.994C324.999 383.69 322.892 378.603 319.141 374.852C315.391 371.102 310.304 368.994 304.999 368.994C299.695 368.994 294.608 371.102 290.857 374.852C287.106 378.603 284.999 383.69 284.999 388.994C279.695 388.994 274.608 391.102 270.857 394.852C267.106 398.603 264.999 403.69 264.999 408.994C264.999 414.299 267.106 419.386 270.857 423.137C274.608 426.887 279.695 428.994 284.999 428.994C285.222 428.994 285.438 428.968 285.66 428.961V428.994C285.66 434.299 287.767 439.386 291.518 443.137C295.269 446.887 300.356 448.994 305.66 448.994C310.965 448.994 316.052 446.887 319.802 443.137C323.553 439.386 325.66 434.299 325.66 428.994C325.66 428.983 325.66 428.972 325.66 428.961C330.845 428.793 335.761 426.617 339.369 422.891C342.978 419.165 344.997 414.181 344.999 408.994Z" fill="#FBB540"/>
<path d="M424.999 408.994C424.999 403.69 422.892 398.603 419.141 394.852C415.391 391.102 410.304 388.994 404.999 388.994C404.999 383.69 402.892 378.603 399.141 374.852C395.391 371.102 390.304 368.994 384.999 368.994C379.695 368.994 374.608 371.102 370.857 374.852C367.106 378.603 364.999 383.69 364.999 388.994C359.695 388.994 354.608 391.102 350.857 394.852C347.106 398.603 344.999 403.69 344.999 408.994C344.999 414.299 347.106 419.386 350.857 423.137C354.608 426.887 359.695 428.994 364.999 428.994C365.222 428.994 365.438 428.968 365.66 428.961V428.994C365.66 434.299 367.767 439.386 371.518 443.137C375.269 446.887 380.356 448.994 385.66 448.994C390.965 448.994 396.052 446.887 399.802 443.137C403.553 439.386 405.66 434.299 405.66 428.994C405.66 428.983 405.66 428.972 405.66 428.961C410.845 428.793 415.761 426.617 419.369 422.891C422.978 419.165 424.997 414.181 424.999 408.994V408.994Z" fill="#D18D28"/>
<path d="M504.999 408.994C504.999 403.69 502.892 398.603 499.141 394.852C495.391 391.102 490.304 388.994 484.999 388.994C484.999 383.69 482.892 378.603 479.141 374.852C475.391 371.102 470.304 368.994 464.999 368.994C459.695 368.994 454.608 371.102 450.857 374.852C447.106 378.603 444.999 383.69 444.999 388.994C439.695 388.994 434.608 391.102 430.857 394.852C427.106 398.603 424.999 403.69 424.999 408.994C424.999 414.299 427.106 419.386 430.857 423.137C434.608 426.887 439.695 428.994 444.999 428.994C445.222 428.994 445.438 428.968 445.66 428.961V428.994C445.66 434.299 447.767 439.386 451.518 443.137C455.269 446.887 460.356 448.994 465.66 448.994C470.965 448.994 476.052 446.887 479.802 443.137C483.553 439.386 485.66 434.299 485.66 428.994C485.66 428.983 485.66 428.972 485.66 428.961C490.845 428.793 495.761 426.617 499.369 422.891C502.978 419.165 504.997 414.181 504.999 408.994Z" fill="#FBB540"/>
<path d="M584.999 408.994C584.999 403.69 582.892 398.603 579.141 394.852C575.391 391.102 570.304 388.994 564.999 388.994C564.999 383.69 562.892 378.603 559.141 374.852C555.391 371.102 550.304 368.994 544.999 368.994C539.695 368.994 534.608 371.102 530.857 374.852C527.106 378.603 524.999 383.69 524.999 388.994C519.695 388.994 514.608 391.102 510.857 394.852C507.106 398.603 504.999 403.69 504.999 408.994C504.999 414.299 507.106 419.386 510.857 423.137C514.608 426.887 519.695 428.994 524.999 428.994C525.222 428.994 525.438 428.968 525.66 428.961V428.994C525.66 434.299 527.767 439.386 531.518 443.137C535.269 446.887 540.356 448.994 545.66 448.994C550.965 448.994 556.052 446.887 559.802 443.137C563.553 439.386 565.66 434.299 565.66 428.994C565.66 428.983 565.66 428.972 565.66 428.961C570.845 428.793 575.761 426.617 579.369 422.891C582.978 419.165 584.997 414.181 584.999 408.994Z" fill="#D18D28"/>
<path d="M614.935 320.619C617.28 315.861 617.638 310.367 615.931 305.345C614.225 300.323 610.593 296.184 605.835 293.839C608.18 289.081 608.538 283.587 606.832 278.564C605.125 273.542 601.493 269.403 596.735 267.058C591.977 264.714 586.483 264.355 581.46 266.062C576.438 267.768 572.299 271.4 569.954 276.158C565.196 273.814 559.702 273.456 554.679 275.162C549.657 276.869 545.518 280.501 543.174 285.259C540.829 290.017 540.471 295.512 542.178 300.534C543.884 305.556 547.516 309.695 552.274 312.039C552.474 312.139 552.68 312.21 552.882 312.301C552.882 312.311 552.87 312.32 552.865 312.33C551.704 314.686 551.019 317.248 550.848 319.869C550.677 322.49 551.024 325.119 551.869 327.605C552.714 330.092 554.041 332.388 555.773 334.362C557.506 336.336 559.61 337.95 561.966 339.111C564.322 340.272 566.883 340.957 569.504 341.128C572.125 341.299 574.754 340.952 577.241 340.107C579.728 339.262 582.024 337.935 583.998 336.203C585.972 334.471 587.585 332.366 588.746 330.01C588.746 330 588.754 329.99 588.759 329.98C593.484 332.123 598.857 332.344 603.742 330.597C608.626 328.85 612.64 325.272 614.935 320.619V320.619Z" fill="#FBB540"/>
<path d="M432.999 648.994C472.764 648.994 504.999 616.759 504.999 576.994C504.999 537.23 472.764 504.994 432.999 504.994C393.235 504.994 360.999 537.23 360.999 576.994C360.999 616.759 393.235 648.994 432.999 648.994Z" fill="#EAEAE8"/>
<path d="M698.709 615.884L693.989 663.054L586.099 644.014L581.219 595.154L698.709 615.884Z" fill="#0276B4"/>
<path d="M560.999 520.994H720.999V552.994H560.999V520.994Z" fill="#CBCBCB"/>
<path d="M600.999 424.994H264.999C256.163 424.994 248.999 432.158 248.999 440.994C248.999 449.831 256.163 456.994 264.999 456.994H600.999C609.836 456.994 616.999 449.831 616.999 440.994C616.999 432.158 609.836 424.994 600.999 424.994Z" fill="#EAEAE8"/>
<path d="M656.999 472.994H672.999V488.994H656.999V472.994Z" fill="#015078"/>
<path d="M257.781 320.564C262.559 322.67 267.833 323.388 272.999 322.637C276.676 327.624 281.902 331.25 287.859 332.948C293.817 334.647 300.17 334.321 305.922 332.023C311.675 329.725 316.504 325.584 319.652 320.249C322.8 314.913 324.089 308.684 323.318 302.537C328.178 298.804 331.679 293.579 333.284 287.664C334.889 281.75 334.509 275.472 332.202 269.794C329.895 264.116 325.789 259.352 320.514 256.232C315.239 253.112 309.086 251.809 302.999 252.523C299.354 247.518 294.152 243.861 288.209 242.124C282.265 240.388 275.913 240.669 270.146 242.924C264.379 245.18 259.521 249.282 256.332 254.59C253.144 259.899 251.803 266.114 252.52 272.264C248.537 275.167 245.389 279.069 243.396 283.576C241.403 288.084 240.634 293.038 241.168 297.937C241.702 302.837 243.519 307.509 246.436 311.482C249.353 315.455 253.266 318.588 257.781 320.564V320.564ZM258.011 290.102C258.639 288.657 259.548 287.35 260.684 286.257C261.821 285.165 263.163 284.309 264.632 283.738C265.611 283.356 266.504 282.784 267.262 282.056C268.019 281.328 268.626 280.457 269.047 279.495C269.468 278.532 269.695 277.496 269.716 276.446C269.737 275.395 269.55 274.351 269.167 273.372C268.58 271.902 268.289 270.331 268.312 268.748C268.334 267.165 268.67 265.602 269.299 264.149C269.928 262.696 270.839 261.383 271.978 260.283C273.118 259.184 274.463 258.321 275.937 257.744C277.412 257.167 278.985 256.888 280.568 256.922C282.151 256.956 283.711 257.303 285.159 257.942C286.607 258.582 287.915 259.502 289.006 260.649C290.097 261.796 290.95 263.148 291.516 264.626C292.289 266.602 293.816 268.19 295.76 269.041C297.703 269.891 299.905 269.934 301.881 269.161C304.808 268.028 308.062 268.087 310.946 269.327C313.829 270.566 316.112 272.887 317.303 275.79C318.494 278.694 318.499 281.949 317.317 284.856C316.136 287.764 313.861 290.092 310.981 291.34C309.084 292.155 307.576 293.671 306.771 295.572C305.966 297.473 305.927 299.611 306.662 301.54C306.685 301.602 306.711 301.666 306.737 301.731C307.883 304.69 307.811 307.982 306.536 310.887C305.261 313.792 302.888 316.075 299.935 317.235C296.982 318.395 293.69 318.338 290.778 317.077C287.867 315.816 285.573 313.454 284.399 310.506C284.024 309.486 283.445 308.553 282.698 307.764C281.95 306.975 281.049 306.346 280.051 305.917C279.052 305.487 277.977 305.266 276.889 305.266C275.802 305.266 274.727 305.488 273.728 305.917C273.579 305.982 273.428 306.049 273.248 306.136C271.039 306.971 268.633 307.136 266.331 306.61C264.029 306.083 261.933 304.89 260.307 303.178C258.68 301.466 257.595 299.312 257.186 296.986C256.778 294.661 257.065 292.266 258.011 290.102V290.102Z" fill="black"/>
<path d="M543.335 315.736C542.135 321.812 542.983 328.115 545.746 333.658C548.509 339.201 553.032 343.671 558.606 346.37C564.181 349.069 570.493 349.844 576.554 348.573C582.616 347.303 588.086 344.059 592.107 339.348C598.141 340.413 604.359 339.471 609.806 336.664C615.253 333.858 619.629 329.343 622.265 323.811C624.9 318.279 625.649 312.036 624.397 306.038C623.145 300.04 619.96 294.617 615.331 290.602C616.574 284.536 615.77 278.228 613.046 272.666C610.322 267.105 605.831 262.604 600.276 259.867C594.721 257.13 588.415 256.312 582.345 257.54C576.276 258.769 570.784 261.975 566.731 266.657C560.603 265.405 554.232 266.24 548.633 269.029C543.034 271.817 538.53 276.4 535.838 282.046C533.146 287.692 532.422 294.077 533.78 300.182C535.138 306.288 538.5 311.764 543.331 315.736H543.335ZM550.35 288.794C551.757 285.94 554.24 283.761 557.254 282.737C560.267 281.713 563.564 281.929 566.418 283.335C568.321 284.273 570.519 284.416 572.528 283.734C574.537 283.051 576.192 281.599 577.13 279.695C577.827 278.282 578.795 277.019 579.979 275.98C581.164 274.94 582.541 274.144 584.034 273.637C585.526 273.13 587.103 272.922 588.676 273.025C590.248 273.127 591.785 273.538 593.199 274.235C594.612 274.931 595.875 275.9 596.914 277.084C597.954 278.269 598.75 279.646 599.257 281.138C599.764 282.63 599.972 284.208 599.87 285.78C599.767 287.353 599.356 288.89 598.659 290.303C597.721 292.207 597.578 294.404 598.261 296.413C598.943 298.422 600.396 300.078 602.299 301.015C605.159 302.382 607.362 304.826 608.424 307.813C609.487 310.799 609.323 314.085 607.969 316.952C606.616 319.818 604.182 322.031 601.2 323.107C598.218 324.184 594.932 324.035 592.059 322.694C590.151 321.83 587.979 321.749 586.012 322.469C584.044 323.188 582.437 324.651 581.536 326.542C581.528 326.558 581.521 326.573 581.515 326.588C580.819 328.002 579.852 329.265 578.667 330.305C577.483 331.345 576.106 332.142 574.614 332.649C573.122 333.157 571.545 333.366 569.972 333.264C568.399 333.162 566.862 332.751 565.448 332.055C562.593 330.65 560.412 328.167 559.387 325.154C558.88 323.662 558.671 322.085 558.773 320.512C558.875 318.94 559.285 317.402 559.981 315.988C560.024 315.906 560.065 315.823 560.104 315.741C560.562 314.781 560.823 313.738 560.873 312.675C560.922 311.612 560.76 310.55 560.394 309.551C560.028 308.552 559.466 307.636 558.742 306.856C558.018 306.077 557.145 305.449 556.175 305.011C556.027 304.944 555.875 304.881 555.692 304.804C552.876 303.374 550.737 300.892 549.737 297.895C548.737 294.899 548.957 291.629 550.35 288.794V288.794Z" fill="black"/>
<path d="M720.937 520.044C720.926 519.951 712.76 487.054 712.76 487.054C712.328 485.324 711.329 483.787 709.923 482.689C708.516 481.591 706.783 480.994 704.999 480.994H688.999V418.636L712.353 364.145C712.875 362.929 713.086 361.601 712.968 360.283C712.85 358.964 712.407 357.695 711.678 356.59C710.95 355.485 709.958 354.578 708.792 353.95C707.626 353.323 706.323 352.994 704.999 352.994H672.999C671.514 352.994 670.057 353.408 668.794 354.189C667.53 354.97 666.509 356.088 665.844 357.416L641.844 405.416C641.288 406.527 640.999 407.752 640.999 408.994V480.994H606.062L608.2 463.894C613.674 462.177 618.353 458.556 621.387 453.687C624.421 448.818 625.61 443.023 624.74 437.352C623.869 431.681 620.996 426.51 616.641 422.776C612.285 419.041 606.736 416.99 600.999 416.994H591.82C592.9 413.395 593.243 409.615 592.829 405.88C592.415 402.145 591.253 398.532 589.411 395.257C587.569 391.981 585.086 389.111 582.11 386.816C579.134 384.522 575.727 382.851 572.09 381.903C570.525 375.911 567.016 370.606 562.114 366.82C557.212 363.034 551.193 360.98 544.999 360.98C538.805 360.98 532.786 363.034 527.884 366.82C522.982 370.606 519.474 375.911 517.908 381.903C513.001 383.201 508.539 385.809 504.999 389.447C501.46 385.809 496.998 383.201 492.09 381.903C491.21 378.578 489.721 375.444 487.7 372.66C490.707 370.779 493.324 368.337 495.409 365.467C501.507 366.062 507.631 364.642 512.844 361.423C518.057 358.205 522.071 353.366 524.271 347.648C526.471 341.931 526.736 335.649 525.026 329.767C523.315 323.884 519.723 318.724 514.799 315.078C515.561 308.934 514.267 302.711 511.118 297.38C507.97 292.05 503.144 287.912 497.395 285.614C491.647 283.316 485.298 282.986 479.343 284.677C473.387 286.368 468.159 289.983 464.475 294.959C458.269 294.182 451.981 295.506 446.615 298.719C441.248 301.931 437.112 306.849 434.866 312.686C432.619 318.523 432.392 324.945 434.22 330.926C436.048 336.908 439.826 342.105 444.952 345.689C444.144 352.648 445.965 359.658 450.058 365.343C444.064 369.133 439.725 375.048 437.91 381.903C433.002 383.201 428.539 385.809 424.999 389.447C421.459 385.808 416.996 383.201 412.088 381.903C411.133 378.285 409.461 374.896 407.17 371.936C410.64 366.46 412.105 359.951 411.318 353.515C416.177 349.782 419.677 344.557 421.281 338.643C422.886 332.728 422.505 326.451 420.199 320.774C417.892 315.097 413.787 310.333 408.512 307.213C403.238 304.093 397.086 302.79 390.999 303.503C387.353 298.497 382.151 294.84 376.206 293.104C370.261 291.367 363.908 291.649 358.141 293.906C352.373 296.163 347.516 300.267 344.328 305.577C341.14 310.887 339.802 317.103 340.521 323.254C335.469 326.938 331.794 332.206 330.082 338.22C328.37 344.234 328.719 350.648 331.074 356.44C333.43 362.232 337.655 367.07 343.078 370.183C348.501 373.295 354.81 374.504 360.999 373.616C361.106 373.761 361.226 373.897 361.336 374.04C359.79 376.468 358.631 379.122 357.903 381.906C352.999 383.204 348.54 385.811 345.003 389.447C341.464 385.809 337.002 383.201 332.094 381.903C330.529 375.911 327.021 370.606 322.118 366.82C317.216 363.034 311.197 360.98 305.003 360.98C298.809 360.98 292.79 363.034 287.888 366.82C282.986 370.606 279.478 375.911 277.912 381.903C274.201 382.877 270.729 384.602 267.711 386.973C264.694 389.344 262.196 392.309 260.372 395.685C258.547 399.061 257.436 402.775 257.107 406.598C256.777 410.421 257.237 414.271 258.456 417.909C253.486 419.318 249.104 422.292 245.959 426.39C242.815 430.489 241.076 435.492 241.002 440.657C240.929 445.822 242.523 450.873 245.549 455.06C248.576 459.246 252.872 462.345 257.799 463.894L289.062 713.994C289.306 715.928 290.247 717.705 291.708 718.994C293.169 720.283 295.051 720.994 296.999 720.994H568.999C570.949 720.994 572.832 720.282 574.294 718.992C575.755 717.701 576.695 715.921 576.937 713.986L581.449 677.886L585.039 713.786C585.236 715.761 586.159 717.592 587.63 718.924C589.101 720.256 591.015 720.994 592.999 720.994H688.999C690.983 720.994 692.895 720.258 694.366 718.927C695.837 717.597 696.761 715.768 696.959 713.794L712.239 560.994H712.999C715.121 560.994 717.156 560.152 718.656 558.651C720.156 557.151 720.999 555.116 720.999 552.994C720.999 552.994 720.96 520.237 720.937 520.044V520.044ZM704.999 544.994H576.999V528.994H704.999V544.994ZM686.891 653.675L593.458 637.187L590.226 604.864L690.011 622.473L686.891 653.675ZM702.753 512.994H579.245L583.245 496.994H698.753L702.753 512.994ZM656.999 410.883L677.943 368.994H692.867L673.645 413.843C673.219 414.839 672.999 415.911 672.999 416.994V480.994H656.999V410.883ZM524.999 396.994C527.121 396.994 529.156 396.152 530.656 394.651C532.156 393.151 532.999 391.116 532.999 388.994C532.999 385.812 534.264 382.76 536.514 380.509C538.764 378.259 541.817 376.994 544.999 376.994C548.182 376.994 551.234 378.259 553.485 380.509C555.735 382.76 556.999 385.812 556.999 388.994C556.999 391.116 557.842 393.151 559.342 394.651C560.843 396.152 562.878 396.994 564.999 396.994C567.317 396.991 569.586 397.66 571.532 398.92C573.477 400.181 575.015 401.978 575.959 404.095C576.904 406.212 577.214 408.557 576.852 410.847C576.491 413.136 575.473 415.272 573.922 416.994H516.073C514.523 415.271 513.506 413.135 513.145 410.846C512.784 408.556 513.095 406.211 514.039 404.095C514.984 401.978 516.522 400.181 518.467 398.921C520.413 397.661 522.681 396.991 524.999 396.994V396.994ZM449.862 318.294C450.448 316.831 451.315 315.497 452.416 314.369C453.517 313.241 454.829 312.341 456.278 311.721C457.726 311.1 459.283 310.771 460.859 310.751C462.435 310.732 463.999 311.024 465.462 311.609C466.438 312 467.481 312.194 468.531 312.181C469.582 312.169 470.62 311.949 471.585 311.535C472.551 311.121 473.426 310.521 474.16 309.769C474.894 309.017 475.472 308.128 475.862 307.152C476.448 305.689 477.315 304.356 478.416 303.228C479.516 302.1 480.828 301.2 482.277 300.579C483.725 299.958 485.282 299.629 486.858 299.61C488.433 299.59 489.998 299.882 491.461 300.467C492.924 301.052 494.258 301.92 495.385 303.02C496.513 304.121 497.413 305.433 498.034 306.882C498.655 308.33 498.984 309.887 499.004 311.462C499.023 313.038 498.732 314.602 498.146 316.065C497.756 317.041 497.562 318.084 497.574 319.134C497.587 320.185 497.807 321.223 498.221 322.189C498.634 323.154 499.235 324.029 499.987 324.763C500.739 325.497 501.628 326.075 502.603 326.465C505.502 327.649 507.822 329.919 509.068 332.791C510.315 335.663 510.388 338.908 509.274 341.834C508.159 344.759 505.944 347.132 503.102 348.446C500.261 349.76 497.018 349.911 494.067 348.865C492.094 348.151 489.919 348.24 488.011 349.114C486.103 349.988 484.615 351.577 483.867 353.538V353.544C482.661 356.466 480.351 358.794 477.438 360.023C474.526 361.251 471.246 361.281 468.312 360.105C465.377 358.929 463.026 356.643 461.767 353.744C460.509 350.844 460.445 347.565 461.59 344.618C461.623 344.538 461.655 344.458 461.685 344.38C462.063 343.389 462.24 342.333 462.205 341.273C462.171 340.212 461.926 339.17 461.485 338.205C461.043 337.24 460.415 336.373 459.635 335.654C458.856 334.934 457.941 334.377 456.944 334.014C456.785 333.956 456.626 333.902 456.426 333.837C453.509 332.629 451.185 330.321 449.957 327.412C448.729 324.503 448.695 321.228 449.862 318.294V318.294ZM444.999 396.994C447.121 396.994 449.156 396.152 450.656 394.651C452.156 393.151 452.999 391.116 452.999 388.994C452.999 385.812 454.264 382.76 456.514 380.509C458.764 378.259 461.817 376.994 464.999 376.994C468.182 376.994 471.234 378.259 473.485 380.509C475.735 382.76 476.999 385.812 476.999 388.994C476.999 391.116 477.842 393.151 479.342 394.651C480.843 396.152 482.878 396.994 484.999 396.994C488.181 396.998 491.231 398.263 493.481 400.513C495.73 402.763 496.996 405.813 496.999 408.994C497.003 411.952 495.902 414.805 493.913 416.994H436.073C434.523 415.271 433.506 413.135 433.145 410.846C432.784 408.556 433.095 406.211 434.039 404.095C434.984 401.978 436.522 400.181 438.467 398.921C440.413 397.661 442.682 396.991 444.999 396.994V396.994ZM352.199 356.886C350.025 355.935 348.181 354.36 346.902 352.361C345.623 350.362 344.965 348.029 345.012 345.656C345.059 343.283 345.808 340.977 347.165 339.03C348.523 337.083 350.427 335.582 352.637 334.717C353.616 334.335 354.509 333.763 355.267 333.035C356.024 332.307 356.631 331.436 357.052 330.474C357.473 329.511 357.7 328.475 357.721 327.425C357.742 326.374 357.555 325.33 357.172 324.351C356.581 322.881 356.288 321.307 356.308 319.723C356.329 318.138 356.663 316.573 357.292 315.118C357.92 313.663 358.831 312.347 359.971 311.246C361.112 310.145 362.458 309.28 363.935 308.703C365.411 308.125 366.986 307.846 368.571 307.881C370.156 307.915 371.718 308.264 373.167 308.906C374.616 309.548 375.924 310.47 377.014 311.62C378.105 312.77 378.957 314.125 379.521 315.606C380.294 317.582 381.821 319.17 383.765 320.021C385.708 320.871 387.91 320.914 389.886 320.141C392.811 319.015 396.061 319.078 398.94 320.319C401.819 321.559 404.097 323.878 405.287 326.778C406.477 329.678 406.484 332.929 405.306 335.834C404.128 338.739 401.86 341.067 398.986 342.319C397.109 343.125 395.611 344.619 394.8 346.495C393.989 348.37 393.926 350.484 394.624 352.404C394.659 352.499 394.697 352.604 394.738 352.704C395.726 355.284 395.795 358.125 394.931 360.748C394.068 363.372 392.326 365.617 390 367.106C387.673 368.594 384.904 369.235 382.161 368.919C379.417 368.603 376.866 367.35 374.938 365.372C373.842 364.25 372.979 362.92 372.399 361.461L372.376 361.403C371.992 360.395 371.408 359.475 370.659 358.698C369.91 357.921 369.011 357.304 368.017 356.884C367.023 356.464 365.955 356.249 364.876 356.252C363.797 356.255 362.729 356.477 361.738 356.903C361.589 356.968 361.438 357.035 361.256 357.123C358.324 358.239 355.069 358.154 352.199 356.886V356.886ZM364.999 396.994C367.121 396.994 369.156 396.152 370.656 394.651C372.156 393.151 372.999 391.116 372.999 388.994C372.997 387.064 373.462 385.161 374.356 383.449C380.654 385.64 387.528 385.503 393.734 383.064C394.187 382.887 394.618 382.678 395.056 382.48C396.319 384.418 396.994 386.681 396.999 388.994C396.999 391.116 397.842 393.151 399.342 394.651C400.843 396.152 402.878 396.994 404.999 396.994C408.181 396.998 411.231 398.263 413.481 400.513C415.73 402.763 416.996 405.813 416.999 408.994C417.002 411.952 415.902 414.805 413.912 416.994H356.073C354.523 415.271 353.506 413.135 353.145 410.846C352.784 408.556 353.095 406.211 354.039 404.095C354.984 401.978 356.522 400.181 358.467 398.921C360.413 397.661 362.682 396.991 364.999 396.994V396.994ZM284.999 396.994C287.121 396.994 289.156 396.152 290.656 394.651C292.156 393.151 292.999 391.116 292.999 388.994C292.999 385.812 294.264 382.76 296.514 380.509C298.764 378.259 301.817 376.994 304.999 376.994C308.182 376.994 311.234 378.259 313.485 380.509C315.735 382.76 316.999 385.812 316.999 388.994C316.999 391.116 317.842 393.151 319.342 394.651C320.843 396.152 322.878 396.994 324.999 396.994C328.181 396.998 331.231 398.263 333.481 400.513C335.73 402.763 336.996 405.813 336.999 408.994C337.002 411.952 335.902 414.805 333.913 416.994H276.073C274.523 415.271 273.506 413.135 273.145 410.846C272.784 408.556 273.095 406.211 274.039 404.095C274.984 401.978 276.522 400.181 278.467 398.921C280.413 397.661 282.682 396.991 284.999 396.994V396.994ZM264.999 432.994H600.999C603.121 432.994 605.156 433.837 606.656 435.338C608.156 436.838 608.999 438.873 608.999 440.994C608.999 443.116 608.156 445.151 606.656 446.651C605.156 448.152 603.121 448.994 600.999 448.994H264.999C262.878 448.994 260.843 448.152 259.342 446.651C257.842 445.151 256.999 443.116 256.999 440.994C256.999 438.873 257.842 436.838 259.342 435.338C260.843 433.837 262.878 432.994 264.999 432.994ZM505.253 704.994L508.421 603.634C514.006 587.874 514.494 570.757 509.815 554.704C509.918 554.235 509.978 553.758 509.994 553.278L512.753 464.994H544.483L529.483 704.994H505.253ZM336.515 704.994L321.515 464.994H353.245L356.062 555.128C351.454 571.278 352.058 588.47 357.788 604.256C357.681 604.825 357.635 605.403 357.651 605.981L360.745 704.994H336.515ZM448.999 464.994V498.604C438.441 496.458 427.558 496.458 416.999 498.604V464.994H448.999ZM494.83 526.294C486.802 516.52 476.582 508.777 464.999 503.694V464.994H496.745L494.83 526.294ZM400.999 503.694C389.417 508.777 379.196 516.52 371.168 526.294L369.253 464.994H400.999V503.694ZM374.455 631.436C381.923 639.469 390.957 645.886 400.999 650.294V704.994H376.753L374.455 631.436ZM416.999 655.384C427.558 657.531 438.441 657.531 448.999 655.384V704.994H416.999V655.384ZM432.999 640.994C420.341 640.994 407.968 637.241 397.443 630.208C386.918 623.176 378.715 613.181 373.871 601.486C369.027 589.792 367.76 576.923 370.229 564.509C372.698 552.094 378.794 540.69 387.744 531.74C396.695 522.789 408.099 516.694 420.514 514.224C432.928 511.755 445.797 513.022 457.491 517.866C469.185 522.71 479.181 530.913 486.213 541.438C493.246 551.963 496.999 564.336 496.999 576.994C496.98 593.962 490.231 610.23 478.233 622.228C466.235 634.226 449.967 640.975 432.999 640.994V640.994ZM274.061 464.994H305.483L320.483 704.994H304.061L274.061 464.994ZM464.999 704.994V650.294C475.042 645.886 484.076 639.468 491.544 631.435L489.245 704.994H464.999ZM561.937 704.994H545.515L560.515 464.994H591.937L589.937 480.994H576.999C575.215 480.994 573.482 481.591 572.076 482.689C570.67 483.787 569.671 485.324 569.238 487.054C569.238 487.054 561.072 519.954 561.061 520.043C561.038 520.236 560.999 552.994 560.999 552.994C560.999 555.116 561.842 557.151 563.342 558.651C564.843 560.152 566.878 560.994 568.999 560.994H569.759L574.33 606.701C574.212 607.103 574.124 607.513 574.069 607.928L561.937 704.994ZM600.237 704.994L595.11 653.726L685.299 669.64L681.759 704.994H600.237ZM691.606 606.507L588.572 588.324L585.839 560.994H696.159L691.606 606.507Z" fill="black"/>
</svg>
