<svg width="962" height="962" viewBox="0 0 962 962" fill="none" xmlns="http://www.w3.org/2000/svg">
<rect width="962" height="962" rx="481" fill="#BDE0FE"/>
<path d="M437 683.395L340.2 736.195L243.4 683.395V559.595C243.4 547.13 247.499 535.011 255.065 525.105C262.631 515.199 273.245 508.056 285.27 504.776C321.233 494.968 359.167 494.968 395.13 504.776C407.155 508.056 417.769 515.199 425.335 525.105C432.901 535.011 437 547.13 437 559.595V683.395Z" fill="#B9B9B9"/>
<path d="M437 568.995H366.6L340.2 577.795L313.8 568.995H243.4V621.795L296.2 648.195L313.8 621.795H357.8L384.2 648.195L437 621.795V568.995Z" fill="#A8A8A8"/>
<path d="M445.8 608.595L384.2 639.395L357.8 612.995H313.8L296.2 639.395L234.6 608.595L233.806 606.293C228.635 591.313 228.916 574.989 234.6 560.195H313.8L340.2 568.995L366.6 560.195H445.8C451.484 574.989 451.765 591.313 446.594 606.293L445.8 608.595Z" fill="#69B9E7"/>
<path d="M463.4 287.395H498.6V345.5H463.4V287.395Z" fill="#787D82"/>
<path d="M586.6 565.497H498.6C491.601 565.49 484.89 562.706 479.941 557.757C474.991 552.807 472.208 546.097 472.2 539.097V503.897C472.2 501.564 473.127 499.325 474.777 497.675C476.428 496.025 478.666 495.097 481 495.097C483.334 495.097 485.572 496.025 487.223 497.675C488.873 499.325 489.8 501.564 489.8 503.897V539.097C489.801 541.431 490.729 543.668 492.379 545.318C494.029 546.968 496.267 547.896 498.6 547.897H586.6C588.934 547.897 591.172 548.825 592.823 550.475C594.473 552.125 595.4 554.364 595.4 556.697C595.4 559.031 594.473 561.27 592.823 562.92C591.172 564.57 588.934 565.497 586.6 565.497Z" fill="#3474A6"/>
<path d="M569 424.697C567.258 424.699 565.555 424.183 564.106 423.216C562.657 422.248 561.528 420.873 560.862 419.263C560.196 417.653 560.022 415.882 560.363 414.174C560.705 412.466 561.545 410.897 562.778 409.667C566.75 405.678 568.986 400.283 569 394.654V389.497C569 387.163 569.927 384.925 571.577 383.275C573.228 381.625 575.466 380.697 577.8 380.697C580.134 380.697 582.372 381.625 584.023 383.275C585.673 384.925 586.6 387.163 586.6 389.497V394.654C586.572 404.953 582.483 414.825 575.222 422.128C573.57 423.775 571.332 424.699 569 424.697V424.697Z" fill="#3474A6"/>
<path d="M621.8 451.097H551.4C549.554 451.098 547.754 450.517 546.256 449.438C544.758 448.358 543.639 446.834 543.055 445.083L522.525 383.483C522.124 382.378 521.948 381.204 522.008 380.031C522.068 378.857 522.362 377.708 522.873 376.65C523.385 375.592 524.103 374.647 524.985 373.871C525.867 373.095 526.896 372.503 528.011 372.131C529.126 371.759 530.303 371.614 531.475 371.705C532.647 371.796 533.788 372.12 534.832 372.659C535.877 373.198 536.802 373.94 537.555 374.843C538.307 375.745 538.872 376.789 539.214 377.913L557.743 433.497H621.8C624.134 433.497 626.372 434.425 628.023 436.075C629.673 437.725 630.6 439.963 630.6 442.297C630.6 444.631 629.673 446.87 628.023 448.52C626.372 450.17 624.134 451.097 621.8 451.097V451.097Z" fill="#3474A6"/>
<path d="M278.6 336.7H428.2V371.9H278.6V336.7Z" fill="#3E8CC7"/>
<path d="M410.6 336.7H428.2V371.9H410.6V336.7Z" fill="#3880B5"/>
<path d="M595.4 389.5H701L663.6 415.9L692.2 530.3H630.6L595.4 389.5Z" fill="#3E8CC7"/>
<path d="M428.2 336.7H701V389.5H428.2V336.7Z" fill="#69B9E7"/>
<path d="M486.624 512.7H475.376C472.82 512.7 470.294 512.143 467.975 511.068C465.656 509.993 463.599 508.426 461.946 506.475C460.294 504.525 459.087 502.238 458.408 499.774C457.729 497.309 457.595 494.727 458.015 492.205L463.405 459.9V424.7H498.606V459.9L503.99 492.205C504.41 494.727 504.276 497.31 503.597 499.775C502.918 502.24 501.71 504.527 500.057 506.478C498.404 508.428 496.347 509.995 494.027 511.07C491.707 512.144 489.181 512.7 486.624 512.7Z" fill="#3E8CC7"/>
<path d="M454.6 389.5H507.4V424.7H454.6V389.5Z" fill="#69B9E7"/>
<path d="M454.6 389.5H507.4V407.1H454.6V389.5Z" fill="#61AAD4"/>
<path d="M692.2 530.3H613C598.42 530.3 586.6 542.119 586.6 556.7C586.6 571.28 598.42 583.1 613 583.1H692.2C706.78 583.1 718.6 571.28 718.6 556.7C718.6 542.119 706.78 530.3 692.2 530.3Z" fill="#B9B9B9"/>
<path d="M648.2 451.097C648.2 448.763 647.273 446.525 645.623 444.875C643.972 443.224 641.734 442.297 639.4 442.297H608.6L613 459.897H639.4C641.734 459.897 643.972 458.97 645.623 457.32C647.273 455.67 648.2 453.431 648.2 451.097Z" fill="#3474A6"/>
<path d="M657 477.497C657 475.163 656.073 472.925 654.423 471.275C652.772 469.625 650.534 468.697 648.2 468.697H615.2L619.6 486.297H648.2C650.534 486.297 652.772 485.37 654.423 483.72C656.073 482.07 657 479.831 657 477.497Z" fill="#3474A6"/>
<path d="M657 495.097H621.8L626.2 512.697H657C659.334 512.697 661.572 511.77 663.223 510.12C664.873 508.47 665.8 506.231 665.8 503.897C665.8 501.564 664.873 499.325 663.223 497.675C661.572 496.025 659.334 495.097 657 495.097Z" fill="#3474A6"/>
<path d="M551.4 336.697H569V363.097H551.4V336.697Z" fill="#5BA0C8"/>
<path d="M586.6 336.697H604.2V363.097H586.6V336.697Z" fill="#5BA0C8"/>
<path d="M621.8 336.697H639.4V363.097H621.8V336.697Z" fill="#5BA0C8"/>
<path d="M657 336.697H674.6V363.097H657V336.697Z" fill="#5BA0C8"/>
<path d="M701 345.5H736.2V380.7H701V345.5Z" fill="#3E8CC7"/>
<path d="M701 345.5H718.6V380.7H701V345.5Z" fill="#3880B5"/>
<path d="M454.6 363.097H472.2V389.497H454.6V363.097Z" fill="#5BA0C8"/>
<path d="M489.8 363.097H507.4V389.497H489.8V363.097Z" fill="#5BA0C8"/>
<path d="M225.8 336.7H278.6V371.9H225.8V336.7Z" fill="#3474A6"/>
<path d="M489.8 736.195C499.52 736.195 507.4 728.316 507.4 718.595C507.4 708.875 499.52 700.995 489.8 700.995C480.08 700.995 472.2 708.875 472.2 718.595C472.2 728.316 480.08 736.195 489.8 736.195Z" fill="#FDB62F"/>
<path d="M489.8 665.795C499.52 665.795 507.4 657.916 507.4 648.195C507.4 638.475 499.52 630.595 489.8 630.595C480.08 630.595 472.2 638.475 472.2 648.195C472.2 657.916 480.08 665.795 489.8 665.795Z" fill="#FF9201"/>
<path d="M560.2 736.195C569.92 736.195 577.8 728.316 577.8 718.595C577.8 708.875 569.92 700.995 560.2 700.995C550.48 700.995 542.6 708.875 542.6 718.595C542.6 728.316 550.48 736.195 560.2 736.195Z" fill="#FF9201"/>
<path d="M560.2 665.795C569.92 665.795 577.8 657.916 577.8 648.195C577.8 638.475 569.92 630.595 560.2 630.595C550.48 630.595 542.6 638.475 542.6 648.195C542.6 657.916 550.48 665.795 560.2 665.795Z" fill="#FDB62F"/>
<path d="M630.6 736.195C640.32 736.195 648.2 728.316 648.2 718.595C648.2 708.875 640.32 700.995 630.6 700.995C620.88 700.995 613 708.875 613 718.595C613 728.316 620.88 736.195 630.6 736.195Z" fill="#FDB62F"/>
<path d="M630.6 665.795C640.32 665.795 648.2 657.916 648.2 648.195C648.2 638.475 640.32 630.595 630.6 630.595C620.88 630.595 613 638.475 613 648.195C613 657.916 620.88 665.795 630.6 665.795Z" fill="#FF9201"/>
<path d="M701 736.195C710.72 736.195 718.6 728.316 718.6 718.595C718.6 708.875 710.72 700.995 701 700.995C691.28 700.995 683.4 708.875 683.4 718.595C683.4 728.316 691.28 736.195 701 736.195Z" fill="#FF9201"/>
<path d="M701 665.795C710.72 665.795 718.6 657.916 718.6 648.195C718.6 638.475 710.72 630.595 701 630.595C691.28 630.595 683.4 638.475 683.4 648.195C683.4 657.916 691.28 665.795 701 665.795Z" fill="#FDB62F"/>
<path d="M243.4 419.395H287.4V454.595H243.4V419.395Z" fill="#DBDBDB"/>
<path d="M516.2 586.595H569V604.195H516.2V586.595Z" fill="#FBEEBD"/>
<path d="M481 586.595H498.6V604.195H481V586.595Z" fill="#FBEEBD"/>
<path d="M676.067 407.098L701 389.498H595.4L599.8 407.098H676.067Z" fill="#3B84BC"/>
<path d="M630.6 530.299H692.2L690 521.499H628.4L630.6 530.299Z" fill="#3B84BC"/>
<path d="M384.2 410.595H305C290.42 410.595 278.6 422.415 278.6 436.995C278.6 451.576 290.42 463.395 305 463.395H384.2C398.78 463.395 410.6 451.576 410.6 436.995C410.6 422.415 398.78 410.595 384.2 410.595Z" fill="#B9B9B9"/>
<path d="M463.4 287.395H498.6V319.098H463.4V287.395Z" fill="#6F7478"/>
<path d="M514.265 301.5H438.836C430.827 301.499 423.058 298.768 416.811 293.756C410.564 288.745 406.212 281.753 404.475 273.935L400.92 257.926C400.014 253.85 400.088 249.617 401.136 245.575C402.184 241.534 404.175 237.798 406.947 234.675C409.719 231.552 413.192 229.131 417.081 227.611C420.97 226.091 425.164 225.515 429.319 225.931L452.264 228.225C471.363 230.135 490.616 229.897 509.663 227.517C514.887 226.864 520.191 227.33 525.222 228.883C530.253 230.437 534.895 233.042 538.843 236.527C542.79 240.011 545.95 244.296 548.115 249.095C550.28 253.894 551.4 259.099 551.4 264.365C551.4 274.213 547.488 283.659 540.523 290.623C533.559 297.587 524.114 301.5 514.265 301.5V301.5Z" fill="#878787"/>
<path d="M269.8 656.995L243.4 639.395V683.395L269.8 697.795V656.995Z" fill="#A8A8A8"/>
<path d="M410.6 697.795L437 683.395V639.395L410.6 656.995V697.795Z" fill="#A8A8A8"/>
<path d="M340.2 568.995L313.8 560.195H296.2L261 621.795L296.2 639.395L313.8 612.995L343.972 567.738L340.2 568.995Z" fill="#4298D1"/>
<path d="M360.296 615.491L372.909 628.104L421.409 560.195H399.788L360.296 615.491Z" fill="#4298D1"/>
<path d="M296.2 524.995H313.8V542.595H296.2V524.995Z" fill="#A8A8A8"/>
<path d="M331.4 516.195H349V533.795H331.4V516.195Z" fill="#A8A8A8"/>
<path d="M366.6 524.995H384.2V542.595H366.6V524.995Z" fill="#A8A8A8"/>
<path d="M331.4 674.595V731.395L340.2 736.195L349 731.395V674.595H331.4Z" fill="#878787"/>
<path d="M366.6 656.995V721.795L384.2 712.196V656.995H366.6Z" fill="#878787"/>
<path d="M296.2 656.995V712.196L313.8 721.795V656.995H296.2Z" fill="#878787"/>
<path d="M331.4 639.395H349V656.995H331.4V639.395Z" fill="#878787"/>
<path d="M445.8 551.395H445.273C443.642 538.508 438.228 526.392 429.714 516.58C421.201 506.769 409.97 499.7 397.441 496.269C359.957 486.113 320.446 486.113 282.963 496.269C270.442 499.719 259.22 506.793 250.707 516.601C242.194 526.409 236.77 538.514 235.115 551.395H234.6C232.821 551.395 231.083 551.935 229.617 552.942C228.15 553.95 227.023 555.378 226.385 557.039C219.968 573.769 219.65 592.225 225.488 609.166L226.282 611.467C227.033 613.642 228.606 615.437 230.664 616.466L234.6 618.434V683.395C234.6 684.975 235.025 686.525 235.83 687.884C236.636 689.243 237.792 690.36 239.178 691.117L265.589 705.555L335.989 743.922C337.281 744.626 338.729 744.995 340.2 744.995C341.671 744.995 343.119 744.626 344.411 743.922L414.822 705.549L441.222 691.117C442.608 690.36 443.764 689.243 444.57 687.884C445.375 686.525 445.8 684.975 445.8 683.395V618.434L449.736 616.466C451.794 615.437 453.367 613.642 454.118 611.467L454.913 609.165C460.749 592.224 460.431 573.769 454.015 557.039C453.377 555.378 452.25 553.95 450.783 552.942C449.317 551.935 447.579 551.395 445.8 551.395V551.395ZM428.2 634.686L405.718 649.674C404.513 650.477 403.525 651.566 402.841 652.843C402.158 654.121 401.8 655.547 401.8 656.995V692.601L384.2 702.193V656.995H366.6V711.785L349 721.377V674.595H331.4V721.377L313.8 711.785V656.995H296.2V702.193L278.6 692.601V656.995C278.6 655.547 278.242 654.121 277.559 652.843C276.875 651.566 275.887 650.477 274.682 649.674L252.2 634.686V627.234L292.264 647.266C294.182 648.225 296.385 648.451 298.458 647.9C300.531 647.35 302.332 646.062 303.522 644.277L305.398 641.462L318.509 621.795H354.156L377.977 645.618C379.283 646.924 380.967 647.787 382.79 648.083C384.613 648.379 386.484 648.094 388.136 647.268L428.2 627.234V634.686ZM281.035 568.995L257.495 610.201L247.341 605.125L241.768 602.339C238.279 591.536 238.002 579.953 240.97 568.995H281.035ZM437 568.995H439.43C442.4 579.952 442.125 591.534 438.639 602.337L433.064 605.125L385.938 628.688L378.094 620.844L415.128 568.995H437ZM365.478 608.227L364.023 606.773C363.205 605.955 362.235 605.307 361.168 604.865C360.1 604.423 358.956 604.195 357.8 604.195H330.243L349.618 575.132L368.03 568.995H393.497L365.478 608.227ZM306.479 608.117L293.187 628.051L273.256 618.085L301.307 568.995H312.37L328.885 574.495L306.479 608.117ZM287.62 513.241C322.064 503.919 358.367 503.922 392.81 513.247C401.612 515.662 409.546 520.531 415.684 527.286C421.823 534.041 425.913 542.403 427.476 551.395H366.6C365.663 551.484 364.734 551.635 363.817 551.846L340.2 559.719L316.583 551.846C315.685 551.548 314.746 551.396 313.8 551.395H252.911C254.494 542.403 258.595 534.045 264.739 527.291C270.883 520.537 278.817 515.665 287.62 513.241V513.241ZM252.2 655.838L261 661.704V682.987L252.2 678.177V655.838ZM419.4 682.987V661.704L428.2 655.838V678.177L419.4 682.987Z" fill="black"/>
<path d="M305.398 641.462L303.522 644.277C302.435 645.907 304.512 643.443 305.398 641.462Z" fill="black"/>
<path d="M736.2 336.698H709.8C709.8 334.365 708.873 332.126 707.223 330.476C705.572 328.826 703.334 327.898 701 327.898H507.4V310.298H514.265C520.538 310.299 526.745 309.015 532.503 306.525C538.261 304.035 543.447 300.392 547.743 295.821C552.039 291.25 555.353 285.847 557.481 279.946C559.61 274.045 560.506 267.771 560.117 261.51C559.727 255.249 558.059 249.134 555.215 243.542C552.372 237.951 548.413 233.001 543.583 228.997C538.754 224.994 533.155 222.023 527.133 220.266C521.111 218.51 514.793 218.005 508.568 218.784C490.174 221.08 471.581 221.31 453.136 219.469L430.191 217.175C424.651 216.621 419.059 217.389 413.874 219.415C408.689 221.442 404.058 224.67 400.363 228.834C396.667 232.997 394.012 237.978 392.615 243.367C391.218 248.757 391.119 254.4 392.327 259.835L395.884 275.845C398.012 285.641 403.439 294.408 411.258 300.68C419.077 306.952 428.813 310.348 438.837 310.3H454.6V327.9H225.8C223.466 327.9 221.228 328.827 219.577 330.477C217.927 332.127 217 334.366 217 336.7V371.9C217 374.233 217.927 376.472 219.577 378.122C221.228 379.772 223.466 380.7 225.8 380.7H419.4V389.5C419.4 391.833 420.327 394.072 421.977 395.722C423.628 397.372 425.866 398.3 428.2 398.3H445.8V424.7C445.8 427.033 446.727 429.272 448.377 430.922C450.028 432.572 452.266 433.5 454.6 433.5V459.171L449.337 490.76C448.75 494.277 448.881 497.877 449.724 501.341C450.567 504.806 452.103 508.064 454.24 510.918C456.377 513.772 459.07 516.164 462.157 517.949C465.244 519.733 468.66 520.874 472.2 521.302V539.098C472.208 546.098 474.992 552.808 479.941 557.757C484.89 562.707 491.601 565.491 498.6 565.498H578.914C580.875 573.05 585.285 579.737 591.453 584.514C597.62 589.292 605.198 591.889 613 591.898H692.2C700.924 591.901 709.339 588.664 715.811 582.814C722.284 576.965 726.354 568.92 727.232 560.24C728.11 551.56 725.733 542.863 720.562 535.837C715.392 528.81 707.796 523.953 699.248 522.209L673.599 419.615L706.074 396.691C706.885 396.119 707.254 395.799 707.328 395.608C708.916 393.971 709.803 391.779 709.8 389.498H736.2C738.534 389.498 740.772 388.571 742.423 386.921C744.073 385.271 745 383.032 745 380.698V345.498C745 343.165 744.073 340.926 742.423 339.276C740.772 337.626 738.534 336.698 736.2 336.698V336.698ZM234.6 345.498H269.8V363.098H234.6V345.498ZM413.065 272.026L409.508 256.018C408.936 253.45 408.948 250.786 409.542 248.223C410.136 245.66 411.296 243.262 412.939 241.207C414.582 239.152 416.664 237.491 419.033 236.347C421.403 235.203 423.998 234.604 426.629 234.595C427.228 234.595 427.832 234.625 428.44 234.686L451.385 236.98C471.139 238.953 491.051 238.707 510.751 236.248C514.589 235.769 518.485 236.081 522.199 237.166C525.912 238.25 529.364 240.083 532.342 242.552C535.32 245.021 537.761 248.074 539.514 251.523C541.267 254.971 542.296 258.742 542.536 262.603C542.776 266.464 542.224 270.333 540.912 273.972C539.6 277.612 537.557 280.944 534.908 283.763C532.259 286.583 529.061 288.83 525.511 290.366C521.961 291.903 518.134 292.696 514.265 292.697H499.067C498.912 292.69 498.758 292.674 498.6 292.674C498.442 292.674 498.288 292.69 498.133 292.697H463.868C463.712 292.69 463.558 292.674 463.4 292.674C463.242 292.674 463.088 292.69 462.933 292.697H438.843C432.828 292.728 426.985 290.691 422.292 286.928C417.6 283.165 414.342 277.904 413.065 272.026V272.026ZM472.2 310.298H489.8V327.898H472.2V310.298ZM287.4 363.098V345.498H419.4V363.098H287.4ZM437 371.898V345.498H551.4V363.098H569V345.498H586.6V363.098H604.2V345.498H621.8V363.098H639.4V345.498H657V363.098H674.6V345.498H692.2V380.698H507.4V363.098H489.8V380.698H472.2V363.098H454.6V380.698H437V371.898ZM562.777 422.122C563.594 422.939 564.565 423.588 565.632 424.03C566.7 424.472 567.844 424.7 569 424.7C570.156 424.7 571.3 424.472 572.368 424.03C573.435 423.588 574.406 422.939 575.223 422.122C581.638 415.742 585.604 407.309 586.427 398.298H588.529L597.329 433.475H557.743L546.018 398.298H568.67C567.934 402.611 565.874 406.587 562.776 409.676C561.959 410.493 561.311 411.463 560.868 412.531C560.426 413.599 560.198 414.743 560.199 415.899C560.199 417.055 560.426 418.2 560.869 419.267C561.311 420.335 561.96 421.305 562.777 422.122V422.122ZM498.6 398.298V415.898H463.4V398.298H498.6ZM468.661 500.787C467.828 499.816 467.22 498.673 466.881 497.44C466.542 496.206 466.48 494.913 466.7 493.653L472.085 461.346C472.164 460.868 472.203 460.383 472.203 459.898V433.498H489.803V459.898C489.803 460.383 489.843 460.868 489.922 461.346L495.312 493.653C495.522 494.914 495.455 496.205 495.115 497.437C494.776 498.669 494.172 499.812 493.346 500.787C492.519 501.762 491.491 502.546 490.331 503.083C489.172 503.62 487.909 503.899 486.631 503.898H475.377C474.097 503.908 472.831 503.633 471.67 503.095C470.509 502.557 469.482 501.769 468.661 500.787V500.787ZM489.8 539.098V521.302C493.34 520.874 496.757 519.733 499.844 517.949C502.931 516.164 505.624 513.772 507.761 510.918C509.898 508.063 511.434 504.805 512.277 501.34C513.12 497.876 513.252 494.276 512.665 490.759L507.4 459.17V433.498C509.734 433.498 511.972 432.571 513.623 430.921C515.273 429.271 516.2 427.032 516.2 424.698V398.298H527.464L543.051 445.058C543.635 446.811 544.756 448.335 546.254 449.415C547.753 450.494 549.553 451.076 551.4 451.075H601.724L619.324 521.498H613C605.198 521.508 597.62 524.105 591.453 528.882C585.285 533.66 580.875 540.347 578.914 547.898H498.6C496.267 547.896 494.03 546.968 492.38 545.318C490.731 543.668 489.803 541.432 489.8 539.098V539.098ZM709.8 556.698C709.795 561.365 707.939 565.838 704.639 569.138C701.34 572.437 696.866 574.293 692.2 574.298H613C608.332 574.298 603.856 572.444 600.555 569.144C597.254 565.843 595.4 561.366 595.4 556.698C595.4 552.031 597.254 547.554 600.555 544.253C603.856 540.953 608.332 539.098 613 539.098H692.2C696.866 539.104 701.34 540.96 704.639 544.26C707.938 547.559 709.794 552.032 709.8 556.698V556.698ZM680.929 521.498H637.471L635.271 512.698H657C659.334 512.698 661.572 511.771 663.223 510.121C664.873 508.471 665.8 506.232 665.8 503.898C665.8 501.565 664.873 499.326 663.223 497.676C661.572 496.026 659.334 495.098 657 495.098H630.871L628.671 486.298H648.2C650.534 486.298 652.772 485.371 654.423 483.721C656.073 482.071 657 479.832 657 477.498C657 475.165 656.073 472.926 654.423 471.276C652.772 469.626 650.534 468.698 648.2 468.698H624.271L622.071 459.898H639.4C641.734 459.898 643.972 458.971 645.623 457.321C647.273 455.671 648.2 453.432 648.2 451.098C648.2 448.765 647.273 446.526 645.623 444.876C643.972 443.226 641.734 442.298 639.4 442.298H617.671L617.221 440.502L606.672 398.304H673.275L658.527 408.714C657.076 409.738 655.97 411.176 655.352 412.841C654.734 414.505 654.633 416.317 655.064 418.039L680.929 521.498ZM727.4 371.898H709.8V354.298H727.4V371.898Z" fill="black"/>
<path d="M489.8 692.195C484.579 692.195 479.474 693.744 475.133 696.645C470.791 699.545 467.408 703.669 465.41 708.493C463.411 713.317 462.889 718.625 463.907 723.746C464.926 728.867 467.44 733.571 471.132 737.263C474.824 740.955 479.529 743.469 484.65 744.488C489.771 745.507 495.079 744.984 499.903 742.986C504.727 740.988 508.85 737.604 511.751 733.262C514.652 728.921 516.2 723.817 516.2 718.595C516.192 711.596 513.408 704.886 508.459 699.937C503.509 694.988 496.799 692.204 489.8 692.195V692.195ZM489.8 727.395C488.06 727.395 486.358 726.879 484.911 725.912C483.464 724.945 482.336 723.571 481.67 721.963C481.004 720.355 480.83 718.586 481.169 716.879C481.509 715.172 482.347 713.604 483.577 712.373C484.808 711.142 486.376 710.304 488.083 709.964C489.79 709.625 491.56 709.799 493.168 710.465C494.776 711.131 496.15 712.259 497.117 713.706C498.084 715.154 498.6 716.855 498.6 718.595C498.597 720.928 497.669 723.165 496.02 724.815C494.37 726.465 492.133 727.393 489.8 727.395V727.395Z" fill="black"/>
<path d="M489.8 621.795C484.579 621.795 479.474 623.344 475.133 626.245C470.791 629.145 467.408 633.269 465.41 638.093C463.411 642.917 462.889 648.225 463.907 653.346C464.926 658.467 467.44 663.171 471.132 666.863C474.824 670.555 479.529 673.069 484.65 674.088C489.771 675.107 495.079 674.584 499.903 672.586C504.727 670.588 508.85 667.204 511.751 662.862C514.652 658.521 516.2 653.417 516.2 648.195C516.192 641.196 513.408 634.486 508.459 629.537C503.509 624.588 496.799 621.804 489.8 621.795V621.795ZM489.8 656.995C488.06 656.995 486.358 656.479 484.911 655.512C483.464 654.545 482.336 653.171 481.67 651.563C481.004 649.955 480.83 648.186 481.169 646.479C481.509 644.772 482.347 643.204 483.577 641.973C484.808 640.742 486.376 639.904 488.083 639.564C489.79 639.225 491.56 639.399 493.168 640.065C494.776 640.731 496.15 641.859 497.117 643.306C498.084 644.754 498.6 646.455 498.6 648.195C498.597 650.529 497.669 652.765 496.02 654.415C494.37 656.065 492.133 656.993 489.8 656.995Z" fill="black"/>
<path d="M560.2 692.195C554.979 692.195 549.874 693.744 545.533 696.645C541.191 699.545 537.808 703.669 535.81 708.493C533.811 713.317 533.289 718.625 534.307 723.746C535.326 728.867 537.84 733.571 541.532 737.263C545.224 740.955 549.929 743.469 555.05 744.488C560.171 745.507 565.479 744.984 570.303 742.986C575.127 740.988 579.25 737.604 582.151 733.262C585.052 728.921 586.6 723.817 586.6 718.595C586.592 711.596 583.808 704.886 578.859 699.937C573.909 694.988 567.199 692.204 560.2 692.195V692.195ZM560.2 727.395C558.46 727.395 556.758 726.879 555.311 725.912C553.864 724.945 552.736 723.571 552.07 721.963C551.404 720.355 551.23 718.586 551.569 716.879C551.909 715.172 552.747 713.604 553.977 712.373C555.208 711.142 556.776 710.304 558.483 709.964C560.19 709.625 561.96 709.799 563.568 710.465C565.176 711.131 566.55 712.259 567.517 713.706C568.484 715.154 569 716.855 569 718.595C568.997 720.928 568.069 723.165 566.42 724.815C564.77 726.465 562.533 727.393 560.2 727.395V727.395Z" fill="black"/>
<path d="M560.2 621.795C554.979 621.795 549.874 623.344 545.533 626.245C541.191 629.145 537.808 633.269 535.81 638.093C533.811 642.917 533.289 648.225 534.307 653.346C535.326 658.467 537.84 663.171 541.532 666.863C545.224 670.555 549.929 673.069 555.05 674.088C560.171 675.107 565.479 674.584 570.303 672.586C575.127 670.588 579.25 667.204 582.151 662.862C585.052 658.521 586.6 653.417 586.6 648.195C586.592 641.196 583.808 634.486 578.859 629.537C573.909 624.588 567.199 621.804 560.2 621.795V621.795ZM560.2 656.995C558.46 656.995 556.758 656.479 555.311 655.512C553.864 654.545 552.736 653.171 552.07 651.563C551.404 649.955 551.23 648.186 551.569 646.479C551.909 644.772 552.747 643.204 553.977 641.973C555.208 640.742 556.776 639.904 558.483 639.564C560.19 639.225 561.96 639.399 563.568 640.065C565.176 640.731 566.55 641.859 567.517 643.306C568.484 644.754 569 646.455 569 648.195C568.997 650.529 568.069 652.765 566.42 654.415C564.77 656.065 562.533 656.993 560.2 656.995Z" fill="black"/>
<path d="M630.6 692.195C625.379 692.195 620.274 693.744 615.933 696.645C611.592 699.545 608.208 703.669 606.21 708.493C604.211 713.317 603.689 718.625 604.707 723.746C605.726 728.867 608.24 733.571 611.932 737.263C615.625 740.955 620.329 743.469 625.45 744.488C630.571 745.507 635.879 744.984 640.703 742.986C645.527 740.988 649.65 737.604 652.551 733.262C655.452 728.921 657 723.817 657 718.595C656.992 711.596 654.208 704.886 649.259 699.937C644.309 694.988 637.599 692.204 630.6 692.195V692.195ZM630.6 727.395C628.86 727.395 627.158 726.879 625.711 725.912C624.264 724.945 623.136 723.571 622.47 721.963C621.804 720.355 621.63 718.586 621.969 716.879C622.309 715.172 623.147 713.604 624.377 712.373C625.608 711.142 627.176 710.304 628.883 709.964C630.59 709.625 632.36 709.799 633.968 710.465C635.576 711.131 636.95 712.259 637.917 713.706C638.884 715.154 639.4 716.855 639.4 718.595C639.397 720.928 638.469 723.165 636.82 724.815C635.17 726.465 632.933 727.393 630.6 727.395V727.395Z" fill="black"/>
<path d="M630.6 621.795C625.379 621.795 620.274 623.344 615.933 626.245C611.592 629.145 608.208 633.269 606.21 638.093C604.211 642.917 603.689 648.225 604.707 653.346C605.726 658.467 608.24 663.171 611.932 666.863C615.625 670.555 620.329 673.069 625.45 674.088C630.571 675.107 635.879 674.584 640.703 672.586C645.527 670.588 649.65 667.204 652.551 662.862C655.452 658.521 657 653.417 657 648.195C656.992 641.196 654.208 634.486 649.259 629.537C644.309 624.588 637.599 621.804 630.6 621.795V621.795ZM630.6 656.995C628.86 656.995 627.158 656.479 625.711 655.512C624.264 654.545 623.136 653.171 622.47 651.563C621.804 649.955 621.63 648.186 621.969 646.479C622.309 644.772 623.147 643.204 624.377 641.973C625.608 640.742 627.176 639.904 628.883 639.564C630.59 639.225 632.36 639.399 633.968 640.065C635.576 640.731 636.95 641.859 637.917 643.306C638.884 644.754 639.4 646.455 639.4 648.195C639.397 650.529 638.469 652.765 636.82 654.415C635.17 656.065 632.933 656.993 630.6 656.995Z" fill="black"/>
<path d="M701 692.195C695.779 692.195 690.674 693.744 686.333 696.645C681.992 699.545 678.608 703.669 676.61 708.493C674.611 713.317 674.089 718.625 675.107 723.746C676.126 728.867 678.64 733.571 682.332 737.263C686.025 740.955 690.729 743.469 695.85 744.488C700.971 745.507 706.279 744.984 711.103 742.986C715.927 740.988 720.05 737.604 722.951 733.262C725.852 728.921 727.4 723.817 727.4 718.595C727.392 711.596 724.608 704.886 719.659 699.937C714.709 694.988 707.999 692.204 701 692.195V692.195ZM701 727.395C699.26 727.395 697.558 726.879 696.111 725.912C694.664 724.945 693.536 723.571 692.87 721.963C692.204 720.355 692.03 718.586 692.369 716.879C692.709 715.172 693.547 713.604 694.777 712.373C696.008 711.142 697.576 710.304 699.283 709.964C700.99 709.625 702.76 709.799 704.368 710.465C705.976 711.131 707.35 712.259 708.317 713.706C709.284 715.154 709.8 716.855 709.8 718.595C709.797 720.928 708.869 723.165 707.22 724.815C705.57 726.465 703.333 727.393 701 727.395V727.395Z" fill="black"/>
<path d="M701 621.795C695.779 621.795 690.674 623.344 686.333 626.245C681.992 629.145 678.608 633.269 676.61 638.093C674.611 642.917 674.089 648.225 675.107 653.346C676.126 658.467 678.64 663.171 682.332 666.863C686.025 670.555 690.729 673.069 695.85 674.088C700.971 675.107 706.279 674.584 711.103 672.586C715.927 670.588 720.05 667.204 722.951 662.862C725.852 658.521 727.4 653.417 727.4 648.195C727.392 641.196 724.608 634.486 719.659 629.537C714.709 624.588 707.999 621.804 701 621.795V621.795ZM701 656.995C699.26 656.995 697.558 656.479 696.111 655.512C694.664 654.545 693.536 653.171 692.87 651.563C692.204 649.955 692.03 648.186 692.369 646.479C692.709 644.772 693.547 643.204 694.777 641.973C696.008 640.742 697.576 639.904 699.283 639.564C700.99 639.225 702.76 639.399 704.368 640.065C705.976 640.731 707.35 641.859 708.317 643.306C709.284 644.754 709.8 646.455 709.8 648.195C709.797 650.529 708.869 652.765 707.22 654.415C705.57 656.065 703.333 656.993 701 656.995Z" fill="black"/>
<path d="M281.755 463.395C288.168 469.07 296.437 472.2 305 472.195H384.2C393.536 472.195 402.489 468.487 409.09 461.886C415.691 455.284 419.4 446.331 419.4 436.995C419.4 427.66 415.691 418.706 409.09 412.105C402.489 405.504 393.536 401.795 384.2 401.795H305C296.437 401.79 288.168 404.921 281.755 410.595H243.4C241.066 410.595 238.828 411.522 237.177 413.173C235.527 414.823 234.6 417.061 234.6 419.395V454.595C234.6 456.929 235.527 459.168 237.177 460.818C238.828 462.468 241.066 463.395 243.4 463.395H281.755ZM384.2 419.395C388.868 419.395 393.344 421.25 396.645 424.55C399.946 427.851 401.8 432.328 401.8 436.995C401.8 441.663 399.946 446.14 396.645 449.44C393.344 452.741 388.868 454.595 384.2 454.595H305C302.595 454.594 300.215 454.098 298.009 453.138C295.804 452.178 293.819 450.775 292.18 449.015C291.992 448.786 291.793 448.566 291.582 448.355C288.883 445.184 287.4 441.156 287.4 436.992C287.4 432.828 288.883 428.8 291.582 425.629C291.792 425.42 291.991 425.2 292.18 424.969C293.82 423.211 295.805 421.808 298.01 420.849C300.216 419.89 302.595 419.396 305 419.395H384.2ZM252.2 428.195H270.914C269.429 433.968 269.429 440.023 270.914 445.795H252.2V428.195Z" fill="black"/>
<path d="M296.2 524.995H313.8V542.595H296.2V524.995Z" fill="black"/>
<path d="M331.4 516.195H349V533.795H331.4V516.195Z" fill="black"/>
<path d="M366.6 524.995H384.2V542.595H366.6V524.995Z" fill="black"/>
<path d="M516.2 586.595H569V604.195H516.2V586.595Z" fill="black"/>
<path d="M481 586.595H498.6V604.195H481V586.595Z" fill="black"/>
<path d="M331.4 639.395H349V656.995H331.4V639.395Z" fill="black"/>
</svg>
